<?xml version="1.0" encoding="UTF-8" standalone="no"?>
<!DOCTYPE svg PUBLIC "-//W3C//DTD SVG 1.1//EN"
"http://www.w3.org/Graphics/SVG/1.1/DTD/svg11.dtd">
<svg version="1.1" xmlns="http://www.w3.org/2000/svg" xmlns:xlink="http://www.w3.org/1999/xlink">
<defs>
<clipPath id="c0_31"><path d="M126.5,125.5l0,-40l187,0l0,40Z" /></clipPath>
<style type="text/css"><![CDATA[
.g1_31{
fill: none;
stroke: #000000;
stroke-width: 1;
stroke-linecap: butt;
stroke-linejoin: miter;
}
.g2_31{
fill: #DFDFDF;
}
.g3_31{
fill: none;
stroke: #0066FF;
stroke-width: 1;
stroke-linecap: butt;
stroke-linejoin: miter;
}
]]></style>
</defs>
<path d="M122.5,1029.5l705,0" class="g1_31" />
<path fill-rule="evenodd" d="M126,85l187,0l0,-2L126,83l0,2Z" class="g2_31" />
<path fill-rule="evenodd" d="M126,125l11,0l0,-40l-11,0l0,40Z" class="g2_31" />
<path fill-rule="evenodd" d="M302,125l11,0l0,-40l-11,0l0,40Z" class="g2_31" />
<path fill-rule="evenodd" d="M126,127l187,0l0,-2l-187,0l0,2Z" class="g2_31" />
<g clip-path="url(#c0_31)">
<path fill-rule="evenodd" d="M137,105l165,0l0,-20L137,85l0,20Z" class="g2_31" />
</g>
<path fill-rule="evenodd" d="M137,125l165,0l0,-20l-165,0l0,20Z" class="g2_31" />
<path fill-rule="evenodd" d="M313,100l377,0l0,-17L313,83l0,17Z" class="g2_31" />
<path fill-rule="evenodd" d="M313,125l11,0l0,-25l-11,0l0,25Z" class="g2_31" />
<path fill-rule="evenodd" d="M680,125l10,0l0,-25l-10,0l0,25Z" class="g2_31" />
<path fill-rule="evenodd" d="M313,127l377,0l0,-2l-377,0l0,2Z" class="g2_31" />
<path fill-rule="evenodd" d="M324,125l356,0l0,-25l-356,0l0,25Z" class="g2_31" />
<path fill-rule="evenodd" d="M691,100l122,0l0,-17L691,83l0,17Z" class="g2_31" />
<path fill-rule="evenodd" d="M691,125l11,0l0,-25l-11,0l0,25Z" class="g2_31" />
<path fill-rule="evenodd" d="M803,125l10,0l0,-25l-10,0l0,25Z" class="g2_31" />
<path fill-rule="evenodd" d="M691,127l122,0l0,-2l-122,0l0,2Z" class="g2_31" />
<path fill-rule="evenodd" d="M702,125l101,0l0,-25l-101,0l0,25Z" class="g2_31" />
<path d="M126.5,85.5l0,-3" class="g1_31" />
<path d="M126.5,83.5l0,-1" class="g1_31" />
<path d="M126.5,83.5l187,0" class="g1_31" />
<path fill-rule="evenodd" d="M126,85l187,0l0,-2L126,83l0,2Z" class="g2_31" />
<path d="M313.5,85.5l0,-2" class="g1_31" />
<path d="M313.5,83.5l0,-1" class="g1_31" />
<path d="M313.5,83.5l378,0" class="g1_31" />
<path fill-rule="evenodd" d="M313,85l378,0l0,-2L313,83l0,2Z" class="g2_31" />
<path d="M691.5,85.5l0,-2" class="g1_31" />
<path d="M691.5,83.5l0,-1" class="g1_31" />
<path d="M691.5,83.5l122,0" class="g1_31" />
<path fill-rule="evenodd" d="M691,85l122,0l0,-2L691,83l0,2Z" class="g2_31" />
<path d="M813.5,85.5l0,-3" class="g1_31" />
<path d="M813.5,83.5l0,-1" class="g1_31" />
<path fill-rule="evenodd" d="M126,127l187,0l0,-2l-187,0l0,2Z" class="g2_31" />
<path d="M126.5,127.5l0,-42" class="g1_31" />
<path fill-rule="evenodd" d="M313,127l378,0l0,-2l-378,0l0,2Z" class="g2_31" />
<path d="M313.5,127.5l0,-42" class="g1_31" />
<path fill-rule="evenodd" d="M691,127l123,0l0,-2l-123,0l0,2Z" class="g2_31" />
<path d="M691.5,127.5l0,-42" class="g1_31" />
<path d="M813.5,127.5l0,-42" class="g1_31" />
<path d="M702.5,149.5l30,0" class="g3_31" />
<path d="M702.5,164.5l77,0" class="g3_31" />
<path d="M126.5,130.5l0,-3" class="g1_31" />
<path d="M126.5,128.5l187,0" class="g1_31" />
<path d="M313.5,130.5l0,-3" class="g1_31" />
<path d="M313.5,128.5l378,0" class="g1_31" />
<path d="M691.5,130.5l0,-3" class="g1_31" />
<path d="M691.5,128.5l122,0" class="g1_31" />
<path d="M813.5,130.5l0,-3" class="g1_31" />
<path d="M126.5,186.5l0,-56" class="g1_31" />
<path d="M313.5,186.5l0,-56" class="g1_31" />
<path d="M691.5,186.5l0,-56" class="g1_31" />
<path d="M813.5,186.5l0,-56" class="g1_31" />
<path d="M702.5,208.5l30,0" class="g3_31" />
<path d="M702.5,223.5l80,0" class="g3_31" />
<path d="M126.5,189.5l0,-3" class="g1_31" />
<path d="M126.5,187.5l187,0" class="g1_31" />
<path d="M313.5,189.5l0,-3" class="g1_31" />
<path d="M313.5,187.5l378,0" class="g1_31" />
<path d="M691.5,189.5l0,-3" class="g1_31" />
<path d="M691.5,187.5l122,0" class="g1_31" />
<path d="M813.5,189.5l0,-3" class="g1_31" />
<path d="M126.5,230.5l0,-41" class="g1_31" />
<path d="M313.5,230.5l0,-41" class="g1_31" />
<path d="M691.5,230.5l0,-41" class="g1_31" />
<path d="M813.5,230.5l0,-41" class="g1_31" />
<path d="M702.5,252.5l99,0" class="g3_31" />
<path d="M126.5,233.5l0,-3" class="g1_31" />
<path d="M126.5,231.5l187,0" class="g1_31" />
<path d="M313.5,233.5l0,-3" class="g1_31" />
<path d="M313.5,231.5l378,0" class="g1_31" />
<path d="M691.5,233.5l0,-3" class="g1_31" />
<path d="M691.5,231.5l122,0" class="g1_31" />
<path d="M813.5,233.5l0,-3" class="g1_31" />
<path d="M126.5,274.5l0,-41" class="g1_31" />
<path d="M313.5,274.5l0,-41" class="g1_31" />
<path d="M691.5,274.5l0,-41" class="g1_31" />
<path d="M813.5,274.5l0,-41" class="g1_31" />
<path d="M702.5,296.5l30,0" class="g3_31" />
<path d="M702.5,311.5l74,0" class="g3_31" />
<path d="M126.5,277.5l0,-3" class="g1_31" />
<path d="M126.5,275.5l187,0" class="g1_31" />
<path d="M313.5,277.5l0,-3" class="g1_31" />
<path d="M313.5,275.5l378,0" class="g1_31" />
<path d="M691.5,277.5l0,-3" class="g1_31" />
<path d="M691.5,275.5l122,0" class="g1_31" />
<path d="M813.5,277.5l0,-3" class="g1_31" />
<path d="M126.5,333.5l0,-56" class="g1_31" />
<path d="M313.5,333.5l0,-56" class="g1_31" />
<path d="M691.5,333.5l0,-56" class="g1_31" />
<path d="M813.5,333.5l0,-56" class="g1_31" />
<path d="M702.5,355.5l30,0" class="g3_31" />
<path d="M702.5,370.5l72,0" class="g3_31" />
<path d="M126.5,336.5l0,-3" class="g1_31" />
<path d="M126.5,334.5l187,0" class="g1_31" />
<path d="M313.5,336.5l0,-3" class="g1_31" />
<path d="M313.5,334.5l378,0" class="g1_31" />
<path d="M691.5,336.5l0,-3" class="g1_31" />
<path d="M691.5,334.5l122,0" class="g1_31" />
<path d="M813.5,336.5l0,-3" class="g1_31" />
<path d="M126.5,377.5l0,-41" class="g1_31" />
<path d="M313.5,377.5l0,-41" class="g1_31" />
<path d="M691.5,377.5l0,-41" class="g1_31" />
<path d="M813.5,377.5l0,-41" class="g1_31" />
<path d="M702.5,399.5l30,0" class="g3_31" />
<path d="M702.5,414.5l80,0" class="g3_31" />
<path d="M126.5,380.5l0,-3" class="g1_31" />
<path d="M126.5,378.5l187,0" class="g1_31" />
<path d="M313.5,380.5l0,-3" class="g1_31" />
<path d="M313.5,378.5l378,0" class="g1_31" />
<path d="M691.5,380.5l0,-3" class="g1_31" />
<path d="M691.5,378.5l122,0" class="g1_31" />
<path d="M813.5,380.5l0,-3" class="g1_31" />
<path d="M126.5,421.5l0,-41" class="g1_31" />
<path d="M313.5,421.5l0,-41" class="g1_31" />
<path d="M691.5,421.5l0,-41" class="g1_31" />
<path d="M813.5,421.5l0,-41" class="g1_31" />
<path d="M702.5,443.5l30,0" class="g3_31" />
<path d="M702.5,458.5l79,0" class="g3_31" />
<path d="M126.5,424.5l0,-3" class="g1_31" />
<path d="M126.5,422.5l187,0" class="g1_31" />
<path d="M313.5,424.5l0,-3" class="g1_31" />
<path d="M313.5,422.5l378,0" class="g1_31" />
<path d="M691.5,424.5l0,-3" class="g1_31" />
<path d="M691.5,422.5l122,0" class="g1_31" />
<path d="M813.5,424.5l0,-3" class="g1_31" />
<path d="M126.5,510.5l0,-86" class="g1_31" />
<path d="M313.5,510.5l0,-86" class="g1_31" />
<path d="M691.5,510.5l0,-86" class="g1_31" />
<path d="M813.5,510.5l0,-86" class="g1_31" />
<path d="M702.5,532.5l30,0" class="g3_31" />
<path d="M702.5,546.5l79,0" class="g3_31" />
<path d="M126.5,513.5l0,-3" class="g1_31" />
<path d="M126.5,511.5l187,0" class="g1_31" />
<path d="M313.5,513.5l0,-3" class="g1_31" />
<path d="M313.5,511.5l378,0" class="g1_31" />
<path d="M691.5,513.5l0,-3" class="g1_31" />
<path d="M691.5,511.5l122,0" class="g1_31" />
<path d="M813.5,513.5l0,-3" class="g1_31" />
<path d="M126.5,554.5l0,-41" class="g1_31" />
<path d="M313.5,554.5l0,-41" class="g1_31" />
<path d="M691.5,554.5l0,-41" class="g1_31" />
<path d="M813.5,554.5l0,-41" class="g1_31" />
<path d="M702.5,576.5l30,0" class="g3_31" />
<path d="M702.5,590.5l73,0" class="g3_31" />
<path d="M126.5,557.5l0,-3" class="g1_31" />
<path d="M126.5,555.5l187,0" class="g1_31" />
<path d="M313.5,557.5l0,-3" class="g1_31" />
<path d="M313.5,555.5l378,0" class="g1_31" />
<path d="M691.5,557.5l0,-3" class="g1_31" />
<path d="M691.5,555.5l122,0" class="g1_31" />
<path d="M813.5,557.5l0,-3" class="g1_31" />
<path d="M126.5,598.5l0,-41" class="g1_31" />
<path d="M313.5,598.5l0,-41" class="g1_31" />
<path d="M691.5,598.5l0,-41" class="g1_31" />
<path d="M813.5,598.5l0,-41" class="g1_31" />
<path d="M702.5,620.5l98,0" class="g3_31" />
<path d="M126.5,601.5l0,-3" class="g1_31" />
<path d="M126.5,599.5l187,0" class="g1_31" />
<path d="M313.5,601.5l0,-3" class="g1_31" />
<path d="M313.5,599.5l378,0" class="g1_31" />
<path d="M691.5,601.5l0,-3" class="g1_31" />
<path d="M691.5,599.5l122,0" class="g1_31" />
<path d="M813.5,601.5l0,-3" class="g1_31" />
<path d="M126.5,672.5l0,-71" class="g1_31" />
<path d="M313.5,672.5l0,-71" class="g1_31" />
<path d="M691.5,672.5l0,-71" class="g1_31" />
<path d="M813.5,672.5l0,-71" class="g1_31" />
<path d="M702.5,694.5l30,0" class="g3_31" />
<path d="M702.5,708.5l77,0" class="g3_31" />
<path d="M126.5,675.5l0,-3" class="g1_31" />
<path d="M126.5,672.5l187,0" class="g1_31" />
<path d="M313.5,675.5l0,-3" class="g1_31" />
<path d="M313.5,672.5l378,0" class="g1_31" />
<path d="M691.5,675.5l0,-3" class="g1_31" />
<path d="M691.5,672.5l122,0" class="g1_31" />
<path d="M813.5,675.5l0,-3" class="g1_31" />
<path d="M126.5,716.5l0,-41" class="g1_31" />
<path d="M313.5,716.5l0,-41" class="g1_31" />
<path d="M691.5,716.5l0,-41" class="g1_31" />
<path d="M813.5,716.5l0,-41" class="g1_31" />
<path d="M702.5,738.5l30,0" class="g3_31" />
<path d="M702.5,753.5l88,0" class="g3_31" />
<path d="M126.5,719.5l0,-3" class="g1_31" />
<path d="M126.5,716.5l187,0" class="g1_31" />
<path d="M313.5,719.5l0,-3" class="g1_31" />
<path d="M313.5,716.5l378,0" class="g1_31" />
<path d="M691.5,719.5l0,-3" class="g1_31" />
<path d="M691.5,716.5l122,0" class="g1_31" />
<path d="M813.5,719.5l0,-3" class="g1_31" />
<path d="M126.5,760.5l0,-41" class="g1_31" />
<path d="M313.5,760.5l0,-41" class="g1_31" />
<path d="M691.5,760.5l0,-41" class="g1_31" />
<path d="M813.5,760.5l0,-41" class="g1_31" />
<path d="M702.5,782.5l30,0" class="g3_31" />
<path d="M702.5,797.5l87,0" class="g3_31" />
<path d="M126.5,763.5l0,-3" class="g1_31" />
<path d="M126.5,761.5l187,0" class="g1_31" />
<path d="M313.5,763.5l0,-3" class="g1_31" />
<path d="M313.5,761.5l378,0" class="g1_31" />
<path d="M691.5,763.5l0,-3" class="g1_31" />
<path d="M691.5,761.5l122,0" class="g1_31" />
<path d="M813.5,763.5l0,-3" class="g1_31" />
<path d="M126.5,819.5l0,-56" class="g1_31" />
<path d="M313.5,819.5l0,-56" class="g1_31" />
<path d="M691.5,819.5l0,-56" class="g1_31" />
<path d="M813.5,819.5l0,-56" class="g1_31" />
<path d="M702.5,841.5l30,0" class="g3_31" />
<path d="M702.5,855.5l84,0" class="g3_31" />
<path d="M126.5,822.5l0,-3" class="g1_31" />
<path d="M126.5,819.5l187,0" class="g1_31" />
<path d="M313.5,822.5l0,-3" class="g1_31" />
<path d="M313.5,819.5l378,0" class="g1_31" />
<path d="M691.5,822.5l0,-3" class="g1_31" />
<path d="M691.5,819.5l122,0" class="g1_31" />
<path d="M813.5,822.5l0,-3" class="g1_31" />
<path d="M126.5,863.5l0,-41" class="g1_31" />
<path d="M313.5,863.5l0,-41" class="g1_31" />
<path d="M691.5,863.5l0,-41" class="g1_31" />
<path d="M813.5,863.5l0,-41" class="g1_31" />
<path d="M702.5,885.5l30,0" class="g3_31" />
<path d="M702.5,900.5l78,0" class="g3_31" />
<path d="M126.5,866.5l0,-3" class="g1_31" />
<path d="M126.5,863.5l187,0" class="g1_31" />
<path d="M313.5,866.5l0,-3" class="g1_31" />
<path d="M313.5,863.5l378,0" class="g1_31" />
<path d="M691.5,866.5l0,-3" class="g1_31" />
<path d="M691.5,863.5l122,0" class="g1_31" />
<path d="M813.5,866.5l0,-3" class="g1_31" />
<path d="M126.5,907.5l0,-41" class="g1_31" />
<path d="M313.5,907.5l0,-41" class="g1_31" />
<path d="M691.5,907.5l0,-41" class="g1_31" />
<path d="M813.5,907.5l0,-41" class="g1_31" />
<path d="M702.5,929.5l30,0" class="g3_31" />
<path d="M702.5,944.5l77,0" class="g3_31" />
<path d="M126.5,910.5l0,-3" class="g1_31" />
<path d="M126.5,908.5l187,0" class="g1_31" />
<path d="M313.5,910.5l0,-3" class="g1_31" />
<path d="M313.5,908.5l378,0" class="g1_31" />
<path d="M691.5,910.5l0,-3" class="g1_31" />
<path d="M691.5,908.5l122,0" class="g1_31" />
<path d="M813.5,910.5l0,-3" class="g1_31" />
<path d="M126.5,966.5l0,-56" class="g1_31" />
<path d="M313.5,966.5l0,-56" class="g1_31" />
<path d="M691.5,966.5l0,-56" class="g1_31" />
<path d="M813.5,966.5l0,-56" class="g1_31" />
<path d="M702.5,988.5l30,0" class="g3_31" />
<path d="M126.5,969.5l0,-3" class="g1_31" />
<path d="M126.5,967.5l187,0" class="g1_31" />
<path d="M313.5,969.5l0,-3" class="g1_31" />
<path d="M313.5,967.5l378,0" class="g1_31" />
<path d="M691.5,969.5l0,-3" class="g1_31" />
<path d="M691.5,967.5l122,0" class="g1_31" />
<path d="M813.5,969.5l0,-3" class="g1_31" />
<path d="M126.5,991.5l0,-22" class="g1_31" />
<path d="M126.5,991.5l187,0" class="g1_31" />
<path d="M313.5,991.5l0,-22" class="g1_31" />
<path d="M313.5,991.5l378,0" class="g1_31" />
<path d="M691.5,991.5l0,-22" class="g1_31" />
<path d="M691.5,991.5l122,0" class="g1_31" />
<path d="M813.5,991.5l0,-22" class="g1_31" />
</svg>