<?xml version="1.0" encoding="UTF-8" standalone="no"?>
<!DOCTYPE svg PUBLIC "-//W3C//DTD SVG 1.1//EN"
"http://www.w3.org/Graphics/SVG/1.1/DTD/svg11.dtd">
<svg version="1.1" xmlns="http://www.w3.org/2000/svg" xmlns:xlink="http://www.w3.org/1999/xlink">
<defs>
<clipPath id="c0_23"><path d="M126.5,125.5l0,-40l184,0l0,40Z" /></clipPath>
<clipPath id="c1_23"><path d="M716.5,125.5l0,-40l97,0l0,40Z" /></clipPath>
<style type="text/css"><![CDATA[
.g1_23{
fill: none;
stroke: #000000;
stroke-width: 1;
stroke-linecap: butt;
stroke-linejoin: miter;
}
.g2_23{
fill: #DFDFDF;
}
.g3_23{
fill: none;
stroke: #0066FF;
stroke-width: 1;
stroke-linecap: butt;
stroke-linejoin: miter;
}
]]></style>
</defs>
<path d="M122.5,1029.5l705,0" class="g1_23" />
<path fill-rule="evenodd" d="M126,85l184,0l0,-2L126,83l0,2Z" class="g2_23" />
<path fill-rule="evenodd" d="M126,125l11,0l0,-40l-11,0l0,40Z" class="g2_23" />
<path fill-rule="evenodd" d="M300,125l10,0l0,-40l-10,0l0,40Z" class="g2_23" />
<path fill-rule="evenodd" d="M126,127l184,0l0,-2l-184,0l0,2Z" class="g2_23" />
<g clip-path="url(#c0_23)">
<path fill-rule="evenodd" d="M137,105l163,0l0,-20L137,85l0,20Z" class="g2_23" />
</g>
<path fill-rule="evenodd" d="M137,125l163,0l0,-20l-163,0l0,20Z" class="g2_23" />
<path fill-rule="evenodd" d="M311,100l405,0l0,-17L311,83l0,17Z" class="g2_23" />
<path fill-rule="evenodd" d="M311,125l11,0l0,-25l-11,0l0,25Z" class="g2_23" />
<path fill-rule="evenodd" d="M705,125l11,0l0,-25l-11,0l0,25Z" class="g2_23" />
<path fill-rule="evenodd" d="M311,127l405,0l0,-2l-405,0l0,2Z" class="g2_23" />
<path fill-rule="evenodd" d="M322,125l383,0l0,-25l-383,0l0,25Z" class="g2_23" />
<path fill-rule="evenodd" d="M716,85l97,0l0,-2l-97,0l0,2Z" class="g2_23" />
<path fill-rule="evenodd" d="M716,125l11,0l0,-40l-11,0l0,40Z" class="g2_23" />
<path fill-rule="evenodd" d="M803,125l10,0l0,-40l-10,0l0,40Z" class="g2_23" />
<path fill-rule="evenodd" d="M716,127l97,0l0,-2l-97,0l0,2Z" class="g2_23" />
<g clip-path="url(#c1_23)">
<path fill-rule="evenodd" d="M727,105l76,0l0,-20l-76,0l0,20Z" class="g2_23" />
</g>
<path fill-rule="evenodd" d="M727,125l76,0l0,-20l-76,0l0,20Z" class="g2_23" />
<path d="M126.5,85.5l0,-3" class="g1_23" />
<path d="M126.5,83.5l0,-1" class="g1_23" />
<path d="M126.5,83.5l184,0" class="g1_23" />
<path fill-rule="evenodd" d="M126,85l184,0l0,-2L126,83l0,2Z" class="g2_23" />
<path d="M310.5,85.5l0,-2" class="g1_23" />
<path d="M310.5,83.5l0,-1" class="g1_23" />
<path d="M311.5,83.5l405,0" class="g1_23" />
<path fill-rule="evenodd" d="M311,85l405,0l0,-2L311,83l0,2Z" class="g2_23" />
<path d="M716.5,85.5l0,-2" class="g1_23" />
<path d="M716.5,83.5l0,-1" class="g1_23" />
<path d="M716.5,83.5l97,0" class="g1_23" />
<path fill-rule="evenodd" d="M716,85l97,0l0,-2l-97,0l0,2Z" class="g2_23" />
<path d="M813.5,85.5l0,-3" class="g1_23" />
<path d="M813.5,83.5l0,-1" class="g1_23" />
<path fill-rule="evenodd" d="M126,127l185,0l0,-2l-185,0l0,2Z" class="g2_23" />
<path d="M126.5,127.5l0,-42" class="g1_23" />
<path fill-rule="evenodd" d="M311,127l405,0l0,-2l-405,0l0,2Z" class="g2_23" />
<path d="M310.5,127.5l0,-42" class="g1_23" />
<path fill-rule="evenodd" d="M716,127l98,0l0,-2l-98,0l0,2Z" class="g2_23" />
<path d="M716.5,127.5l0,-42" class="g1_23" />
<path d="M813.5,127.5l0,-42" class="g1_23" />
<path d="M126.5,130.5l0,-3" class="g1_23" />
<path d="M126.5,128.5l184,0" class="g1_23" />
<path d="M310.5,130.5l0,-3" class="g1_23" />
<path d="M311.5,128.5l405,0" class="g1_23" />
<path d="M716.5,130.5l0,-3" class="g1_23" />
<path d="M716.5,128.5l97,0" class="g1_23" />
<path d="M813.5,130.5l0,-3" class="g1_23" />
<path d="M126.5,152.5l0,-22" class="g1_23" />
<path d="M310.5,152.5l0,-22" class="g1_23" />
<path d="M716.5,152.5l0,-22" class="g1_23" />
<path d="M813.5,152.5l0,-22" class="g1_23" />
<path d="M727.5,174.5l30,0" class="g3_23" />
<path d="M727.5,188.5l65,0" class="g3_23" />
<path d="M126.5,154.5l0,-2" class="g1_23" />
<path d="M126.5,152.5l184,0" class="g1_23" />
<path d="M310.5,154.5l0,-2" class="g1_23" />
<path d="M311.5,152.5l405,0" class="g1_23" />
<path d="M716.5,154.5l0,-2" class="g1_23" />
<path d="M716.5,152.5l97,0" class="g1_23" />
<path d="M813.5,154.5l0,-2" class="g1_23" />
<path d="M126.5,211.5l0,-57" class="g1_23" />
<path d="M310.5,211.5l0,-57" class="g1_23" />
<path d="M716.5,211.5l0,-57" class="g1_23" />
<path d="M813.5,211.5l0,-57" class="g1_23" />
<path d="M727.5,232.5l30,0" class="g3_23" />
<path d="M727.5,247.5l63,0" class="g3_23" />
<path d="M126.5,213.5l0,-2" class="g1_23" />
<path d="M126.5,211.5l184,0" class="g1_23" />
<path d="M310.5,213.5l0,-2" class="g1_23" />
<path d="M311.5,211.5l405,0" class="g1_23" />
<path d="M716.5,213.5l0,-2" class="g1_23" />
<path d="M716.5,211.5l97,0" class="g1_23" />
<path d="M813.5,213.5l0,-2" class="g1_23" />
<path d="M126.5,269.5l0,-56" class="g1_23" />
<path d="M310.5,269.5l0,-56" class="g1_23" />
<path d="M716.5,269.5l0,-56" class="g1_23" />
<path d="M813.5,269.5l0,-56" class="g1_23" />
<path d="M727.5,291.5l30,0" class="g3_23" />
<path d="M727.5,306.5l61,0" class="g3_23" />
<path d="M126.5,272.5l0,-3" class="g1_23" />
<path d="M126.5,270.5l184,0" class="g1_23" />
<path d="M310.5,272.5l0,-3" class="g1_23" />
<path d="M311.5,270.5l405,0" class="g1_23" />
<path d="M716.5,272.5l0,-3" class="g1_23" />
<path d="M716.5,270.5l97,0" class="g1_23" />
<path d="M813.5,272.5l0,-3" class="g1_23" />
<path d="M126.5,314.5l0,-42" class="g1_23" />
<path d="M310.5,314.5l0,-42" class="g1_23" />
<path d="M716.5,314.5l0,-42" class="g1_23" />
<path d="M813.5,314.5l0,-42" class="g1_23" />
<path d="M727.5,335.5l30,0" class="g3_23" />
<path d="M727.5,350.5l67,0" class="g3_23" />
<path d="M126.5,317.5l0,-3" class="g1_23" />
<path d="M126.5,314.5l184,0" class="g1_23" />
<path d="M310.5,317.5l0,-3" class="g1_23" />
<path d="M311.5,314.5l405,0" class="g1_23" />
<path d="M716.5,317.5l0,-3" class="g1_23" />
<path d="M716.5,314.5l97,0" class="g1_23" />
<path d="M813.5,317.5l0,-3" class="g1_23" />
<path d="M126.5,387.5l0,-70" class="g1_23" />
<path d="M310.5,387.5l0,-70" class="g1_23" />
<path d="M716.5,387.5l0,-70" class="g1_23" />
<path d="M813.5,387.5l0,-70" class="g1_23" />
<path d="M727.5,409.5l30,0" class="g3_23" />
<path d="M727.5,424.5l63,0" class="g3_23" />
<path d="M126.5,390.5l0,-3" class="g1_23" />
<path d="M126.5,388.5l184,0" class="g1_23" />
<path d="M310.5,390.5l0,-3" class="g1_23" />
<path d="M311.5,388.5l405,0" class="g1_23" />
<path d="M716.5,390.5l0,-3" class="g1_23" />
<path d="M716.5,388.5l97,0" class="g1_23" />
<path d="M813.5,390.5l0,-3" class="g1_23" />
<path d="M126.5,431.5l0,-41" class="g1_23" />
<path d="M310.5,431.5l0,-41" class="g1_23" />
<path d="M716.5,431.5l0,-41" class="g1_23" />
<path d="M813.5,431.5l0,-41" class="g1_23" />
<path d="M727.5,453.5l30,0" class="g3_23" />
<path d="M727.5,468.5l66,0" class="g3_23" />
<path d="M126.5,434.5l0,-3" class="g1_23" />
<path d="M126.5,432.5l184,0" class="g1_23" />
<path d="M310.5,434.5l0,-3" class="g1_23" />
<path d="M311.5,432.5l405,0" class="g1_23" />
<path d="M716.5,434.5l0,-3" class="g1_23" />
<path d="M716.5,432.5l97,0" class="g1_23" />
<path d="M813.5,434.5l0,-3" class="g1_23" />
<path d="M126.5,476.5l0,-42" class="g1_23" />
<path d="M310.5,476.5l0,-42" class="g1_23" />
<path d="M716.5,476.5l0,-42" class="g1_23" />
<path d="M813.5,476.5l0,-42" class="g1_23" />
<path d="M727.5,497.5l30,0" class="g3_23" />
<path d="M727.5,512.5l70,0" class="g3_23" />
<path d="M126.5,478.5l0,-2" class="g1_23" />
<path d="M126.5,476.5l184,0" class="g1_23" />
<path d="M310.5,478.5l0,-2" class="g1_23" />
<path d="M311.5,476.5l405,0" class="g1_23" />
<path d="M716.5,478.5l0,-2" class="g1_23" />
<path d="M716.5,476.5l97,0" class="g1_23" />
<path d="M813.5,478.5l0,-2" class="g1_23" />
<path d="M126.5,534.5l0,-56" class="g1_23" />
<path d="M310.5,534.5l0,-56" class="g1_23" />
<path d="M716.5,534.5l0,-56" class="g1_23" />
<path d="M813.5,534.5l0,-56" class="g1_23" />
<path d="M727.5,556.5l30,0" class="g3_23" />
<path d="M727.5,571.5l71,0" class="g3_23" />
<path d="M126.5,537.5l0,-3" class="g1_23" />
<path d="M126.5,535.5l184,0" class="g1_23" />
<path d="M310.5,537.5l0,-3" class="g1_23" />
<path d="M311.5,535.5l405,0" class="g1_23" />
<path d="M716.5,537.5l0,-3" class="g1_23" />
<path d="M716.5,535.5l97,0" class="g1_23" />
<path d="M813.5,537.5l0,-3" class="g1_23" />
<path d="M126.5,578.5l0,-41" class="g1_23" />
<path d="M310.5,578.5l0,-41" class="g1_23" />
<path d="M716.5,578.5l0,-41" class="g1_23" />
<path d="M813.5,578.5l0,-41" class="g1_23" />
<path d="M727.5,600.5l30,0" class="g3_23" />
<path d="M727.5,615.5l58,0" class="g3_23" />
<path d="M126.5,581.5l0,-3" class="g1_23" />
<path d="M126.5,579.5l184,0" class="g1_23" />
<path d="M310.5,581.5l0,-3" class="g1_23" />
<path d="M311.5,579.5l405,0" class="g1_23" />
<path d="M716.5,581.5l0,-3" class="g1_23" />
<path d="M716.5,579.5l97,0" class="g1_23" />
<path d="M813.5,581.5l0,-3" class="g1_23" />
<path d="M126.5,637.5l0,-56" class="g1_23" />
<path d="M310.5,637.5l0,-56" class="g1_23" />
<path d="M716.5,637.5l0,-56" class="g1_23" />
<path d="M813.5,637.5l0,-56" class="g1_23" />
<path d="M727.5,659.5l30,0" class="g3_23" />
<path d="M727.5,674.5l65,0" class="g3_23" />
<path d="M126.5,640.5l0,-3" class="g1_23" />
<path d="M126.5,638.5l184,0" class="g1_23" />
<path d="M310.5,640.5l0,-3" class="g1_23" />
<path d="M311.5,638.5l405,0" class="g1_23" />
<path d="M716.5,640.5l0,-3" class="g1_23" />
<path d="M716.5,638.5l97,0" class="g1_23" />
<path d="M813.5,640.5l0,-3" class="g1_23" />
<path d="M126.5,681.5l0,-41" class="g1_23" />
<path d="M310.5,681.5l0,-41" class="g1_23" />
<path d="M716.5,681.5l0,-41" class="g1_23" />
<path d="M813.5,681.5l0,-41" class="g1_23" />
<path d="M727.5,703.5l30,0" class="g3_23" />
<path d="M727.5,718.5l70,0" class="g3_23" />
<path d="M126.5,684.5l0,-3" class="g1_23" />
<path d="M126.5,682.5l184,0" class="g1_23" />
<path d="M310.5,684.5l0,-3" class="g1_23" />
<path d="M311.5,682.5l405,0" class="g1_23" />
<path d="M716.5,684.5l0,-3" class="g1_23" />
<path d="M716.5,682.5l97,0" class="g1_23" />
<path d="M813.5,684.5l0,-3" class="g1_23" />
<path d="M126.5,755.5l0,-71" class="g1_23" />
<path d="M310.5,755.5l0,-71" class="g1_23" />
<path d="M716.5,755.5l0,-71" class="g1_23" />
<path d="M813.5,755.5l0,-71" class="g1_23" />
<path d="M727.5,777.5l30,0" class="g3_23" />
<path d="M727.5,792.5l68,0" class="g3_23" />
<path d="M126.5,758.5l0,-3" class="g1_23" />
<path d="M126.5,756.5l184,0" class="g1_23" />
<path d="M310.5,758.5l0,-3" class="g1_23" />
<path d="M311.5,756.5l405,0" class="g1_23" />
<path d="M716.5,758.5l0,-3" class="g1_23" />
<path d="M716.5,756.5l97,0" class="g1_23" />
<path d="M813.5,758.5l0,-3" class="g1_23" />
<path d="M126.5,799.5l0,-41" class="g1_23" />
<path d="M310.5,799.5l0,-41" class="g1_23" />
<path d="M716.5,799.5l0,-41" class="g1_23" />
<path d="M813.5,799.5l0,-41" class="g1_23" />
<path d="M727.5,821.5l30,0" class="g3_23" />
<path d="M727.5,836.5l66,0" class="g3_23" />
<path d="M126.5,802.5l0,-3" class="g1_23" />
<path d="M126.5,800.5l184,0" class="g1_23" />
<path d="M310.5,802.5l0,-3" class="g1_23" />
<path d="M311.5,800.5l405,0" class="g1_23" />
<path d="M716.5,802.5l0,-3" class="g1_23" />
<path d="M716.5,800.5l97,0" class="g1_23" />
<path d="M813.5,802.5l0,-3" class="g1_23" />
<path d="M126.5,843.5l0,-41" class="g1_23" />
<path d="M310.5,843.5l0,-41" class="g1_23" />
<path d="M716.5,843.5l0,-41" class="g1_23" />
<path d="M813.5,843.5l0,-41" class="g1_23" />
<path d="M727.5,865.5l30,0" class="g3_23" />
<path d="M727.5,880.5l52,0" class="g3_23" />
<path d="M126.5,846.5l0,-3" class="g1_23" />
<path d="M126.5,844.5l184,0" class="g1_23" />
<path d="M310.5,846.5l0,-3" class="g1_23" />
<path d="M311.5,844.5l405,0" class="g1_23" />
<path d="M716.5,846.5l0,-3" class="g1_23" />
<path d="M716.5,844.5l97,0" class="g1_23" />
<path d="M813.5,846.5l0,-3" class="g1_23" />
<path d="M126.5,887.5l0,-41" class="g1_23" />
<path d="M310.5,887.5l0,-41" class="g1_23" />
<path d="M716.5,887.5l0,-41" class="g1_23" />
<path d="M813.5,887.5l0,-41" class="g1_23" />
<path d="M727.5,909.5l30,0" class="g3_23" />
<path d="M727.5,924.5l64,0" class="g3_23" />
<path d="M126.5,890.5l0,-3" class="g1_23" />
<path d="M126.5,888.5l184,0" class="g1_23" />
<path d="M310.5,890.5l0,-3" class="g1_23" />
<path d="M311.5,888.5l405,0" class="g1_23" />
<path d="M716.5,890.5l0,-3" class="g1_23" />
<path d="M716.5,888.5l97,0" class="g1_23" />
<path d="M813.5,890.5l0,-3" class="g1_23" />
<path d="M126.5,946.5l0,-56" class="g1_23" />
<path d="M310.5,946.5l0,-56" class="g1_23" />
<path d="M716.5,946.5l0,-56" class="g1_23" />
<path d="M813.5,946.5l0,-56" class="g1_23" />
<path d="M727.5,968.5l30,0" class="g3_23" />
<path d="M727.5,983.5l66,0" class="g3_23" />
<path d="M126.5,949.5l0,-3" class="g1_23" />
<path d="M126.5,947.5l184,0" class="g1_23" />
<path d="M310.5,949.5l0,-3" class="g1_23" />
<path d="M311.5,947.5l405,0" class="g1_23" />
<path d="M716.5,949.5l0,-3" class="g1_23" />
<path d="M716.5,947.5l97,0" class="g1_23" />
<path d="M813.5,949.5l0,-3" class="g1_23" />
<path d="M126.5,991.5l0,-42" class="g1_23" />
<path d="M126.5,991.5l184,0" class="g1_23" />
<path d="M310.5,991.5l0,-42" class="g1_23" />
<path d="M311.5,991.5l405,0" class="g1_23" />
<path d="M716.5,991.5l0,-42" class="g1_23" />
<path d="M716.5,991.5l97,0" class="g1_23" />
<path d="M813.5,991.5l0,-42" class="g1_23" />
</svg>