<?xml version="1.0" encoding="UTF-8" standalone="no"?>
<!DOCTYPE svg PUBLIC "-//W3C//DTD SVG 1.1//EN"
"http://www.w3.org/Graphics/SVG/1.1/DTD/svg11.dtd">
<svg version="1.1" xmlns="http://www.w3.org/2000/svg" xmlns:xlink="http://www.w3.org/1999/xlink">
<defs>
<clipPath id="c0_25"><path d="M126.5,238.5l0,-40l179,0l0,40Z" /></clipPath>
<clipPath id="c1_25"><path d="M714.5,238.5l0,-40l99,0l0,40Z" /></clipPath>
<style type="text/css"><![CDATA[
.g1_25{
fill: none;
stroke: #000000;
stroke-width: 1;
stroke-linecap: butt;
stroke-linejoin: miter;
}
.g2_25{
fill: #DFDFDF;
}
.g3_25{
fill: none;
stroke: #0066FF;
stroke-width: 1;
stroke-linecap: butt;
stroke-linejoin: miter;
}
]]></style>
</defs>
<path d="M122.5,1029.5l705,0" class="g1_25" />
<path fill-rule="evenodd" d="M126,198l179,0l0,-2l-179,0l0,2Z" class="g2_25" />
<path fill-rule="evenodd" d="M126,238l11,0l0,-40l-11,0l0,40Z" class="g2_25" />
<path fill-rule="evenodd" d="M295,238l10,0l0,-40l-10,0l0,40Z" class="g2_25" />
<path fill-rule="evenodd" d="M126,240l179,0l0,-2l-179,0l0,2Z" class="g2_25" />
<g clip-path="url(#c0_25)">
<path fill-rule="evenodd" d="M137,218l158,0l0,-20l-158,0l0,20Z" class="g2_25" />
</g>
<path fill-rule="evenodd" d="M137,238l158,0l0,-20l-158,0l0,20Z" class="g2_25" />
<path fill-rule="evenodd" d="M306,213l407,0l0,-17l-407,0l0,17Z" class="g2_25" />
<path fill-rule="evenodd" d="M306,238l11,0l0,-25l-11,0l0,25Z" class="g2_25" />
<path fill-rule="evenodd" d="M703,238l10,0l0,-25l-10,0l0,25Z" class="g2_25" />
<path fill-rule="evenodd" d="M306,240l407,0l0,-2l-407,0l0,2Z" class="g2_25" />
<path fill-rule="evenodd" d="M317,238l386,0l0,-25l-386,0l0,25Z" class="g2_25" />
<path fill-rule="evenodd" d="M714,198l99,0l0,-2l-99,0l0,2Z" class="g2_25" />
<path fill-rule="evenodd" d="M714,238l11,0l0,-40l-11,0l0,40Z" class="g2_25" />
<path fill-rule="evenodd" d="M803,238l10,0l0,-40l-10,0l0,40Z" class="g2_25" />
<path fill-rule="evenodd" d="M714,240l99,0l0,-2l-99,0l0,2Z" class="g2_25" />
<g clip-path="url(#c1_25)">
<path fill-rule="evenodd" d="M725,218l78,0l0,-20l-78,0l0,20Z" class="g2_25" />
</g>
<path fill-rule="evenodd" d="M725,238l78,0l0,-20l-78,0l0,20Z" class="g2_25" />
<path d="M126.5,198.5l0,-3" class="g1_25" />
<path d="M126.5,196.5l0,-1" class="g1_25" />
<path d="M126.5,196.5l180,0" class="g1_25" />
<path fill-rule="evenodd" d="M126,198l180,0l0,-2l-180,0l0,2Z" class="g2_25" />
<path d="M306.5,198.5l0,-2" class="g1_25" />
<path d="M306.5,196.5l0,-1" class="g1_25" />
<path d="M306.5,196.5l408,0" class="g1_25" />
<path fill-rule="evenodd" d="M306,198l408,0l0,-2l-408,0l0,2Z" class="g2_25" />
<path d="M714.5,198.5l0,-2" class="g1_25" />
<path d="M714.5,196.5l0,-1" class="g1_25" />
<path d="M714.5,196.5l99,0" class="g1_25" />
<path fill-rule="evenodd" d="M714,198l99,0l0,-2l-99,0l0,2Z" class="g2_25" />
<path d="M813.5,198.5l0,-3" class="g1_25" />
<path d="M813.5,196.5l0,-1" class="g1_25" />
<path fill-rule="evenodd" d="M126,240l180,0l0,-2l-180,0l0,2Z" class="g2_25" />
<path d="M126.5,240.5l0,-42" class="g1_25" />
<path fill-rule="evenodd" d="M306,240l408,0l0,-2l-408,0l0,2Z" class="g2_25" />
<path d="M306.5,240.5l0,-42" class="g1_25" />
<path fill-rule="evenodd" d="M714,240l100,0l0,-2l-100,0l0,2Z" class="g2_25" />
<path d="M714.5,240.5l0,-42" class="g1_25" />
<path d="M813.5,240.5l0,-42" class="g1_25" />
<path d="M725.5,262.5l29,0" class="g3_25" />
<path d="M725.5,277.5l52,0" class="g3_25" />
<path d="M126.5,243.5l0,-3" class="g1_25" />
<path d="M126.5,241.5l180,0" class="g1_25" />
<path d="M306.5,243.5l0,-3" class="g1_25" />
<path d="M306.5,241.5l408,0" class="g1_25" />
<path d="M714.5,243.5l0,-3" class="g1_25" />
<path d="M714.5,241.5l99,0" class="g1_25" />
<path d="M813.5,243.5l0,-3" class="g1_25" />
<path d="M126.5,299.5l0,-56" class="g1_25" />
<path d="M306.5,299.5l0,-56" class="g1_25" />
<path d="M714.5,299.5l0,-56" class="g1_25" />
<path d="M813.5,299.5l0,-56" class="g1_25" />
<path d="M725.5,321.5l75,0" class="g3_25" />
<path d="M126.5,302.5l0,-3" class="g1_25" />
<path d="M126.5,299.5l180,0" class="g1_25" />
<path d="M306.5,302.5l0,-3" class="g1_25" />
<path d="M306.5,299.5l408,0" class="g1_25" />
<path d="M714.5,302.5l0,-3" class="g1_25" />
<path d="M714.5,299.5l99,0" class="g1_25" />
<path d="M813.5,302.5l0,-3" class="g1_25" />
<path d="M126.5,343.5l0,-41" class="g1_25" />
<path d="M306.5,343.5l0,-41" class="g1_25" />
<path d="M714.5,343.5l0,-41" class="g1_25" />
<path d="M813.5,343.5l0,-41" class="g1_25" />
<path d="M725.5,365.5l29,0" class="g3_25" />
<path d="M725.5,380.5l50,0" class="g3_25" />
<path d="M126.5,346.5l0,-3" class="g1_25" />
<path d="M126.5,344.5l180,0" class="g1_25" />
<path d="M306.5,346.5l0,-3" class="g1_25" />
<path d="M306.5,344.5l408,0" class="g1_25" />
<path d="M714.5,346.5l0,-3" class="g1_25" />
<path d="M714.5,344.5l99,0" class="g1_25" />
<path d="M813.5,346.5l0,-3" class="g1_25" />
<path d="M126.5,387.5l0,-41" class="g1_25" />
<path d="M306.5,387.5l0,-41" class="g1_25" />
<path d="M714.5,387.5l0,-41" class="g1_25" />
<path d="M813.5,387.5l0,-41" class="g1_25" />
<path d="M725.5,409.5l29,0" class="g3_25" />
<path d="M725.5,424.5l56,0" class="g3_25" />
<path d="M126.5,390.5l0,-3" class="g1_25" />
<path d="M126.5,388.5l180,0" class="g1_25" />
<path d="M306.5,390.5l0,-3" class="g1_25" />
<path d="M306.5,388.5l408,0" class="g1_25" />
<path d="M714.5,390.5l0,-3" class="g1_25" />
<path d="M714.5,388.5l99,0" class="g1_25" />
<path d="M813.5,390.5l0,-3" class="g1_25" />
<path d="M126.5,431.5l0,-41" class="g1_25" />
<path d="M306.5,431.5l0,-41" class="g1_25" />
<path d="M714.5,431.5l0,-41" class="g1_25" />
<path d="M813.5,431.5l0,-41" class="g1_25" />
<path d="M725.5,453.5l29,0" class="g3_25" />
<path d="M725.5,468.5l49,0" class="g3_25" />
<path d="M126.5,434.5l0,-3" class="g1_25" />
<path d="M126.5,432.5l180,0" class="g1_25" />
<path d="M306.5,434.5l0,-3" class="g1_25" />
<path d="M306.5,432.5l408,0" class="g1_25" />
<path d="M714.5,434.5l0,-3" class="g1_25" />
<path d="M714.5,432.5l99,0" class="g1_25" />
<path d="M813.5,434.5l0,-3" class="g1_25" />
<path d="M126.5,475.5l0,-41" class="g1_25" />
<path d="M306.5,475.5l0,-41" class="g1_25" />
<path d="M714.5,475.5l0,-41" class="g1_25" />
<path d="M813.5,475.5l0,-41" class="g1_25" />
<path d="M725.5,497.5l29,0" class="g3_25" />
<path d="M725.5,512.5l50,0" class="g3_25" />
<path d="M126.5,478.5l0,-3" class="g1_25" />
<path d="M126.5,476.5l180,0" class="g1_25" />
<path d="M306.5,478.5l0,-3" class="g1_25" />
<path d="M306.5,476.5l408,0" class="g1_25" />
<path d="M714.5,478.5l0,-3" class="g1_25" />
<path d="M714.5,476.5l99,0" class="g1_25" />
<path d="M813.5,478.5l0,-3" class="g1_25" />
<path d="M126.5,519.5l0,-41" class="g1_25" />
<path d="M306.5,519.5l0,-41" class="g1_25" />
<path d="M714.5,519.5l0,-41" class="g1_25" />
<path d="M813.5,519.5l0,-41" class="g1_25" />
<path d="M725.5,541.5l29,0" class="g3_25" />
<path d="M725.5,556.5l62,0" class="g3_25" />
<path d="M126.5,522.5l0,-3" class="g1_25" />
<path d="M126.5,520.5l180,0" class="g1_25" />
<path d="M306.5,522.5l0,-3" class="g1_25" />
<path d="M306.5,520.5l408,0" class="g1_25" />
<path d="M714.5,522.5l0,-3" class="g1_25" />
<path d="M714.5,520.5l99,0" class="g1_25" />
<path d="M813.5,522.5l0,-3" class="g1_25" />
<path d="M126.5,563.5l0,-41" class="g1_25" />
<path d="M306.5,563.5l0,-41" class="g1_25" />
<path d="M714.5,563.5l0,-41" class="g1_25" />
<path d="M813.5,563.5l0,-41" class="g1_25" />
<path d="M725.5,585.5l29,0" class="g3_25" />
<path d="M725.5,600.5l60,0" class="g3_25" />
<path d="M126.5,566.5l0,-3" class="g1_25" />
<path d="M126.5,564.5l180,0" class="g1_25" />
<path d="M306.5,566.5l0,-3" class="g1_25" />
<path d="M306.5,564.5l408,0" class="g1_25" />
<path d="M714.5,566.5l0,-3" class="g1_25" />
<path d="M714.5,564.5l99,0" class="g1_25" />
<path d="M813.5,566.5l0,-3" class="g1_25" />
<path d="M126.5,622.5l0,-56" class="g1_25" />
<path d="M306.5,622.5l0,-56" class="g1_25" />
<path d="M714.5,622.5l0,-56" class="g1_25" />
<path d="M813.5,622.5l0,-56" class="g1_25" />
<path d="M725.5,644.5l29,0" class="g3_25" />
<path d="M725.5,659.5l54,0" class="g3_25" />
<path d="M126.5,625.5l0,-3" class="g1_25" />
<path d="M126.5,623.5l180,0" class="g1_25" />
<path d="M306.5,625.5l0,-3" class="g1_25" />
<path d="M306.5,623.5l408,0" class="g1_25" />
<path d="M714.5,625.5l0,-3" class="g1_25" />
<path d="M714.5,623.5l99,0" class="g1_25" />
<path d="M813.5,625.5l0,-3" class="g1_25" />
<path d="M126.5,666.5l0,-41" class="g1_25" />
<path d="M306.5,666.5l0,-41" class="g1_25" />
<path d="M714.5,666.5l0,-41" class="g1_25" />
<path d="M813.5,666.5l0,-41" class="g1_25" />
<path d="M725.5,688.5l71,0" class="g3_25" />
<path d="M126.5,669.5l0,-3" class="g1_25" />
<path d="M126.5,667.5l180,0" class="g1_25" />
<path d="M306.5,669.5l0,-3" class="g1_25" />
<path d="M306.5,667.5l408,0" class="g1_25" />
<path d="M714.5,669.5l0,-3" class="g1_25" />
<path d="M714.5,667.5l99,0" class="g1_25" />
<path d="M813.5,669.5l0,-3" class="g1_25" />
<path d="M126.5,725.5l0,-56" class="g1_25" />
<path d="M306.5,725.5l0,-56" class="g1_25" />
<path d="M714.5,725.5l0,-56" class="g1_25" />
<path d="M813.5,725.5l0,-56" class="g1_25" />
<path d="M725.5,747.5l29,0" class="g3_25" />
<path d="M725.5,762.5l56,0" class="g3_25" />
<path d="M126.5,728.5l0,-3" class="g1_25" />
<path d="M126.5,726.5l180,0" class="g1_25" />
<path d="M306.5,728.5l0,-3" class="g1_25" />
<path d="M306.5,726.5l408,0" class="g1_25" />
<path d="M714.5,728.5l0,-3" class="g1_25" />
<path d="M714.5,726.5l99,0" class="g1_25" />
<path d="M813.5,728.5l0,-3" class="g1_25" />
<path d="M126.5,769.5l0,-41" class="g1_25" />
<path d="M306.5,769.5l0,-41" class="g1_25" />
<path d="M714.5,769.5l0,-41" class="g1_25" />
<path d="M813.5,769.5l0,-41" class="g1_25" />
<path d="M725.5,791.5l29,0" class="g3_25" />
<path d="M725.5,806.5l56,0" class="g3_25" />
<path d="M126.5,772.5l0,-3" class="g1_25" />
<path d="M126.5,770.5l180,0" class="g1_25" />
<path d="M306.5,772.5l0,-3" class="g1_25" />
<path d="M306.5,770.5l408,0" class="g1_25" />
<path d="M714.5,772.5l0,-3" class="g1_25" />
<path d="M714.5,770.5l99,0" class="g1_25" />
<path d="M813.5,772.5l0,-3" class="g1_25" />
<path d="M126.5,813.5l0,-41" class="g1_25" />
<path d="M306.5,813.5l0,-41" class="g1_25" />
<path d="M714.5,813.5l0,-41" class="g1_25" />
<path d="M813.5,813.5l0,-41" class="g1_25" />
<path d="M725.5,835.5l71,0" class="g3_25" />
<path d="M126.5,816.5l0,-3" class="g1_25" />
<path d="M126.5,814.5l180,0" class="g1_25" />
<path d="M306.5,816.5l0,-3" class="g1_25" />
<path d="M306.5,814.5l408,0" class="g1_25" />
<path d="M714.5,816.5l0,-3" class="g1_25" />
<path d="M714.5,814.5l99,0" class="g1_25" />
<path d="M813.5,816.5l0,-3" class="g1_25" />
<path d="M126.5,857.5l0,-41" class="g1_25" />
<path d="M306.5,857.5l0,-41" class="g1_25" />
<path d="M714.5,857.5l0,-41" class="g1_25" />
<path d="M813.5,857.5l0,-41" class="g1_25" />
<path d="M725.5,879.5l29,0" class="g3_25" />
<path d="M725.5,894.5l55,0" class="g3_25" />
<path d="M126.5,860.5l0,-3" class="g1_25" />
<path d="M126.5,858.5l180,0" class="g1_25" />
<path d="M306.5,860.5l0,-3" class="g1_25" />
<path d="M306.5,858.5l408,0" class="g1_25" />
<path d="M714.5,860.5l0,-3" class="g1_25" />
<path d="M714.5,858.5l99,0" class="g1_25" />
<path d="M813.5,860.5l0,-3" class="g1_25" />
<path d="M126.5,901.5l0,-41" class="g1_25" />
<path d="M306.5,901.5l0,-41" class="g1_25" />
<path d="M714.5,901.5l0,-41" class="g1_25" />
<path d="M813.5,901.5l0,-41" class="g1_25" />
<path d="M725.5,923.5l29,0" class="g3_25" />
<path d="M725.5,938.5l68,0" class="g3_25" />
<path d="M126.5,904.5l0,-3" class="g1_25" />
<path d="M126.5,902.5l180,0" class="g1_25" />
<path d="M306.5,904.5l0,-3" class="g1_25" />
<path d="M306.5,902.5l408,0" class="g1_25" />
<path d="M714.5,904.5l0,-3" class="g1_25" />
<path d="M714.5,902.5l99,0" class="g1_25" />
<path d="M813.5,904.5l0,-3" class="g1_25" />
<path d="M126.5,946.5l0,-42" class="g1_25" />
<path d="M126.5,946.5l180,0" class="g1_25" />
<path d="M306.5,946.5l0,-42" class="g1_25" />
<path d="M306.5,946.5l408,0" class="g1_25" />
<path d="M714.5,946.5l0,-42" class="g1_25" />
<path d="M714.5,946.5l99,0" class="g1_25" />
<path d="M813.5,946.5l0,-42" class="g1_25" />
</svg>