<?xml version="1.0" encoding="UTF-8" standalone="no"?>
<!DOCTYPE svg PUBLIC "-//W3C//DTD SVG 1.1//EN"
"http://www.w3.org/Graphics/SVG/1.1/DTD/svg11.dtd">
<svg version="1.1" xmlns="http://www.w3.org/2000/svg" xmlns:xlink="http://www.w3.org/1999/xlink">
<defs>
<style type="text/css"><![CDATA[
.g1_92{
fill: none;
stroke: #000000;
stroke-width: 1;
stroke-linecap: butt;
stroke-linejoin: miter;
}
.g2_92{
fill: none;
stroke: #0066FF;
stroke-width: 1;
stroke-linecap: butt;
stroke-linejoin: miter;
}
]]></style>
</defs>
<path d="M122.5,1029.5l705,0" class="g1_92" />
<path d="M138.5,96.5l82,0" class="g2_92" />
<path d="M138.5,111.5l53,0" class="g2_92" />
<path d="M138.5,141.5l130,0" class="g2_92" />
<path d="M138.5,156.5l145,0" class="g2_92" />
<path d="M138.5,171.5l64,0" class="g2_92" />
<path d="M138.5,185.5l82,0" class="g2_92" />
<path d="M138.5,200.5l53,0" class="g2_92" />
<path d="M138.5,230.5l130,0" class="g2_92" />
<path d="M138.5,245.5l145,0" class="g2_92" />
<path d="M138.5,260.5l64,0" class="g2_92" />
<path d="M138.5,275.5l82,0" class="g2_92" />
<path d="M138.5,289.5l53,0" class="g2_92" />
<path d="M138.5,319.5l130,0" class="g2_92" />
<path d="M138.5,334.5l145,0" class="g2_92" />
<path d="M138.5,349.5l64,0" class="g2_92" />
<path d="M138.5,364.5l82,0" class="g2_92" />
<path d="M138.5,378.5l53,0" class="g2_92" />
<path d="M138.5,423.5l130,0" class="g2_92" />
<path d="M138.5,438.5l145,0" class="g2_92" />
<path d="M138.5,453.5l64,0" class="g2_92" />
<path d="M138.5,468.5l82,0" class="g2_92" />
<path d="M138.5,483.5l53,0" class="g2_92" />
<path d="M138.5,512.5l130,0" class="g2_92" />
<path d="M138.5,527.5l145,0" class="g2_92" />
<path d="M138.5,542.5l64,0" class="g2_92" />
<path d="M138.5,557.5l53,0" class="g2_92" />
<path d="M138.5,587.5l130,0" class="g2_92" />
<path d="M138.5,601.5l145,0" class="g2_92" />
<path d="M138.5,616.5l64,0" class="g2_92" />
<path d="M138.5,631.5l82,0" class="g2_92" />
<path d="M138.5,646.5l53,0" class="g2_92" />
<path d="M138.5,676.5l130,0" class="g2_92" />
<path d="M138.5,691.5l145,0" class="g2_92" />
<path d="M138.5,705.5l64,0" class="g2_92" />
<path d="M138.5,720.5l82,0" class="g2_92" />
<path d="M138.5,735.5l53,0" class="g2_92" />
<path d="M138.5,765.5l130,0" class="g2_92" />
<path d="M138.5,780.5l145,0" class="g2_92" />
<path d="M138.5,795.5l64,0" class="g2_92" />
<path d="M138.5,809.5l82,0" class="g2_92" />
<path d="M138.5,824.5l53,0" class="g2_92" />
<path d="M138.5,898.5l162,0" class="g2_92" />
<path d="M138.5,913.5l55,0" class="g2_92" />
<path d="M138.5,928.5l227,0" class="g2_92" />
<path d="M138.5,943.5l184,0" class="g2_92" />
<path d="M138.5,958.5l242,0" class="g2_92" />
<path d="M138.5,972.5l213,0" class="g2_92" />
<path d="M502.5,127.5l319,0" class="g2_92" />
<path d="M516.5,142.5l72,0" class="g2_92" />
<path d="M502.5,156.5l265,0" class="g2_92" />
<path d="M516.5,171.5l56,0" class="g2_92" />
</svg>