<?xml version="1.0" encoding="UTF-8" standalone="no"?>
<!DOCTYPE svg PUBLIC "-//W3C//DTD SVG 1.1//EN"
"http://www.w3.org/Graphics/SVG/1.1/DTD/svg11.dtd">
<svg version="1.1" xmlns="http://www.w3.org/2000/svg" xmlns:xlink="http://www.w3.org/1999/xlink">
<defs>
<style type="text/css"><![CDATA[
.g1_13{
fill: none;
stroke: #000000;
stroke-width: 1;
stroke-linecap: butt;
stroke-linejoin: miter;
}
.g2_13{
fill: none;
stroke: #0066FF;
stroke-width: 1;
stroke-linecap: butt;
stroke-linejoin: miter;
}
]]></style>
</defs>
<path d="M122.5,1029.5l705,0" class="g1_13" />
<path d="M399.5,98.5l410,0" class="g2_13" />
<path d="M124.5,115.5l87,0" class="g2_13" />
<path d="M397.5,145.5l273,0" class="g2_13" />
<path d="M389.5,176.5l337,0" class="g2_13" />
<path d="M400.5,206.5l328,0" class="g2_13" />
<path d="M397.5,237.5l258,0" class="g2_13" />
<path d="M379.5,267.5l310,0" class="g2_13" />
<path d="M397.5,297.5l328,0" class="g2_13" />
<path d="M397.5,328.5l313,0" class="g2_13" />
<path d="M401.5,358.5l319,0" class="g2_13" />
<path d="M414.5,389.5l262,0" class="g2_13" />
<path d="M391.5,419.5l373,0" class="g2_13" />
<path d="M124.5,436.5l74,0" class="g2_13" />
<path d="M389.5,467.5l366,0" class="g2_13" />
<path d="M124.5,483.5l67,0" class="g2_13" />
<path d="M402.5,514.5l320,0" class="g2_13" />
<path d="M403.5,544.5l318,0" class="g2_13" />
<path d="M422.5,575.5l336,0" class="g2_13" />
<path d="M387.5,605.5l230,0" class="g2_13" />
<path d="M396.5,636.5l340,0" class="g2_13" />
<path d="M396.5,666.5l378,0" class="g2_13" />
<path d="M421.5,696.5l375,0" class="g2_13" />
<path d="M124.5,713.5l203,0" class="g2_13" />
<path d="M415.5,744.5l308,0" class="g2_13" />
<path d="M403.5,774.5l393,0" class="g2_13" />
<path d="M421.5,805.5l267,0" class="g2_13" />
<path d="M412.5,835.5l335,0" class="g2_13" />
<path d="M424.5,865.5l235,0" class="g2_13" />
<path d="M412.5,896.5l355,0" class="g2_13" />
<path d="M415.5,926.5l304,0" class="g2_13" />
<path d="M416.5,957.5l342,0" class="g2_13" />
<path d="M415.5,987.5l320,0" class="g2_13" />
</svg>