<?xml version="1.0" encoding="UTF-8" standalone="no"?>
<!DOCTYPE svg PUBLIC "-//W3C//DTD SVG 1.1//EN"
"http://www.w3.org/Graphics/SVG/1.1/DTD/svg11.dtd">
<svg version="1.1" xmlns="http://www.w3.org/2000/svg" xmlns:xlink="http://www.w3.org/1999/xlink">
<defs>
<style type="text/css"><![CDATA[
.g1_90{
fill: none;
stroke: #000000;
stroke-width: 1;
stroke-linecap: butt;
stroke-linejoin: miter;
}
.g2_90{
fill: none;
stroke: #0066FF;
stroke-width: 1;
stroke-linecap: butt;
stroke-linejoin: miter;
}
]]></style>
</defs>
<path d="M122.5,1029.5l705,0" class="g1_90" />
<path d="M138.5,96.5l53,0" class="g2_90" />
<path d="M138.5,126.5l63,0" class="g2_90" />
<path d="M138.5,141.5l87,0" class="g2_90" />
<path d="M138.5,156.5l55,0" class="g2_90" />
<path d="M138.5,171.5l82,0" class="g2_90" />
<path d="M138.5,200.5l67,0" class="g2_90" />
<path d="M138.5,215.5l102,0" class="g2_90" />
<path d="M138.5,230.5l27,0" class="g2_90" />
<path d="M138.5,245.5l39,0" class="g2_90" />
<path d="M138.5,260.5l30,0" class="g2_90" />
<path d="M138.5,275.5l32,0" class="g2_90" />
<path d="M138.5,289.5l25,0" class="g2_90" />
<path d="M138.5,304.5l34,0" class="g2_90" />
<path d="M138.5,319.5l111,0" class="g2_90" />
<path d="M138.5,334.5l83,0" class="g2_90" />
<path d="M138.5,349.5l53,0" class="g2_90" />
<path d="M138.5,378.5l130,0" class="g2_90" />
<path d="M138.5,393.5l145,0" class="g2_90" />
<path d="M138.5,408.5l64,0" class="g2_90" />
<path d="M138.5,423.5l82,0" class="g2_90" />
<path d="M138.5,438.5l53,0" class="g2_90" />
<path d="M124.5,453.5l273,0" class="g2_90" />
<path d="M138.5,468.5l134,0" class="g2_90" />
<path d="M124.5,527.5l143,0" class="g2_90" />
<path d="M138.5,557.5l130,0" class="g2_90" />
<path d="M138.5,571.5l145,0" class="g2_90" />
<path d="M138.5,586.5l64,0" class="g2_90" />
<path d="M138.5,601.5l53,0" class="g2_90" />
<path d="M138.5,631.5l130,0" class="g2_90" />
<path d="M138.5,646.5l145,0" class="g2_90" />
<path d="M138.5,661.5l64,0" class="g2_90" />
<path d="M138.5,675.5l82,0" class="g2_90" />
<path d="M138.5,690.5l53,0" class="g2_90" />
<path d="M138.5,720.5l130,0" class="g2_90" />
<path d="M138.5,735.5l145,0" class="g2_90" />
<path d="M138.5,750.5l64,0" class="g2_90" />
<path d="M138.5,764.5l82,0" class="g2_90" />
<path d="M138.5,779.5l53,0" class="g2_90" />
<path d="M138.5,809.5l40,0" class="g2_90" />
<path d="M138.5,824.5l101,0" class="g2_90" />
<path d="M138.5,839.5l82,0" class="g2_90" />
<path d="M138.5,854.5l53,0" class="g2_90" />
<path d="M138.5,868.5l60,0" class="g2_90" />
<path d="M124.5,883.5l316,0" class="g2_90" />
<path d="M138.5,898.5l56,0" class="g2_90" />
<path d="M138.5,928.5l130,0" class="g2_90" />
<path d="M138.5,943.5l145,0" class="g2_90" />
<path d="M138.5,958.5l64,0" class="g2_90" />
<path d="M138.5,972.5l82,0" class="g2_90" />
<path d="M138.5,987.5l53,0" class="g2_90" />
<path d="M124.5,1002.5l124,0" class="g2_90" />
<path d="M502.5,96.5l134,0" class="g2_90" />
<path d="M516.5,111.5l117,0" class="g2_90" />
<path d="M516.5,126.5l110,0" class="g2_90" />
<path d="M502.5,141.5l87,0" class="g2_90" />
<path d="M516.5,156.5l67,0" class="g2_90" />
<path d="M516.5,171.5l102,0" class="g2_90" />
<path d="M516.5,185.5l27,0" class="g2_90" />
<path d="M516.5,200.5l39,0" class="g2_90" />
<path d="M516.5,215.5l30,0" class="g2_90" />
<path d="M516.5,230.5l32,0" class="g2_90" />
<path d="M516.5,245.5l25,0" class="g2_90" />
<path d="M516.5,260.5l34,0" class="g2_90" />
<path d="M516.5,275.5l111,0" class="g2_90" />
<path d="M516.5,289.5l83,0" class="g2_90" />
<path d="M516.5,304.5l53,0" class="g2_90" />
<path d="M502.5,319.5l106,0" class="g2_90" />
<path d="M516.5,334.5l127,0" class="g2_90" />
<path d="M516.5,349.5l284,0" class="g2_90" />
<path d="M530.5,364.5l47,0" class="g2_90" />
<path d="M516.5,378.5l179,0" class="g2_90" />
<path d="M516.5,393.5l213,0" class="g2_90" />
<path d="M516.5,408.5l285,0" class="g2_90" />
<path d="M530.5,423.5l126,0" class="g2_90" />
<path d="M516.5,438.5l300,0" class="g2_90" />
<path d="M530.5,453.5l134,0" class="g2_90" />
<path d="M516.5,468.5l302,0" class="g2_90" />
<path d="M530.5,483.5l123,0" class="g2_90" />
<path d="M516.5,498.5l235,0" class="g2_90" />
<path d="M516.5,512.5l90,0" class="g2_90" />
<path d="M516.5,527.5l264,0" class="g2_90" />
<path d="M516.5,542.5l226,0" class="g2_90" />
<path d="M516.5,557.5l248,0" class="g2_90" />
<path d="M516.5,572.5l177,0" class="g2_90" />
<path d="M502.5,587.5l201,0" class="g2_90" />
<path d="M516.5,616.5l55,0" class="g2_90" />
<path d="M516.5,646.5l130,0" class="g2_90" />
<path d="M516.5,661.5l145,0" class="g2_90" />
<path d="M516.5,676.5l64,0" class="g2_90" />
<path d="M516.5,691.5l82,0" class="g2_90" />
<path d="M579.5,705.5l91,0" class="g2_90" />
<path d="M699.5,705.5l92,0" class="g2_90" />
<path d="M516.5,735.5l130,0" class="g2_90" />
<path d="M516.5,750.5l145,0" class="g2_90" />
<path d="M516.5,765.5l64,0" class="g2_90" />
<path d="M516.5,780.5l82,0" class="g2_90" />
<path d="M516.5,795.5l53,0" class="g2_90" />
<path d="M516.5,839.5l130,0" class="g2_90" />
<path d="M516.5,854.5l145,0" class="g2_90" />
<path d="M516.5,869.5l64,0" class="g2_90" />
<path d="M516.5,884.5l82,0" class="g2_90" />
<path d="M516.5,899.5l53,0" class="g2_90" />
<path d="M516.5,928.5l130,0" class="g2_90" />
<path d="M516.5,943.5l145,0" class="g2_90" />
<path d="M516.5,958.5l64,0" class="g2_90" />
<path d="M516.5,973.5l82,0" class="g2_90" />
<path d="M516.5,988.5l53,0" class="g2_90" />
</svg>