<?xml version="1.0" encoding="UTF-8" standalone="no"?>
<!DOCTYPE svg PUBLIC "-//W3C//DTD SVG 1.1//EN"
"http://www.w3.org/Graphics/SVG/1.1/DTD/svg11.dtd">
<svg version="1.1" xmlns="http://www.w3.org/2000/svg" xmlns:xlink="http://www.w3.org/1999/xlink">
<defs>
<clipPath id="c0_27"><path d="M126.5,125.5l0,-40l169,0l0,40Z" /></clipPath>
<clipPath id="c1_27"><path d="M724.5,125.5l0,-40l89,0l0,40Z" /></clipPath>
<style type="text/css"><![CDATA[
.g1_27{
fill: none;
stroke: #000000;
stroke-width: 1;
stroke-linecap: butt;
stroke-linejoin: miter;
}
.g2_27{
fill: #DFDFDF;
}
.g3_27{
fill: none;
stroke: #0066FF;
stroke-width: 1;
stroke-linecap: butt;
stroke-linejoin: miter;
}
]]></style>
</defs>
<path d="M122.5,1029.5l705,0" class="g1_27" />
<path fill-rule="evenodd" d="M126,85l169,0l0,-2L126,83l0,2Z" class="g2_27" />
<path fill-rule="evenodd" d="M126,125l11,0l0,-40l-11,0l0,40Z" class="g2_27" />
<path fill-rule="evenodd" d="M284,125l11,0l0,-40l-11,0l0,40Z" class="g2_27" />
<path fill-rule="evenodd" d="M126,127l169,0l0,-2l-169,0l0,2Z" class="g2_27" />
<g clip-path="url(#c0_27)">
<path fill-rule="evenodd" d="M137,105l147,0l0,-20L137,85l0,20Z" class="g2_27" />
</g>
<path fill-rule="evenodd" d="M137,125l147,0l0,-20l-147,0l0,20Z" class="g2_27" />
<path fill-rule="evenodd" d="M295,100l428,0l0,-17L295,83l0,17Z" class="g2_27" />
<path fill-rule="evenodd" d="M295,125l11,0l0,-25l-11,0l0,25Z" class="g2_27" />
<path fill-rule="evenodd" d="M712,125l11,0l0,-25l-11,0l0,25Z" class="g2_27" />
<path fill-rule="evenodd" d="M295,127l428,0l0,-2l-428,0l0,2Z" class="g2_27" />
<path fill-rule="evenodd" d="M306,125l406,0l0,-25l-406,0l0,25Z" class="g2_27" />
<path fill-rule="evenodd" d="M724,85l89,0l0,-2l-89,0l0,2Z" class="g2_27" />
<path fill-rule="evenodd" d="M724,125l10,0l0,-40l-10,0l0,40Z" class="g2_27" />
<path fill-rule="evenodd" d="M803,125l10,0l0,-40l-10,0l0,40Z" class="g2_27" />
<path fill-rule="evenodd" d="M724,127l89,0l0,-2l-89,0l0,2Z" class="g2_27" />
<g clip-path="url(#c1_27)">
<path fill-rule="evenodd" d="M734,105l69,0l0,-20l-69,0l0,20Z" class="g2_27" />
</g>
<path fill-rule="evenodd" d="M734,125l69,0l0,-20l-69,0l0,20Z" class="g2_27" />
<path d="M126.5,85.5l0,-3" class="g1_27" />
<path d="M126.5,83.5l0,-1" class="g1_27" />
<path d="M126.5,83.5l169,0" class="g1_27" />
<path fill-rule="evenodd" d="M126,85l169,0l0,-2L126,83l0,2Z" class="g2_27" />
<path d="M295.5,85.5l0,-2" class="g1_27" />
<path d="M295.5,83.5l0,-1" class="g1_27" />
<path d="M295.5,83.5l428,0" class="g1_27" />
<path fill-rule="evenodd" d="M295,85l428,0l0,-2L295,83l0,2Z" class="g2_27" />
<path d="M723.5,85.5l0,-2" class="g1_27" />
<path d="M723.5,83.5l0,-1" class="g1_27" />
<path d="M724.5,83.5l89,0" class="g1_27" />
<path fill-rule="evenodd" d="M724,85l89,0l0,-2l-89,0l0,2Z" class="g2_27" />
<path d="M813.5,85.5l0,-3" class="g1_27" />
<path d="M813.5,83.5l0,-1" class="g1_27" />
<path fill-rule="evenodd" d="M126,127l169,0l0,-2l-169,0l0,2Z" class="g2_27" />
<path d="M126.5,127.5l0,-42" class="g1_27" />
<path fill-rule="evenodd" d="M295,127l428,0l0,-2l-428,0l0,2Z" class="g2_27" />
<path d="M295.5,127.5l0,-42" class="g1_27" />
<path fill-rule="evenodd" d="M723,127l91,0l0,-2l-91,0l0,2Z" class="g2_27" />
<path d="M723.5,127.5l0,-42" class="g1_27" />
<path d="M813.5,127.5l0,-42" class="g1_27" />
<path d="M734.5,144.5l56,0" class="g3_27" />
<path d="M126.5,130.5l0,-3" class="g1_27" />
<path d="M126.5,128.5l169,0" class="g1_27" />
<path d="M295.5,130.5l0,-3" class="g1_27" />
<path d="M295.5,128.5l428,0" class="g1_27" />
<path d="M723.5,130.5l0,-3" class="g1_27" />
<path d="M724.5,128.5l89,0" class="g1_27" />
<path d="M813.5,130.5l0,-3" class="g1_27" />
<path d="M126.5,166.5l0,-36" class="g1_27" />
<path d="M295.5,166.5l0,-36" class="g1_27" />
<path d="M723.5,166.5l0,-36" class="g1_27" />
<path d="M813.5,166.5l0,-36" class="g1_27" />
<path d="M385.5,203.5l66,0" class="g3_27" />
<path d="M734.5,188.5l30,0" class="g3_27" />
<path d="M734.5,203.5l57,0" class="g3_27" />
<path d="M126.5,169.5l0,-3" class="g1_27" />
<path d="M126.5,167.5l169,0" class="g1_27" />
<path d="M295.5,169.5l0,-3" class="g1_27" />
<path d="M295.5,167.5l428,0" class="g1_27" />
<path d="M723.5,169.5l0,-3" class="g1_27" />
<path d="M724.5,167.5l89,0" class="g1_27" />
<path d="M813.5,169.5l0,-3" class="g1_27" />
<path d="M126.5,225.5l0,-56" class="g1_27" />
<path d="M295.5,225.5l0,-56" class="g1_27" />
<path d="M723.5,225.5l0,-56" class="g1_27" />
<path d="M813.5,225.5l0,-56" class="g1_27" />
<path d="M734.5,247.5l30,0" class="g3_27" />
<path d="M734.5,262.5l54,0" class="g3_27" />
<path d="M126.5,228.5l0,-3" class="g1_27" />
<path d="M126.5,226.5l169,0" class="g1_27" />
<path d="M295.5,228.5l0,-3" class="g1_27" />
<path d="M295.5,226.5l428,0" class="g1_27" />
<path d="M723.5,228.5l0,-3" class="g1_27" />
<path d="M724.5,226.5l89,0" class="g1_27" />
<path d="M813.5,228.5l0,-3" class="g1_27" />
<path d="M126.5,269.5l0,-41" class="g1_27" />
<path d="M295.5,269.5l0,-41" class="g1_27" />
<path d="M723.5,269.5l0,-41" class="g1_27" />
<path d="M813.5,269.5l0,-41" class="g1_27" />
<path d="M734.5,291.5l30,0" class="g3_27" />
<path d="M734.5,306.5l58,0" class="g3_27" />
<path d="M126.5,272.5l0,-3" class="g1_27" />
<path d="M126.5,270.5l169,0" class="g1_27" />
<path d="M295.5,272.5l0,-3" class="g1_27" />
<path d="M295.5,270.5l428,0" class="g1_27" />
<path d="M723.5,272.5l0,-3" class="g1_27" />
<path d="M724.5,270.5l89,0" class="g1_27" />
<path d="M813.5,272.5l0,-3" class="g1_27" />
<path d="M126.5,328.5l0,-56" class="g1_27" />
<path d="M126.5,329.5l0,-1" class="g1_27" />
<path d="M126.5,329.5l0,-1" class="g1_27" />
<path d="M126.5,329.5l169,0" class="g1_27" />
<path d="M295.5,328.5l0,-56" class="g1_27" />
<path d="M295.5,329.5l0,-1" class="g1_27" />
<path d="M295.5,329.5l428,0" class="g1_27" />
<path d="M723.5,328.5l0,-56" class="g1_27" />
<path d="M723.5,329.5l0,-1" class="g1_27" />
<path d="M724.5,329.5l89,0" class="g1_27" />
<path d="M813.5,328.5l0,-56" class="g1_27" />
<path d="M813.5,329.5l0,-1" class="g1_27" />
<path d="M813.5,329.5l0,-1" class="g1_27" />
<path fill-rule="evenodd" d="M126,413l150,0l0,-2l-150,0l0,2Z" class="g2_27" />
<path fill-rule="evenodd" d="M126,438l11,0l0,-25l-11,0l0,25Z" class="g2_27" />
<path fill-rule="evenodd" d="M265,438l11,0l0,-25l-11,0l0,25Z" class="g2_27" />
<path fill-rule="evenodd" d="M126,440l150,0l0,-2l-150,0l0,2Z" class="g2_27" />
<path fill-rule="evenodd" d="M137,438l128,0l0,-25l-128,0l0,25Z" class="g2_27" />
<path fill-rule="evenodd" d="M277,413l429,0l0,-2l-429,0l0,2Z" class="g2_27" />
<path fill-rule="evenodd" d="M277,438l10,0l0,-25l-10,0l0,25Z" class="g2_27" />
<path fill-rule="evenodd" d="M695,438l11,0l0,-25l-11,0l0,25Z" class="g2_27" />
<path fill-rule="evenodd" d="M277,440l429,0l0,-2l-429,0l0,2Z" class="g2_27" />
<path fill-rule="evenodd" d="M287,438l408,0l0,-25l-408,0l0,25Z" class="g2_27" />
<path fill-rule="evenodd" d="M706,413l107,0l0,-2l-107,0l0,2Z" class="g2_27" />
<path fill-rule="evenodd" d="M706,438l11,0l0,-25l-11,0l0,25Z" class="g2_27" />
<path fill-rule="evenodd" d="M803,438l10,0l0,-25l-10,0l0,25Z" class="g2_27" />
<path fill-rule="evenodd" d="M706,440l107,0l0,-2l-107,0l0,2Z" class="g2_27" />
<path fill-rule="evenodd" d="M717,438l86,0l0,-25l-86,0l0,25Z" class="g2_27" />
<path d="M126.5,413.5l0,-3" class="g1_27" />
<path d="M126.5,411.5l0,-1" class="g1_27" />
<path d="M126.5,411.5l150,0" class="g1_27" />
<path fill-rule="evenodd" d="M126,413l150,0l0,-2l-150,0l0,2Z" class="g2_27" />
<path d="M276.5,413.5l0,-2" class="g1_27" />
<path d="M276.5,411.5l0,-1" class="g1_27" />
<path d="M277.5,411.5l429,0" class="g1_27" />
<path fill-rule="evenodd" d="M277,413l429,0l0,-2l-429,0l0,2Z" class="g2_27" />
<path d="M706.5,413.5l0,-2" class="g1_27" />
<path d="M706.5,411.5l0,-1" class="g1_27" />
<path d="M706.5,411.5l107,0" class="g1_27" />
<path fill-rule="evenodd" d="M706,413l107,0l0,-2l-107,0l0,2Z" class="g2_27" />
<path d="M813.5,413.5l0,-3" class="g1_27" />
<path d="M813.5,411.5l0,-1" class="g1_27" />
<path fill-rule="evenodd" d="M126,440l151,0l0,-2l-151,0l0,2Z" class="g2_27" />
<path d="M126.5,440.5l0,-27" class="g1_27" />
<path fill-rule="evenodd" d="M277,440l429,0l0,-2l-429,0l0,2Z" class="g2_27" />
<path d="M276.5,440.5l0,-27" class="g1_27" />
<path fill-rule="evenodd" d="M706,440l108,0l0,-2l-108,0l0,2Z" class="g2_27" />
<path d="M706.5,440.5l0,-27" class="g1_27" />
<path d="M813.5,440.5l0,-27" class="g1_27" />
<path d="M717.5,462.5l30,0" class="g3_27" />
<path d="M717.5,477.5l77,0" class="g3_27" />
<path d="M126.5,443.5l0,-3" class="g1_27" />
<path d="M126.5,441.5l150,0" class="g1_27" />
<path d="M276.5,443.5l0,-3" class="g1_27" />
<path d="M277.5,441.5l429,0" class="g1_27" />
<path d="M706.5,443.5l0,-3" class="g1_27" />
<path d="M706.5,441.5l107,0" class="g1_27" />
<path d="M813.5,443.5l0,-3" class="g1_27" />
<path d="M126.5,528.5l0,-85" class="g1_27" />
<path d="M276.5,528.5l0,-85" class="g1_27" />
<path d="M706.5,528.5l0,-85" class="g1_27" />
<path d="M813.5,528.5l0,-85" class="g1_27" />
<path d="M717.5,550.5l30,0" class="g3_27" />
<path d="M717.5,565.5l80,0" class="g3_27" />
<path d="M126.5,531.5l0,-3" class="g1_27" />
<path d="M126.5,529.5l150,0" class="g1_27" />
<path d="M276.5,531.5l0,-3" class="g1_27" />
<path d="M277.5,529.5l429,0" class="g1_27" />
<path d="M706.5,531.5l0,-3" class="g1_27" />
<path d="M706.5,529.5l107,0" class="g1_27" />
<path d="M813.5,531.5l0,-3" class="g1_27" />
<path d="M126.5,602.5l0,-71" class="g1_27" />
<path d="M276.5,602.5l0,-71" class="g1_27" />
<path d="M706.5,602.5l0,-71" class="g1_27" />
<path d="M813.5,602.5l0,-71" class="g1_27" />
<path d="M717.5,624.5l30,0" class="g3_27" />
<path d="M717.5,639.5l81,0" class="g3_27" />
<path d="M126.5,605.5l0,-3" class="g1_27" />
<path d="M126.5,603.5l150,0" class="g1_27" />
<path d="M276.5,605.5l0,-3" class="g1_27" />
<path d="M277.5,603.5l429,0" class="g1_27" />
<path d="M706.5,605.5l0,-3" class="g1_27" />
<path d="M706.5,603.5l107,0" class="g1_27" />
<path d="M813.5,605.5l0,-3" class="g1_27" />
<path d="M126.5,676.5l0,-71" class="g1_27" />
<path d="M276.5,676.5l0,-71" class="g1_27" />
<path d="M706.5,676.5l0,-71" class="g1_27" />
<path d="M813.5,676.5l0,-71" class="g1_27" />
<path d="M717.5,698.5l30,0" class="g3_27" />
<path d="M717.5,713.5l76,0" class="g3_27" />
<path d="M126.5,679.5l0,-3" class="g1_27" />
<path d="M126.5,677.5l150,0" class="g1_27" />
<path d="M276.5,679.5l0,-3" class="g1_27" />
<path d="M277.5,677.5l429,0" class="g1_27" />
<path d="M706.5,679.5l0,-3" class="g1_27" />
<path d="M706.5,677.5l107,0" class="g1_27" />
<path d="M813.5,679.5l0,-3" class="g1_27" />
<path d="M126.5,780.5l0,-101" class="g1_27" />
<path d="M276.5,780.5l0,-101" class="g1_27" />
<path d="M706.5,780.5l0,-101" class="g1_27" />
<path d="M813.5,780.5l0,-101" class="g1_27" />
<path d="M717.5,802.5l30,0" class="g3_27" />
<path d="M717.5,816.5l79,0" class="g3_27" />
<path d="M126.5,783.5l0,-3" class="g1_27" />
<path d="M126.5,780.5l150,0" class="g1_27" />
<path d="M276.5,783.5l0,-3" class="g1_27" />
<path d="M277.5,780.5l429,0" class="g1_27" />
<path d="M706.5,783.5l0,-3" class="g1_27" />
<path d="M706.5,780.5l107,0" class="g1_27" />
<path d="M813.5,783.5l0,-3" class="g1_27" />
<path d="M126.5,853.5l0,-70" class="g1_27" />
<path d="M276.5,853.5l0,-70" class="g1_27" />
<path d="M706.5,853.5l0,-70" class="g1_27" />
<path d="M813.5,853.5l0,-70" class="g1_27" />
<path d="M717.5,875.5l30,0" class="g3_27" />
<path d="M717.5,890.5l79,0" class="g3_27" />
<path d="M126.5,856.5l0,-3" class="g1_27" />
<path d="M126.5,854.5l150,0" class="g1_27" />
<path d="M276.5,856.5l0,-3" class="g1_27" />
<path d="M277.5,854.5l429,0" class="g1_27" />
<path d="M706.5,856.5l0,-3" class="g1_27" />
<path d="M706.5,854.5l107,0" class="g1_27" />
<path d="M813.5,856.5l0,-3" class="g1_27" />
<path d="M126.5,927.5l0,-71" class="g1_27" />
<path d="M126.5,928.5l0,-1" class="g1_27" />
<path d="M126.5,928.5l0,-1" class="g1_27" />
<path d="M126.5,928.5l150,0" class="g1_27" />
<path d="M276.5,927.5l0,-71" class="g1_27" />
<path d="M276.5,928.5l0,-1" class="g1_27" />
<path d="M277.5,928.5l429,0" class="g1_27" />
<path d="M706.5,927.5l0,-71" class="g1_27" />
<path d="M706.5,928.5l0,-1" class="g1_27" />
<path d="M706.5,928.5l107,0" class="g1_27" />
<path d="M813.5,927.5l0,-71" class="g1_27" />
<path d="M813.5,928.5l0,-1" class="g1_27" />
<path d="M813.5,928.5l0,-1" class="g1_27" />
</svg>