<?xml version="1.0" encoding="UTF-8" standalone="no"?>
<!DOCTYPE svg PUBLIC "-//W3C//DTD SVG 1.1//EN"
"http://www.w3.org/Graphics/SVG/1.1/DTD/svg11.dtd">
<svg version="1.1" xmlns="http://www.w3.org/2000/svg" xmlns:xlink="http://www.w3.org/1999/xlink">
<defs>
<style type="text/css"><![CDATA[
.g1_88{
fill: none;
stroke: #000000;
stroke-width: 1;
stroke-linecap: butt;
stroke-linejoin: miter;
}
.g2_88{
fill: none;
stroke: #0066FF;
stroke-width: 1;
stroke-linecap: butt;
stroke-linejoin: miter;
}
]]></style>
</defs>
<path d="M122.5,1029.5l705,0" class="g1_88" />
<path d="M138.5,96.5l82,0" class="g2_88" />
<path d="M138.5,111.5l53,0" class="g2_88" />
<path d="M138.5,141.5l130,0" class="g2_88" />
<path d="M138.5,156.5l145,0" class="g2_88" />
<path d="M138.5,171.5l64,0" class="g2_88" />
<path d="M138.5,185.5l82,0" class="g2_88" />
<path d="M138.5,200.5l53,0" class="g2_88" />
<path d="M138.5,230.5l130,0" class="g2_88" />
<path d="M138.5,245.5l145,0" class="g2_88" />
<path d="M138.5,260.5l64,0" class="g2_88" />
<path d="M138.5,275.5l82,0" class="g2_88" />
<path d="M138.5,289.5l53,0" class="g2_88" />
<path d="M138.5,319.5l130,0" class="g2_88" />
<path d="M138.5,334.5l145,0" class="g2_88" />
<path d="M138.5,349.5l64,0" class="g2_88" />
<path d="M138.5,364.5l82,0" class="g2_88" />
<path d="M138.5,378.5l53,0" class="g2_88" />
<path d="M138.5,408.5l130,0" class="g2_88" />
<path d="M138.5,423.5l145,0" class="g2_88" />
<path d="M138.5,438.5l64,0" class="g2_88" />
<path d="M138.5,453.5l82,0" class="g2_88" />
<path d="M138.5,468.5l53,0" class="g2_88" />
<path d="M138.5,512.5l130,0" class="g2_88" />
<path d="M138.5,527.5l145,0" class="g2_88" />
<path d="M138.5,542.5l64,0" class="g2_88" />
<path d="M138.5,557.5l82,0" class="g2_88" />
<path d="M138.5,572.5l53,0" class="g2_88" />
<path d="M138.5,601.5l130,0" class="g2_88" />
<path d="M138.5,616.5l145,0" class="g2_88" />
<path d="M138.5,631.5l64,0" class="g2_88" />
<path d="M138.5,646.5l53,0" class="g2_88" />
<path d="M138.5,691.5l130,0" class="g2_88" />
<path d="M138.5,705.5l145,0" class="g2_88" />
<path d="M138.5,720.5l64,0" class="g2_88" />
<path d="M138.5,735.5l82,0" class="g2_88" />
<path d="M138.5,750.5l53,0" class="g2_88" />
<path d="M138.5,780.5l130,0" class="g2_88" />
<path d="M138.5,795.5l145,0" class="g2_88" />
<path d="M138.5,809.5l64,0" class="g2_88" />
<path d="M138.5,824.5l82,0" class="g2_88" />
<path d="M138.5,839.5l53,0" class="g2_88" />
<path d="M138.5,869.5l130,0" class="g2_88" />
<path d="M138.5,884.5l145,0" class="g2_88" />
<path d="M138.5,899.5l64,0" class="g2_88" />
<path d="M138.5,913.5l82,0" class="g2_88" />
<path d="M138.5,928.5l53,0" class="g2_88" />
<path d="M124.5,943.5l302,0" class="g2_88" />
<path d="M138.5,958.5l56,0" class="g2_88" />
<path d="M516.5,96.5l40,0" class="g2_88" />
<path d="M516.5,111.5l101,0" class="g2_88" />
<path d="M516.5,126.5l82,0" class="g2_88" />
<path d="M516.5,141.5l53,0" class="g2_88" />
<path d="M516.5,156.5l59,0" class="g2_88" />
<path d="M502.5,215.5l78,0" class="g2_88" />
<path d="M502.5,230.5l87,0" class="g2_88" />
<path d="M516.5,244.5l67,0" class="g2_88" />
<path d="M516.5,259.5l102,0" class="g2_88" />
<path d="M516.5,274.5l27,0" class="g2_88" />
<path d="M516.5,289.5l39,0" class="g2_88" />
<path d="M516.5,304.5l30,0" class="g2_88" />
<path d="M516.5,319.5l32,0" class="g2_88" />
<path d="M516.5,334.5l25,0" class="g2_88" />
<path d="M516.5,348.5l34,0" class="g2_88" />
<path d="M516.5,363.5l111,0" class="g2_88" />
<path d="M516.5,378.5l83,0" class="g2_88" />
<path d="M516.5,393.5l53,0" class="g2_88" />
<path d="M516.5,423.5l285,0" class="g2_88" />
<path d="M530.5,438.5l127,0" class="g2_88" />
<path d="M516.5,453.5l285,0" class="g2_88" />
<path d="M530.5,467.5l187,0" class="g2_88" />
<path d="M516.5,482.5l285,0" class="g2_88" />
<path d="M530.5,497.5l169,0" class="g2_88" />
<path d="M516.5,512.5l285,0" class="g2_88" />
<path d="M530.5,527.5l139,0" class="g2_88" />
<path d="M516.5,542.5l285,0" class="g2_88" />
<path d="M530.5,557.5l146,0" class="g2_88" />
<path d="M516.5,571.5l290,0" class="g2_88" />
<path d="M530.5,586.5l144,0" class="g2_88" />
<path d="M516.5,601.5l290,0" class="g2_88" />
<path d="M530.5,616.5l126,0" class="g2_88" />
<path d="M516.5,631.5l290,0" class="g2_88" />
<path d="M530.5,646.5l96,0" class="g2_88" />
<path d="M516.5,661.5l290,0" class="g2_88" />
<path d="M530.5,675.5l114,0" class="g2_88" />
<path d="M516.5,690.5l293,0" class="g2_88" />
<path d="M530.5,705.5l41,0" class="g2_88" />
<path d="M516.5,720.5l293,0" class="g2_88" />
<path d="M530.5,735.5l101,0" class="g2_88" />
<path d="M516.5,750.5l293,0" class="g2_88" />
<path d="M530.5,764.5l83,0" class="g2_88" />
<path d="M516.5,779.5l293,0" class="g2_88" />
<path d="M530.5,794.5l53,0" class="g2_88" />
<path d="M516.5,809.5l293,0" class="g2_88" />
<path d="M530.5,824.5l60,0" class="g2_88" />
<path d="M516.5,839.5l55,0" class="g2_88" />
<path d="M516.5,854.5l297,0" class="g2_88" />
<path d="M530.5,868.5l158,0" class="g2_88" />
<path d="M516.5,883.5l297,0" class="g2_88" />
<path d="M530.5,898.5l218,0" class="g2_88" />
<path d="M516.5,913.5l297,0" class="g2_88" />
<path d="M530.5,928.5l200,0" class="g2_88" />
<path d="M516.5,943.5l297,0" class="g2_88" />
<path d="M530.5,958.5l170,0" class="g2_88" />
<path d="M516.5,972.5l297,0" class="g2_88" />
<path d="M530.5,987.5l177,0" class="g2_88" />
</svg>