<?xml version="1.0" encoding="UTF-8" standalone="no"?>
<!DOCTYPE svg PUBLIC "-//W3C//DTD SVG 1.1//EN"
"http://www.w3.org/Graphics/SVG/1.1/DTD/svg11.dtd">
<svg version="1.1" xmlns="http://www.w3.org/2000/svg" xmlns:xlink="http://www.w3.org/1999/xlink">
<defs>
<style type="text/css"><![CDATA[
.g1_89{
fill: none;
stroke: #000000;
stroke-width: 1;
stroke-linecap: butt;
stroke-linejoin: miter;
}
.g2_89{
fill: none;
stroke: #0066FF;
stroke-width: 1;
stroke-linecap: butt;
stroke-linejoin: miter;
}
]]></style>
</defs>
<path d="M122.5,1029.5l705,0" class="g1_89" />
<path d="M138.5,96.5l307,0" class="g2_89" />
<path d="M138.5,126.5l263,0" class="g2_89" />
<path d="M152.5,141.5l101,0" class="g2_89" />
<path d="M138.5,156.5l263,0" class="g2_89" />
<path d="M152.5,171.5l83,0" class="g2_89" />
<path d="M138.5,185.5l263,0" class="g2_89" />
<path d="M152.5,200.5l53,0" class="g2_89" />
<path d="M138.5,215.5l289,0" class="g2_89" />
<path d="M152.5,230.5l34,0" class="g2_89" />
<path d="M138.5,260.5l162,0" class="g2_89" />
<path d="M138.5,275.5l55,0" class="g2_89" />
<path d="M138.5,289.5l227,0" class="g2_89" />
<path d="M138.5,304.5l184,0" class="g2_89" />
<path d="M138.5,319.5l242,0" class="g2_89" />
<path d="M138.5,334.5l213,0" class="g2_89" />
<path d="M124.5,349.5l138,0" class="g2_89" />
<path d="M138.5,423.5l130,0" class="g2_89" />
<path d="M138.5,438.5l145,0" class="g2_89" />
<path d="M138.5,453.5l64,0" class="g2_89" />
<path d="M138.5,467.5l82,0" class="g2_89" />
<path d="M138.5,482.5l53,0" class="g2_89" />
<path d="M124.5,497.5l141,0" class="g2_89" />
<path d="M124.5,512.5l218,0" class="g2_89" />
<path d="M138.5,527.5l106,0" class="g2_89" />
<path d="M138.5,542.5l172,0" class="g2_89" />
<path d="M124.5,601.5l53,0" class="g2_89" />
<path d="M124.5,660.5l140,0" class="g2_89" />
<path d="M138.5,675.5l67,0" class="g2_89" />
<path d="M138.5,689.5l102,0" class="g2_89" />
<path d="M138.5,704.5l27,0" class="g2_89" />
<path d="M138.5,719.5l39,0" class="g2_89" />
<path d="M138.5,734.5l30,0" class="g2_89" />
<path d="M138.5,749.5l32,0" class="g2_89" />
<path d="M138.5,764.5l25,0" class="g2_89" />
<path d="M138.5,779.5l34,0" class="g2_89" />
<path d="M138.5,793.5l111,0" class="g2_89" />
<path d="M138.5,808.5l83,0" class="g2_89" />
<path d="M138.5,823.5l53,0" class="g2_89" />
<path d="M124.5,882.5l174,0" class="g2_89" />
<path d="M124.5,897.5l235,0" class="g2_89" />
<path d="M124.5,912.5l140,0" class="g2_89" />
<path d="M124.5,927.5l70,0" class="g2_89" />
<path d="M124.5,942.5l75,0" class="g2_89" />
<path d="M516.5,96.5l130,0" class="g2_89" />
<path d="M516.5,111.5l145,0" class="g2_89" />
<path d="M516.5,126.5l64,0" class="g2_89" />
<path d="M516.5,141.5l82,0" class="g2_89" />
<path d="M516.5,156.5l53,0" class="g2_89" />
<path d="M516.5,230.5l305,0" class="g2_89" />
<path d="M530.5,244.5l56,0" class="g2_89" />
<path d="M516.5,259.5l249,0" class="g2_89" />
<path d="M530.5,274.5l134,0" class="g2_89" />
<path d="M516.5,289.5l303,0" class="g2_89" />
<path d="M530.5,304.5l72,0" class="g2_89" />
<path d="M502.5,319.5l307,0" class="g2_89" />
<path d="M516.5,334.5l72,0" class="g2_89" />
<path d="M502.5,348.5l162,0" class="g2_89" />
<path d="M502.5,408.5l238,0" class="g2_89" />
<path d="M516.5,482.5l130,0" class="g2_89" />
<path d="M516.5,496.5l145,0" class="g2_89" />
<path d="M516.5,511.5l64,0" class="g2_89" />
<path d="M516.5,526.5l82,0" class="g2_89" />
<path d="M516.5,541.5l53,0" class="g2_89" />
<path d="M516.5,571.5l106,0" class="g2_89" />
<path d="M516.5,586.5l172,0" class="g2_89" />
<path d="M516.5,600.5l134,0" class="g2_89" />
<path d="M516.5,615.5l53,0" class="g2_89" />
<path d="M502.5,674.5l82,0" class="g2_89" />
<path d="M516.5,704.5l130,0" class="g2_89" />
<path d="M516.5,719.5l145,0" class="g2_89" />
<path d="M516.5,734.5l64,0" class="g2_89" />
<path d="M516.5,749.5l82,0" class="g2_89" />
<path d="M516.5,763.5l53,0" class="g2_89" />
<path d="M516.5,808.5l40,0" class="g2_89" />
<path d="M516.5,823.5l101,0" class="g2_89" />
<path d="M516.5,838.5l82,0" class="g2_89" />
<path d="M516.5,852.5l53,0" class="g2_89" />
<path d="M516.5,867.5l59,0" class="g2_89" />
<path d="M502.5,927.5l67,0" class="g2_89" />
<path d="M516.5,956.5l130,0" class="g2_89" />
<path d="M516.5,971.5l145,0" class="g2_89" />
<path d="M516.5,986.5l64,0" class="g2_89" />
<path d="M516.5,1001.5l82,0" class="g2_89" />
</svg>