<?xml version="1.0" encoding="UTF-8" standalone="no"?>
<!DOCTYPE svg PUBLIC "-//W3C//DTD SVG 1.1//EN"
"http://www.w3.org/Graphics/SVG/1.1/DTD/svg11.dtd">
<svg version="1.1" xmlns="http://www.w3.org/2000/svg" xmlns:xlink="http://www.w3.org/1999/xlink">
<defs>
<style type="text/css"><![CDATA[
.g4_4{
fill: #972221;
}
.g1_4{
fill: none;
stroke: #FFFFFF;
stroke-width: 2;
stroke-linecap: butt;
stroke-linejoin: miter;
stroke-miterlimit: 4;
}
.g6_4{
}
.g10_4{
fill: #F1F1F2;
}
.g12_4{
fill: #58595B;
}
.g3_4{
fill: #EF3B39;
}
.g13_4{
fill: #939598;
}
.g9_4{
fill: #FFFFFF;
stroke: #D1D3D4;
stroke-width: 2;
stroke-linecap: butt;
stroke-linejoin: miter;
stroke-miterlimit: 4;
}
.g8_4{
fill: #8B0304;
}
.g2_4{
fill: #FFFFFF;
}
.g7_4{
fill: #EE2A28;
}
.g5_4{
fill: #972121;
}
.g11_4{
fill: none;
stroke: #FFFFFF;
stroke-width: 5;
stroke-linecap: butt;
stroke-linejoin: miter;
}
]]></style>
</defs>
<image x="-13" y="-13" width="937" height="1316" xlink:href="shade/1.png" />
<image x="32" y="1090" width="29" height="30" xlink:href="shade/2.png" />
<path d="M49.4,1105.4c-2.4,4,-5.9,6.4,-7.7,5.2c-1.9,-1.1,-1.4,-5.3,1.1,-9.3c2.4,-4,5.9,-6.3,7.8,-5.2c1.8,1.1,1.3,5.3,-1.2,9.3Zm5.6,-1.6c0,4.8,-3.9,8.7,-8.8,8.7c-4.8,0,-8.8,-3.9,-8.8,-8.7c0,-4.9,4,-8.8,8.8,-8.8c4.9,0,8.8,3.9,8.8,8.8Zm-4.7,-7.5l-8.3,14m-3.1,-11.4l14.4,9.3m-15.6,-5.3l12.6,8.3m-8,-15.1l12.9,8.5" class="g1_4" />
<path d="M802.4,86.1c0,0.1,-0.1,0.2,-0.1,0.3l-1,0.9c0,0.1,-0.1,0.2,-0.3,0.2l-4.8,0c-0.2,0,-0.3,-0.1,-0.4,-0.2l-0.9,-0.9c-0.1,-0.1,-0.1,-0.2,-0.1,-0.3l0,-7.5c0,-0.1,0,-0.2,0.1,-0.3l0.9,-0.9c0.1,-0.1,0.2,-0.1,0.4,-0.1l4.8,0c0.2,0,0.3,0,0.3,0.1l1,0.9c0,0.1,0.1,0.2,0.1,0.3Zm0.3,-11c-0.4,-0.3,-0.8,-0.5,-1.2,-0.5l-6.1,0c-0.4,0,-0.8,0.2,-1.1,0.5L792.4,77c-0.4,0.3,-0.5,0.7,-0.5,1.2l0,8.4c0,0.4,0.1,0.8,0.5,1.1l1.9,1.9c0.3,0.4,0.7,0.5,1.1,0.5l6.1,0c0.4,0,0.8,-0.1,1.2,-0.5l1.9,-1.9c0.3,-0.3,0.5,-0.7,0.5,-1.1l0,-8.4c0,-0.5,-0.2,-0.9,-0.5,-1.2Z" class="g2_4" />
<path d="M762,77l5,0l0,13l2,0l0,-13l5,0l0,-3l-12,0Z" class="g2_4" />
<path d="M786,81l-7,0l0,-7l-2,0l0,16l2,0l0,-7l7,0l0,7l2,0l0,-16l-2,0Z" class="g2_4" />
<path d="M824,90l11,0l0,-3l-8,0l0,-4l8,0l0,-2l-8,0l0,-4l8,0l0,-3l-11,0Z" class="g2_4" />
<path d="M811,78.3l0.9,-0.9c0.1,-0.1,0.2,-0.1,0.3,-0.1l5.3,0c0.2,0,0.3,0,0.4,0.1l1.5,1.6l1.9,-1.9l-2,-2c-0.3,-0.3,-0.7,-0.5,-1.2,-0.5l-6.5,0c-0.4,0,-0.8,0.2,-1.1,0.5L808.6,77c-0.4,0.3,-0.5,0.7,-0.5,1.2l0,3c0,0.9,0.7,1.7,1.6,1.8l8.3,1.2c0.3,0,0.5,0.2,0.5,0.4l0,1.5c0,0.1,-0.1,0.2,-0.2,0.3l-0.9,0.9c-0.1,0.1,-0.1,0.2,-0.3,0.2l-5.3,0c-0.1,0,-0.2,-0.1,-0.3,-0.2l-1.6,-1.5l-1.8,1.9l1.9,2c0.4,0.3,0.8,0.4,1.2,0.4l6.5,0c0.5,0,0.9,-0.1,1.2,-0.4l1.9,-2c0.3,-0.3,0.5,-0.7,0.5,-1.1l0,-3.1c0,-0.9,-0.7,-1.7,-1.6,-1.8l-8.4,-1.1c-0.2,0,-0.4,-0.2,-0.4,-0.5l0,-1.5c0,-0.1,0,-0.2,0.1,-0.3Z" class="g2_4" />
<path d="M835.3,77.3l-7.6,0l0,3.7l7.6,0l0,2.7l-7.6,0l0,3.8l7.6,0l0,2.6l-10.4,0l0,-15.5l10.4,0Zm-24,3.3l8.4,1.1c0.9,0.1,1.6,0.9,1.6,1.8l0,3.1c0,0.4,-0.2,0.8,-0.5,1.1l-1.9,2c-0.3,0.3,-0.7,0.4,-1.2,0.4l-6.5,0c-0.4,0,-0.8,-0.1,-1.2,-0.4l-1.9,-2l1.8,-1.9l1.6,1.5c0.1,0.1,0.2,0.2,0.3,0.2l5.3,0c0.2,0,0.2,-0.1,0.3,-0.2l0.9,-0.9c0.1,-0.1,0.2,-0.2,0.2,-0.3l0,-1.5c0,-0.2,-0.2,-0.4,-0.5,-0.4L809.7,83c-0.9,-0.1,-1.6,-0.9,-1.6,-1.8l0,-3c0,-0.5,0.1,-0.9,0.5,-1.2l1.9,-1.9c0.3,-0.3,0.7,-0.5,1.1,-0.5l6.5,0c0.5,0,0.9,0.2,1.2,0.5l2,2L819.4,79l-1.6,-1.6c0,-0.1,-0.1,-0.1,-0.3,-0.1l-5.3,0c-0.1,0,-0.2,0,-0.3,0.1L811,78.3c-0.1,0.1,-0.1,0.2,-0.1,0.3l0,1.5c0,0.3,0.2,0.5,0.4,0.5m-6.2,6c0,0.4,-0.2,0.8,-0.5,1.1l-1.9,2c-0.4,0.3,-0.8,0.4,-1.2,0.4l-6.1,0c-0.4,0,-0.8,-0.1,-1.1,-0.4l-1.9,-2C792,87.4,791.9,87,791.9,86.6l0,-8.4c0,-0.5,0.1,-0.9,0.5,-1.2l1.9,-1.9c0.3,-0.3,0.7,-0.5,1.1,-0.5l6.1,0c0.4,0,0.8,0.2,1.2,0.5l1.9,1.9c0.3,0.3,0.5,0.7,0.5,1.2Zm-16.3,3.5l-2.8,0l0,-6.4l-6.2,0l0,6.4l-2.8,0l0,-15.5l2.8,0l0,6.4l6.2,0l0,-6.4l2.8,0ZM774.3,77.3l-4.5,0l0,12.8l-2.7,0l0,-12.8l-4.5,0l0,-2.7l11.7,0ZM758.8,93.7l80.7,0l0,-22.6l-80.7,0l0,22.6Z" class="g3_4" />
<path d="M801.3,77.4c0,-0.1,-0.1,-0.1,-0.3,-0.1l-4.8,0c-0.2,0,-0.3,0,-0.4,0.1l-0.9,0.9c-0.1,0.1,-0.1,0.2,-0.1,0.3l0,7.5c0,0.1,0,0.2,0.1,0.3l0.9,0.9c0.1,0.1,0.2,0.2,0.4,0.2l4.8,0c0.2,0,0.3,-0.1,0.3,-0.2l0.9,-0.9c0.1,-0.1,0.2,-0.2,0.2,-0.3l0,-7.5c0,-0.1,-0.1,-0.2,-0.2,-0.3Z" class="g3_4" />
<path d="M806,107l-6,0l0,-7l-3,0l0,16l3,0l0,-7l6,0l0,7l3,0l0,-16l-3,0Z" class="g2_4" />
<path d="M789.5,113.1L787,100.6l-3.7,0l-2.5,12.5l-2.4,-12.5l-2.9,0l3.4,15.5l3.7,0l2.5,-12.2l2.5,12.2l3.7,0l3.4,-15.5l-2.7,0Z" class="g2_4" />
<path d="M823,112.1c0,0.1,-0.1,0.2,-0.2,0.3l-0.9,0.9c-0.1,0.1,-0.2,0.2,-0.3,0.2l-4.9,0c-0.1,0,-0.2,-0.1,-0.3,-0.2l-0.9,-0.9c-0.1,-0.1,-0.1,-0.2,-0.1,-0.3l0,-7.5c0,-0.1,0,-0.2,0.1,-0.3l0.9,-0.9c0.1,-0.1,0.2,-0.1,0.3,-0.1l4.9,0c0.1,0,0.2,0,0.3,0.1l0.9,0.9c0.1,0.1,0.2,0.2,0.2,0.3Zm0.4,-11c-0.4,-0.3,-0.8,-0.5,-1.2,-0.5l-6.1,0c-0.4,0,-0.8,0.2,-1.1,0.5l-1.9,1.9c-0.4,0.3,-0.5,0.7,-0.5,1.2l0,8.4c0,0.4,0.1,0.8,0.5,1.1l1.9,1.9c0.3,0.4,0.7,0.5,1.1,0.5l6.1,0c0.4,0,0.8,-0.1,1.2,-0.5l1.9,-1.9c0.3,-0.3,0.5,-0.7,0.5,-1.1l0,-8.4c0,-0.5,-0.2,-0.9,-0.5,-1.2Z" class="g2_4" />
<path d="M825.8,112.6c0,0.4,-0.2,0.8,-0.5,1.1l-1.9,1.9c-0.4,0.4,-0.8,0.5,-1.2,0.5l-6.1,0c-0.4,0,-0.8,-0.1,-1.1,-0.5l-1.9,-1.9c-0.4,-0.3,-0.5,-0.7,-0.5,-1.1l0,-8.4c0,-0.5,0.1,-0.9,0.5,-1.2l1.9,-1.9c0.3,-0.3,0.7,-0.5,1.1,-0.5l6.1,0c0.4,0,0.8,0.2,1.2,0.5l1.9,1.9c0.3,0.3,0.5,0.7,0.5,1.2Zm-16.3,3.5l-2.8,0l0,-6.4l-6.2,0l0,6.4l-2.8,0l0,-15.5l2.8,0l0,6.4l6.2,0l0,-6.4l2.8,0Zm-18.2,0l-3.7,0l-2.5,-12.2l-2.5,12.2l-3.7,0l-3.4,-15.5l2.9,0l2.4,12.5l2.5,-12.5l3.7,0l2.5,12.5L792,100.6l2.7,0Zm-20.5,3.6l60.5,0l0,-22.6l-60.5,0l0,22.6Z" class="g3_4" />
<path d="M821.9,103.4c-0.1,-0.1,-0.2,-0.1,-0.3,-0.1l-4.9,0c-0.1,0,-0.2,0,-0.3,0.1l-0.9,0.9c-0.1,0.1,-0.1,0.2,-0.1,0.3l0,7.5c0,0.1,0,0.2,0.1,0.3l0.9,0.9c0.1,0.1,0.2,0.2,0.3,0.2l4.9,0c0.1,0,0.2,-0.1,0.3,-0.2l0.9,-0.9c0.1,-0.1,0.2,-0.2,0.2,-0.3l0,-7.5c0,-0.1,-0.1,-0.2,-0.2,-0.3Z" class="g3_4" />
<path d="M864.5,112.1c0,0.1,-0.1,0.2,-0.2,0.3l-0.9,0.9c-0.1,0.1,-0.2,0.2,-0.3,0.2l-4.9,0c-0.1,0,-0.2,-0.1,-0.3,-0.2L857,112.4c-0.1,-0.1,-0.1,-0.2,-0.1,-0.3l0,-7.5c0,-0.1,0,-0.2,0.1,-0.3l0.9,-0.9c0.1,-0.1,0.2,-0.1,0.3,-0.1l4.9,0c0.1,0,0.2,0,0.3,0.1l0.9,0.9c0.1,0.1,0.2,0.2,0.2,0.3Zm0.4,-11c-0.3,-0.3,-0.7,-0.5,-1.2,-0.5l-6.1,0c-0.4,0,-0.8,0.2,-1.1,0.5l-1.9,1.9c-0.4,0.3,-0.5,0.7,-0.5,1.2l0,8.4c0,0.4,0.1,0.8,0.5,1.1l1.9,1.9c0.3,0.4,0.7,0.5,1.1,0.5l6.1,0c0.5,0,0.9,-0.1,1.2,-0.5l1.9,-1.9c0.3,-0.3,0.5,-0.7,0.5,-1.1l0,-8.4c0,-0.5,-0.2,-0.9,-0.5,-1.2Z" class="g2_4" />
<path d="M870,116l3,0l0,-3l-3,0l0,3Z" class="g2_4" />
<path d="M848,112.1c0,0.1,-0.1,0.2,-0.2,0.3l-0.9,0.9c-0.1,0.1,-0.2,0.2,-0.3,0.2l-4.9,0l0,-10.2l4.9,0c0.1,0,0.2,0,0.3,0.1l0.9,0.9c0.1,0.1,0.2,0.2,0.2,0.3Zm0.3,-11c-0.3,-0.3,-0.7,-0.5,-1.1,-0.5l-8.3,0l0,15.5l8.3,0c0.4,0,0.8,-0.1,1.1,-0.5l2,-1.9c0.3,-0.3,0.4,-0.7,0.4,-1.1l0,-8.4c0,-0.5,-0.1,-0.9,-0.4,-1.2Z" class="g2_4" />
<path d="M873.3,116.1l-2.9,0l0,-3l2.9,0l0,3Zm-6,-3.5c0,0.4,-0.2,0.8,-0.5,1.1l-1.9,1.9c-0.3,0.4,-0.7,0.5,-1.2,0.5l-6.1,0c-0.4,0,-0.8,-0.1,-1.1,-0.5l-1.9,-1.9c-0.4,-0.3,-0.5,-0.7,-0.5,-1.1l0,-8.4c0,-0.5,0.1,-0.9,0.5,-1.2l1.9,-1.9c0.3,-0.3,0.7,-0.5,1.1,-0.5l6.1,0c0.5,0,0.9,0.2,1.2,0.5l1.9,1.9c0.3,0.3,0.5,0.7,0.5,1.2Zm-16.6,0c0,0.4,-0.1,0.8,-0.4,1.1l-2,1.9c-0.3,0.4,-0.7,0.5,-1.1,0.5l-8.3,0l0,-15.5l8.3,0c0.4,0,0.8,0.2,1.1,0.5l2,1.9c0.3,0.3,0.4,0.7,0.4,1.2Zm-16,7.1l41.7,0l0,-22.6l-41.7,0l0,22.6Z" class="g4_4" />
<path d="M846.9,103.4c-0.1,-0.1,-0.2,-0.1,-0.3,-0.1l-4.9,0l0,10.2l4.9,0c0.1,0,0.2,-0.1,0.3,-0.2l0.9,-0.9c0.1,-0.1,0.2,-0.2,0.2,-0.3l0,-7.5c0,-0.1,-0.1,-0.2,-0.2,-0.3Z" class="g5_4" />
<path d="M863.4,103.4c-0.1,-0.1,-0.2,-0.1,-0.3,-0.1l-4.9,0c-0.1,0,-0.2,0,-0.3,0.1l-0.9,0.9c-0.1,0.1,-0.1,0.2,-0.1,0.3l0,7.5c0,0.1,0,0.2,0.1,0.3l0.9,0.9c0.1,0.1,0.2,0.2,0.3,0.2l4.9,0c0.1,0,0.2,-0.1,0.3,-0.2l0.9,-0.9c0.1,-0.1,0.2,-0.2,0.2,-0.3l0,-7.5c0,-0.1,-0.1,-0.2,-0.2,-0.3Z" class="g5_4" />
<path d="M868.6,64.1L864,58.2C863.9,58.1,863.7,58,863.6,58l-1.7,0l0,6.1l-2.8,0l0,-15.5l8.7,0c0.4,0,0.8,0.2,1.1,0.5l1.5,1.5c0.3,0.3,0.5,0.7,0.5,1.2l0,3.1c0,0.4,-0.2,0.8,-0.5,1.1l-1.5,1.6c-0.3,0.3,-0.7,0.4,-1.1,0.4l-0.6,0l4.8,6.1ZM856,60.6c0,0.4,-0.1,0.8,-0.5,1.1l-1.9,2c-0.3,0.3,-0.7,0.4,-1.1,0.4l-6.1,0c-0.3,0,-0.6,-0.1,-0.9,-0.2c-0.1,-0.1,-0.2,-0.1,-0.3,-0.2l-1.9,-2c-0.2,-0.1,-0.3,-0.4,-0.4,-0.6c0,-0.2,-0.1,-0.3,-0.1,-0.5l0,-8.4c0,-0.2,0.1,-0.3,0.1,-0.5c0.1,-0.2,0.2,-0.5,0.4,-0.7l1.9,-1.9c0.2,-0.1,0.3,-0.2,0.5,-0.3c0.2,-0.1,0.5,-0.2,0.7,-0.2l6.1,0c0.2,0,0.4,0.1,0.6,0.1c0.2,0.1,0.4,0.2,0.5,0.4l1.9,1.9c0.4,0.3,0.5,0.7,0.5,1.2ZM840.2,51.3l-7.7,0l0,3.7l7.7,0l0,2.7l-7.7,0l0,6.4l-2.7,0l0,-15.5l10.4,0ZM825.4,67.7l51,0l0,-22.6l-51,0l0,22.6Z" class="g3_4" />
<path d="M840,51l0,-3l-11,0l0,16l3,0l0,-7l8,0l0,-2l-8,0l0,-4Z" class="g2_4" />
<path d="M853.2,60.1l0,0c0,0.1,0,0.3,-0.1,0.4l-0.9,0.9c-0.1,0.1,-0.2,0.1,-0.3,0.1l-4.9,0c-0.1,0,-0.2,0,-0.3,-0.1l-0.9,-0.9c-0.1,-0.1,-0.2,-0.3,-0.2,-0.4l0,-7.4c0,-0.1,0,-0.2,0.1,-0.2c0,-0.1,0,-0.1,0.1,-0.2l0.9,-0.9c0.1,-0.1,0.2,-0.1,0.3,-0.1l4.9,0c0.1,0,0.2,0,0.3,0.1l0.9,0.9c0.1,0.1,0.1,0.2,0.1,0.4ZM856,52.2c0,-0.5,-0.1,-0.9,-0.5,-1.2l-1.9,-1.9c-0.1,-0.1,-0.3,-0.2,-0.4,-0.3c-0.3,-0.1,-0.5,-0.2,-0.7,-0.2l-6.1,0c-0.2,0,-0.4,0.1,-0.6,0.1c0,0.1,-0.1,0.1,-0.1,0.1c-0.2,0.1,-0.3,0.2,-0.5,0.3L843.3,51c-0.3,0.3,-0.5,0.7,-0.5,1.2l0,8.4c0,0.4,0.2,0.8,0.5,1.1l1.9,2c0.1,0,0.2,0.1,0.3,0.1c0.1,0.1,0.2,0.2,0.3,0.2c0.2,0.1,0.4,0.1,0.6,0.1l6.1,0c0.2,0,0.4,0,0.7,-0.1c0.1,-0.1,0.3,-0.2,0.4,-0.3l1.9,-2C855.9,61.4,856,61,856,60.6Z" class="g2_4" />
<path d="M861.9,55.4l0,-4.1l5.2,0c0.2,0,0.2,0,0.3,0.1l0.6,0.5c0,0.1,0.1,0.2,0.1,0.4l0,2.1c0,0.1,-0.1,0.2,-0.1,0.3l-0.6,0.5c-0.1,0.1,-0.1,0.2,-0.3,0.2Zm5.8,2.6c0.5,0,0.9,-0.1,1.2,-0.4L870.4,56c0.3,-0.3,0.5,-0.7,0.5,-1.1l0,-3.1c0,-0.5,-0.2,-0.9,-0.5,-1.2l-1.5,-1.5c-0.3,-0.3,-0.7,-0.5,-1.2,-0.5l-8.6,0l0,15.5l2.8,0l0,-6.1l1.7,0c0.1,0,0.3,0.1,0.4,0.2l4.6,5.9l3.4,0L867.2,58Z" class="g2_4" />
<path d="M868,54.7c0,-0.1,0.1,-0.2,0.1,-0.3l0,-2.1C868.1,52.1,868,52,868,51.9l-0.6,-0.5c0,-0.1,-0.1,-0.1,-0.3,-0.1l-5.2,0l0,4.1l5.2,0c0.2,0,0.3,-0.1,0.3,-0.2Z" class="g3_4" />
<path d="M853.1,52.3l-0.9,-0.9c-0.1,-0.1,-0.2,-0.1,-0.3,-0.1l-4.9,0c-0.1,0,-0.2,0,-0.3,0.1l-0.9,0.9c-0.1,0.1,-0.1,0.1,-0.1,0.2c-0.1,0,-0.1,0.1,-0.1,0.1l0,7.5c0,0.1,0.1,0.3,0.2,0.3l0.9,1c0.1,0,0.2,0.1,0.3,0.1l4.9,0c0.1,0,0.2,-0.1,0.3,-0.1l0.9,-1c0.1,0,0.1,-0.2,0.1,-0.3l0,-7.4c0,-0.2,0,-0.3,-0.1,-0.4Z" class="g3_4" />
<path d="M815.5,61.1c0.5,0,1.2,0.1,1.2,-0.6c0,-0.5,-0.4,-0.6,-0.8,-0.6l-1,0l0,1.2Zm1.6,2l-0.5,0l-1,-1.6l-0.7,0l0,1.6l-0.5,0l0,-3.5l1.5,0c1,0,1.3,0.3,1.3,0.9c0,0.7,-0.5,0.9,-1.1,1Zm1.1,-1.8c0,-1.5,-1,-2.7,-2.5,-2.7c-1.5,0,-2.6,1.2,-2.6,2.7c0,1.5,1.1,2.7,2.6,2.7c1.5,0,2.5,-1.2,2.5,-2.7m-5.6,0c0,-1.7,1.4,-3.1,3.1,-3.1c1.7,0,3,1.4,3,3.1c0,1.7,-1.3,3.1,-3,3.1c-1.7,0,-3.1,-1.4,-3.1,-3.1Z" class="g6_4" />
<path d="M712.8,53.4l0,0c-1,3.1,-1,4.9,0,6.1c0.7,0.8,1.8,1.2,3.3,1.2c3.5,0,5.5,-1.8,7,-6.7c1,-3.1,1,-4.9,0.1,-6.1c-0.7,-0.8,-1.8,-1.2,-3.3,-1.2c-3.5,0,-5.5,1.9,-7.1,6.7m-13.7,7c-1.4,-1.7,-1.6,-3.8,-0.8,-6.4c2.3,-7.1,10.9,-11.1,23.5,-11.1c7.6,0,12.8,1.4,15.1,4.2c1.3,1.6,1.6,3.7,0.8,6.3c-2.3,7.1,-10.9,11.1,-23.6,11.1c-7.5,0,-12.7,-1.4,-15,-4.1" class="g6_4" />
<path d="M788.3,53.4l0,0c-1,3.1,-1,4.9,-0.1,6.1c0.7,0.8,1.8,1.2,3.3,1.2c3.5,0,5.5,-1.8,7.1,-6.7c1,-3.1,1,-4.9,0,-6.1c-0.7,-0.8,-1.8,-1.2,-3.3,-1.2c-3.5,0,-5.5,1.9,-7,6.7m-13.7,7l0,0c-1.4,-1.7,-1.7,-3.8,-0.9,-6.4C776,46.9,784.6,42.9,797.3,42.9c7.5,0,12.7,1.4,15,4.2c1.4,1.6,1.6,3.7,0.8,6.3c-2.3,7.1,-10.8,11.1,-23.5,11.1c-7.6,0,-12.8,-1.4,-15,-4.1Z" class="g6_4" />
<path d="M624.4,33.6c-0.3,0.9,-9.5,29.8,-9.7,30.3l-13.8,0c0.3,-0.9,9.5,-29.8,9.7,-30.3Z" class="g6_4" />
<path d="M778.4,43.5c-0.8,1.1,-15.5,20.1,-15.8,20.4l-20.6,0c-0.1,-0.6,-2.6,-19.6,-2.7,-20.4l12.7,0c0.1,0.6,1.8,14.3,1.8,14.3c0,0,10.9,-14,11.1,-14.3Z" class="g6_4" />
<path d="M641.7,46.1c2.4,0,3.5,0.8,4.1,1.5c0.4,0.5,0.8,1.5,0.6,2.7l-13.1,5.9L635,50.3c0.8,-2.6,3.3,-4.2,6.7,-4.2m16,6.4c0.1,-0.4,0.4,-1.2,0.4,-2.2c0,-1.5,-0.5,-2.8,-1.3,-3.8c-2,-2.4,-6.5,-3.6,-13.3,-3.6c-12.2,0,-20.6,4,-22.8,11c-0.9,2.9,-0.7,5.2,0.7,6.9c2.7,3.3,9.4,3.8,13.2,3.7c9.8,0,14.8,-1.6,15.7,-1.9c0.1,-0.2,2.2,-4.6,2.6,-5.6c-2.1,0.8,-9.4,3.9,-14.7,3.6c-2.2,-0.1,-3.5,-0.3,-4.7,-1.1c-0.8,-0.6,-0.6,-1.7,-0.6,-1.7c0,0,24.3,-5.2,24.8,-5.3Z" class="g6_4" />
<path d="M697.9,48.2c0.1,-0.8,-0.1,-1.5,-0.7,-2.1C695.4,44,689.9,42.9,680.9,42.9c-6.6,0,-13,0.8,-17.9,1.6c0,0.2,-6.5,19.1,-6.6,19.4l14,0c0,-0.2,5.8,-17.1,5.8,-17.1c4.9,-0.4,6.3,0.1,7,0.9c0.3,0.4,0.6,1,0.4,1.6l-4.9,14.6l13.9,0Z" class="g6_4" />
<path d="M868,90l3,0l-1,0l0,4l-1,0l0,-4l-1,0Z" class="g5_4" />
<path d="M875.5,94.5l0,-2.5c0,-0.1,0.1,-0.7,0.1,-1.1l-0.1,0l-1.1,3.6l-0.6,0l-1.2,-3.6c0,0.4,0,1,0,1.1l0,2.5l-0.6,0l0,-4.2l0.8,0l1.3,3.6l1.2,-3.6l0.8,0l0,4.2Z" class="g5_4" />
<path d="M33,423l223,0l0,-36L33,387l0,36Z" class="g7_4" />
<path d="M0,417.3l0,35.5L33.1,423.1l0,-35.5Z" class="g8_4" />
<path d="M33,1003l842,0l0,-575L33,428l0,575Z" class="g9_4" />
<path d="M44,440l258,0l0,23L44,463l0,-23Zm258,0l288,0l0,23l-288,0l0,-23Zm288,0l275,0l0,23l-275,0l0,-23ZM44,512l258,0l0,23L44,535l0,-23Zm258,0l288,0l0,23l-288,0l0,-23Zm288,0l275,0l0,23l-275,0l0,-23ZM44,569l258,0l0,23L44,592l0,-23Zm258,0l288,0l0,23l-288,0l0,-23Zm288,0l275,0l0,23l-275,0l0,-23ZM44,631l258,0l0,22L44,653l0,-22Zm258,0l288,0l0,22l-288,0l0,-22Zm288,0l275,0l0,22l-275,0l0,-22ZM44,746l258,0l0,23L44,769l0,-23Zm258,0l288,0l0,23l-288,0l0,-23Zm288,0l275,0l0,23l-275,0l0,-23ZM44,862l258,0l0,23L44,885l0,-23Zm258,0l288,0l0,23l-288,0l0,-23Zm288,0l275,0l0,23l-275,0l0,-23ZM44,919l258,0l0,23L44,942l0,-23Zm258,0l563,0l0,23l-563,0l0,-23Z" class="g10_4" />
<path d="M302.5,463.5l0,-23" class="g11_4" />
<path d="M590.5,463.5l0,-23" class="g11_4" />
<path d="M865.5,463.5l0,-23" class="g11_4" />
<path d="M302.5,535.5l0,-23" class="g11_4" />
<path d="M590.5,535.5l0,-23" class="g11_4" />
<path d="M865.5,535.5l0,-23" class="g11_4" />
<path d="M302.5,569.5l0,-34" class="g11_4" />
<path d="M590.5,569.5l0,-34" class="g11_4" />
<path d="M865.5,569.5l0,-34" class="g11_4" />
<path d="M302.5,592.5l0,-23" class="g11_4" />
<path d="M590.5,592.5l0,-23" class="g11_4" />
<path d="M865.5,592.5l0,-23" class="g11_4" />
<path d="M302.5,631.5l0,-39" class="g11_4" />
<path d="M590.5,631.5l0,-39" class="g11_4" />
<path d="M865.5,631.5l0,-39" class="g11_4" />
<path d="M590.5,653.5l0,-22" class="g11_4" />
<path d="M865.5,653.5l0,-22" class="g11_4" />
<path d="M302.5,746.5l0,-93" class="g11_4" />
<path d="M590.5,746.5l0,-93" class="g11_4" />
<path d="M865.5,746.5l0,-93" class="g11_4" />
<path d="M302.5,769.5l0,-23" class="g11_4" />
<path d="M302.5,862.5l0,-93" class="g11_4" />
<path d="M590.5,862.5l0,-93" class="g11_4" />
<path d="M865.5,862.5l0,-93" class="g11_4" />
<path d="M302.5,919.5l0,-34" class="g11_4" />
<path d="M590.5,919.5l0,-34" class="g11_4" />
<path d="M865.5,919.5l0,-34" class="g11_4" />
<path d="M302.5,512.5l0,-49" class="g11_4" />
<path d="M590.5,512.5l0,-49" class="g11_4" />
<path d="M865.5,512.5l0,-49" class="g11_4" />
<path d="M302.5,653.5l0,-22" class="g11_4" />
<path d="M590.5,769.5l0,-23" class="g11_4" />
<path d="M865.5,769.5l0,-23" class="g11_4" />
<path d="M302.5,885.5l0,-23" class="g11_4" />
<path d="M590.5,885.5l0,-23" class="g11_4" />
<path d="M865.5,885.5l0,-23" class="g11_4" />
<path d="M865.5,942.5l0,-23" class="g11_4" />
<path d="M302.5,999.5l0,-57" class="g11_4" />
<path d="M44.5,999.5l0,-57" class="g11_4" />
<path d="M590.5,999.5l0,-57" class="g11_4" />
<path d="M865.5,999.5l0,-57" class="g11_4" />
<path d="M302.5,942.5l0,-23" class="g11_4" />
<path d="M0,1224.9l0,61.3l628.9,0l-60.7,-61.3Z" class="g12_4" />
<path d="M0,1216.8l0,69.4l620.6,0l-68.7,-69.4Z" class="g13_4" />
<image x="33" y="107" width="332" height="259" xlink:href="img/1.png" />
</svg>