<?xml version="1.0" encoding="UTF-8" standalone="no"?>
<!DOCTYPE svg PUBLIC "-//W3C//DTD SVG 1.1//EN"
"http://www.w3.org/Graphics/SVG/1.1/DTD/svg11.dtd">
<svg version="1.1" xmlns="http://www.w3.org/2000/svg" xmlns:xlink="http://www.w3.org/1999/xlink">
<defs>
<clipPath id="c0_20"><path d="M721.5,389.5l0,-40l92,0l0,40Z" /></clipPath>
<style type="text/css"><![CDATA[
.g1_20{
fill: none;
stroke: #000000;
stroke-width: 1;
stroke-linecap: butt;
stroke-linejoin: miter;
}
.g2_20{
fill: none;
stroke: #0066FF;
stroke-width: 1;
stroke-linecap: butt;
stroke-linejoin: miter;
}
.g3_20{
fill: #DFDFDF;
}
]]></style>
</defs>
<path d="M122.5,1029.5l705,0" class="g1_20" />
<path d="M542.5,147.5l106,0" class="g2_20" />
<path fill-rule="evenodd" d="M126,365l132,0l0,-18l-132,0l0,18Z" class="g3_20" />
<path fill-rule="evenodd" d="M126,389l11,0l0,-24l-11,0l0,24Z" class="g3_20" />
<path fill-rule="evenodd" d="M248,389l10,0l0,-24l-10,0l0,24Z" class="g3_20" />
<path fill-rule="evenodd" d="M126,391l132,0l0,-2l-132,0l0,2Z" class="g3_20" />
<path fill-rule="evenodd" d="M137,389l111,0l0,-24l-111,0l0,24Z" class="g3_20" />
<path fill-rule="evenodd" d="M259,365l461,0l0,-18l-461,0l0,18Z" class="g3_20" />
<path fill-rule="evenodd" d="M259,389l11,0l0,-24l-11,0l0,24Z" class="g3_20" />
<path fill-rule="evenodd" d="M709,389l11,0l0,-24l-11,0l0,24Z" class="g3_20" />
<path fill-rule="evenodd" d="M259,391l461,0l0,-2l-461,0l0,2Z" class="g3_20" />
<path fill-rule="evenodd" d="M270,389l439,0l0,-24l-439,0l0,24Z" class="g3_20" />
<path fill-rule="evenodd" d="M721,349l92,0l0,-2l-92,0l0,2Z" class="g3_20" />
<path fill-rule="evenodd" d="M721,389l10,0l0,-40l-10,0l0,40Z" class="g3_20" />
<path fill-rule="evenodd" d="M803,389l10,0l0,-40l-10,0l0,40Z" class="g3_20" />
<path fill-rule="evenodd" d="M721,391l92,0l0,-2l-92,0l0,2Z" class="g3_20" />
<g clip-path="url(#c0_20)">
<path fill-rule="evenodd" d="M731,369l72,0l0,-20l-72,0l0,20Z" class="g3_20" />
</g>
<path fill-rule="evenodd" d="M731,389l72,0l0,-20l-72,0l0,20Z" class="g3_20" />
<path d="M126.5,349.5l0,-3" class="g1_20" />
<path d="M126.5,347.5l0,-1" class="g1_20" />
<path d="M126.5,347.5l132,0" class="g1_20" />
<path fill-rule="evenodd" d="M126,349l132,0l0,-2l-132,0l0,2Z" class="g3_20" />
<path d="M258.5,349.5l0,-2" class="g1_20" />
<path d="M258.5,347.5l0,-1" class="g1_20" />
<path d="M259.5,347.5l461,0" class="g1_20" />
<path fill-rule="evenodd" d="M259,349l461,0l0,-2l-461,0l0,2Z" class="g3_20" />
<path d="M720.5,349.5l0,-2" class="g1_20" />
<path d="M720.5,347.5l0,-1" class="g1_20" />
<path d="M721.5,347.5l92,0" class="g1_20" />
<path fill-rule="evenodd" d="M721,349l92,0l0,-2l-92,0l0,2Z" class="g3_20" />
<path d="M813.5,349.5l0,-3" class="g1_20" />
<path d="M813.5,347.5l0,-1" class="g1_20" />
<path fill-rule="evenodd" d="M126,391l133,0l0,-2l-133,0l0,2Z" class="g3_20" />
<path d="M126.5,391.5l0,-42" class="g1_20" />
<path fill-rule="evenodd" d="M259,391l461,0l0,-2l-461,0l0,2Z" class="g3_20" />
<path d="M258.5,391.5l0,-42" class="g1_20" />
<path fill-rule="evenodd" d="M720,391l94,0l0,-2l-94,0l0,2Z" class="g3_20" />
<path d="M720.5,391.5l0,-42" class="g1_20" />
<path d="M813.5,391.5l0,-42" class="g1_20" />
<path d="M731.5,413.5l30,0" class="g2_20" />
<path d="M731.5,428.5l66,0" class="g2_20" />
<path d="M126.5,394.5l0,-3" class="g1_20" />
<path d="M126.5,392.5l132,0" class="g1_20" />
<path d="M258.5,394.5l0,-3" class="g1_20" />
<path d="M259.5,392.5l461,0" class="g1_20" />
<path d="M720.5,394.5l0,-3" class="g1_20" />
<path d="M721.5,392.5l92,0" class="g1_20" />
<path d="M813.5,394.5l0,-3" class="g1_20" />
<path d="M126.5,435.5l0,-41" class="g1_20" />
<path d="M258.5,435.5l0,-41" class="g1_20" />
<path d="M720.5,435.5l0,-41" class="g1_20" />
<path d="M813.5,435.5l0,-41" class="g1_20" />
<path d="M593.5,472.5l88,0" class="g2_20" />
<path d="M447.5,502.5l69,0" class="g2_20" />
<path d="M270.5,517.5l66,0" class="g2_20" />
<path d="M126.5,438.5l0,-3" class="g1_20" />
<path d="M126.5,436.5l132,0" class="g1_20" />
<path d="M258.5,438.5l0,-3" class="g1_20" />
<path d="M259.5,436.5l461,0" class="g1_20" />
<path d="M720.5,438.5l0,-3" class="g1_20" />
<path d="M721.5,436.5l92,0" class="g1_20" />
<path d="M813.5,438.5l0,-3" class="g1_20" />
<path d="M126.5,524.5l0,-86" class="g1_20" />
<path d="M258.5,524.5l0,-86" class="g1_20" />
<path d="M720.5,524.5l0,-86" class="g1_20" />
<path d="M813.5,524.5l0,-86" class="g1_20" />
<path d="M731.5,546.5l30,0" class="g2_20" />
<path d="M731.5,561.5l65,0" class="g2_20" />
<path d="M126.5,527.5l0,-3" class="g1_20" />
<path d="M126.5,525.5l132,0" class="g1_20" />
<path d="M258.5,527.5l0,-3" class="g1_20" />
<path d="M259.5,525.5l461,0" class="g1_20" />
<path d="M720.5,527.5l0,-3" class="g1_20" />
<path d="M721.5,525.5l92,0" class="g1_20" />
<path d="M813.5,527.5l0,-3" class="g1_20" />
<path d="M126.5,598.5l0,-71" class="g1_20" />
<path d="M258.5,598.5l0,-71" class="g1_20" />
<path d="M720.5,598.5l0,-71" class="g1_20" />
<path d="M813.5,598.5l0,-71" class="g1_20" />
<path d="M731.5,620.5l30,0" class="g2_20" />
<path d="M731.5,634.5l47,0" class="g2_20" />
<path d="M126.5,601.5l0,-3" class="g1_20" />
<path d="M126.5,599.5l132,0" class="g1_20" />
<path d="M258.5,601.5l0,-3" class="g1_20" />
<path d="M259.5,599.5l461,0" class="g1_20" />
<path d="M720.5,601.5l0,-3" class="g1_20" />
<path d="M721.5,599.5l92,0" class="g1_20" />
<path d="M813.5,601.5l0,-3" class="g1_20" />
<path d="M126.5,657.5l0,-56" class="g1_20" />
<path d="M126.5,658.5l0,-1" class="g1_20" />
<path d="M126.5,658.5l0,-1" class="g1_20" />
<path d="M126.5,658.5l132,0" class="g1_20" />
<path d="M258.5,657.5l0,-56" class="g1_20" />
<path d="M258.5,658.5l0,-1" class="g1_20" />
<path d="M259.5,658.5l461,0" class="g1_20" />
<path d="M720.5,657.5l0,-56" class="g1_20" />
<path d="M720.5,658.5l0,-1" class="g1_20" />
<path d="M721.5,658.5l92,0" class="g1_20" />
<path d="M813.5,657.5l0,-56" class="g1_20" />
<path d="M813.5,658.5l0,-1" class="g1_20" />
<path d="M813.5,658.5l0,-1" class="g1_20" />
</svg>