<?xml version="1.0" encoding="UTF-8" standalone="no"?>
<!DOCTYPE svg PUBLIC "-//W3C//DTD SVG 1.1//EN"
"http://www.w3.org/Graphics/SVG/1.1/DTD/svg11.dtd">
<svg version="1.1" xmlns="http://www.w3.org/2000/svg" xmlns:xlink="http://www.w3.org/1999/xlink">
<defs>
<clipPath id="c0_30"><path d="M126.5,125.5l0,-40l187,0l0,40Z" /></clipPath>
<style type="text/css"><![CDATA[
.g1_30{
fill: none;
stroke: #000000;
stroke-width: 1;
stroke-linecap: butt;
stroke-linejoin: miter;
}
.g2_30{
fill: #DFDFDF;
}
.g3_30{
fill: none;
stroke: #0066FF;
stroke-width: 1;
stroke-linecap: butt;
stroke-linejoin: miter;
}
]]></style>
</defs>
<path d="M122.5,1029.5l705,0" class="g1_30" />
<path fill-rule="evenodd" d="M126,85l187,0l0,-2L126,83l0,2Z" class="g2_30" />
<path fill-rule="evenodd" d="M126,125l11,0l0,-40l-11,0l0,40Z" class="g2_30" />
<path fill-rule="evenodd" d="M302,125l11,0l0,-40l-11,0l0,40Z" class="g2_30" />
<path fill-rule="evenodd" d="M126,127l187,0l0,-2l-187,0l0,2Z" class="g2_30" />
<g clip-path="url(#c0_30)">
<path fill-rule="evenodd" d="M137,105l165,0l0,-20L137,85l0,20Z" class="g2_30" />
</g>
<path fill-rule="evenodd" d="M137,125l165,0l0,-20l-165,0l0,20Z" class="g2_30" />
<path fill-rule="evenodd" d="M313,100l377,0l0,-17L313,83l0,17Z" class="g2_30" />
<path fill-rule="evenodd" d="M313,125l11,0l0,-25l-11,0l0,25Z" class="g2_30" />
<path fill-rule="evenodd" d="M680,125l10,0l0,-25l-10,0l0,25Z" class="g2_30" />
<path fill-rule="evenodd" d="M313,127l377,0l0,-2l-377,0l0,2Z" class="g2_30" />
<path fill-rule="evenodd" d="M324,125l356,0l0,-25l-356,0l0,25Z" class="g2_30" />
<path fill-rule="evenodd" d="M691,100l122,0l0,-17L691,83l0,17Z" class="g2_30" />
<path fill-rule="evenodd" d="M691,125l11,0l0,-25l-11,0l0,25Z" class="g2_30" />
<path fill-rule="evenodd" d="M803,125l10,0l0,-25l-10,0l0,25Z" class="g2_30" />
<path fill-rule="evenodd" d="M691,127l122,0l0,-2l-122,0l0,2Z" class="g2_30" />
<path fill-rule="evenodd" d="M702,125l101,0l0,-25l-101,0l0,25Z" class="g2_30" />
<path d="M126.5,85.5l0,-3" class="g1_30" />
<path d="M126.5,83.5l0,-1" class="g1_30" />
<path d="M126.5,83.5l187,0" class="g1_30" />
<path fill-rule="evenodd" d="M126,85l187,0l0,-2L126,83l0,2Z" class="g2_30" />
<path d="M313.5,85.5l0,-2" class="g1_30" />
<path d="M313.5,83.5l0,-1" class="g1_30" />
<path d="M313.5,83.5l378,0" class="g1_30" />
<path fill-rule="evenodd" d="M313,85l378,0l0,-2L313,83l0,2Z" class="g2_30" />
<path d="M691.5,85.5l0,-2" class="g1_30" />
<path d="M691.5,83.5l0,-1" class="g1_30" />
<path d="M691.5,83.5l122,0" class="g1_30" />
<path fill-rule="evenodd" d="M691,85l122,0l0,-2L691,83l0,2Z" class="g2_30" />
<path d="M813.5,85.5l0,-3" class="g1_30" />
<path d="M813.5,83.5l0,-1" class="g1_30" />
<path fill-rule="evenodd" d="M126,127l187,0l0,-2l-187,0l0,2Z" class="g2_30" />
<path d="M126.5,127.5l0,-42" class="g1_30" />
<path fill-rule="evenodd" d="M313,127l378,0l0,-2l-378,0l0,2Z" class="g2_30" />
<path d="M313.5,127.5l0,-42" class="g1_30" />
<path fill-rule="evenodd" d="M691,127l123,0l0,-2l-123,0l0,2Z" class="g2_30" />
<path d="M691.5,127.5l0,-42" class="g1_30" />
<path d="M813.5,127.5l0,-42" class="g1_30" />
<path d="M702.5,149.5l97,0" class="g3_30" />
<path d="M126.5,130.5l0,-3" class="g1_30" />
<path d="M126.5,128.5l187,0" class="g1_30" />
<path d="M313.5,130.5l0,-3" class="g1_30" />
<path d="M313.5,128.5l378,0" class="g1_30" />
<path d="M691.5,130.5l0,-3" class="g1_30" />
<path d="M691.5,128.5l122,0" class="g1_30" />
<path d="M813.5,130.5l0,-3" class="g1_30" />
<path d="M126.5,171.5l0,-41" class="g1_30" />
<path d="M313.5,171.5l0,-41" class="g1_30" />
<path d="M691.5,171.5l0,-41" class="g1_30" />
<path d="M813.5,171.5l0,-41" class="g1_30" />
<path d="M702.5,193.5l30,0" class="g3_30" />
<path d="M702.5,208.5l84,0" class="g3_30" />
<path d="M126.5,174.5l0,-3" class="g1_30" />
<path d="M126.5,172.5l187,0" class="g1_30" />
<path d="M313.5,174.5l0,-3" class="g1_30" />
<path d="M313.5,172.5l378,0" class="g1_30" />
<path d="M691.5,174.5l0,-3" class="g1_30" />
<path d="M691.5,172.5l122,0" class="g1_30" />
<path d="M813.5,174.5l0,-3" class="g1_30" />
<path d="M126.5,215.5l0,-41" class="g1_30" />
<path d="M313.5,215.5l0,-41" class="g1_30" />
<path d="M691.5,215.5l0,-41" class="g1_30" />
<path d="M813.5,215.5l0,-41" class="g1_30" />
<path d="M702.5,237.5l83,0" class="g3_30" />
<path d="M126.5,218.5l0,-3" class="g1_30" />
<path d="M126.5,216.5l187,0" class="g1_30" />
<path d="M313.5,218.5l0,-3" class="g1_30" />
<path d="M313.5,216.5l378,0" class="g1_30" />
<path d="M691.5,218.5l0,-3" class="g1_30" />
<path d="M691.5,216.5l122,0" class="g1_30" />
<path d="M813.5,218.5l0,-3" class="g1_30" />
<path d="M126.5,259.5l0,-41" class="g1_30" />
<path d="M313.5,259.5l0,-41" class="g1_30" />
<path d="M691.5,259.5l0,-41" class="g1_30" />
<path d="M813.5,259.5l0,-41" class="g1_30" />
<path d="M702.5,281.5l91,0" class="g3_30" />
<path d="M126.5,262.5l0,-3" class="g1_30" />
<path d="M126.5,260.5l187,0" class="g1_30" />
<path d="M313.5,262.5l0,-3" class="g1_30" />
<path d="M313.5,260.5l378,0" class="g1_30" />
<path d="M691.5,262.5l0,-3" class="g1_30" />
<path d="M691.5,260.5l122,0" class="g1_30" />
<path d="M813.5,262.5l0,-3" class="g1_30" />
<path d="M126.5,318.5l0,-56" class="g1_30" />
<path d="M313.5,318.5l0,-56" class="g1_30" />
<path d="M691.5,318.5l0,-56" class="g1_30" />
<path d="M813.5,318.5l0,-56" class="g1_30" />
<path d="M702.5,340.5l93,0" class="g3_30" />
<path d="M126.5,321.5l0,-3" class="g1_30" />
<path d="M126.5,319.5l187,0" class="g1_30" />
<path d="M313.5,321.5l0,-3" class="g1_30" />
<path d="M313.5,319.5l378,0" class="g1_30" />
<path d="M691.5,321.5l0,-3" class="g1_30" />
<path d="M691.5,319.5l122,0" class="g1_30" />
<path d="M813.5,321.5l0,-3" class="g1_30" />
<path d="M126.5,377.5l0,-56" class="g1_30" />
<path d="M313.5,377.5l0,-56" class="g1_30" />
<path d="M691.5,377.5l0,-56" class="g1_30" />
<path d="M813.5,377.5l0,-56" class="g1_30" />
<path d="M702.5,399.5l91,0" class="g3_30" />
<path d="M126.5,380.5l0,-3" class="g1_30" />
<path d="M126.5,378.5l187,0" class="g1_30" />
<path d="M313.5,380.5l0,-3" class="g1_30" />
<path d="M313.5,378.5l378,0" class="g1_30" />
<path d="M691.5,380.5l0,-3" class="g1_30" />
<path d="M691.5,378.5l122,0" class="g1_30" />
<path d="M813.5,380.5l0,-3" class="g1_30" />
<path d="M126.5,421.5l0,-41" class="g1_30" />
<path d="M313.5,421.5l0,-41" class="g1_30" />
<path d="M691.5,421.5l0,-41" class="g1_30" />
<path d="M813.5,421.5l0,-41" class="g1_30" />
<path d="M702.5,443.5l30,0" class="g3_30" />
<path d="M702.5,458.5l84,0" class="g3_30" />
<path d="M126.5,424.5l0,-3" class="g1_30" />
<path d="M126.5,422.5l187,0" class="g1_30" />
<path d="M313.5,424.5l0,-3" class="g1_30" />
<path d="M313.5,422.5l378,0" class="g1_30" />
<path d="M691.5,424.5l0,-3" class="g1_30" />
<path d="M691.5,422.5l122,0" class="g1_30" />
<path d="M813.5,424.5l0,-3" class="g1_30" />
<path d="M126.5,480.5l0,-56" class="g1_30" />
<path d="M313.5,480.5l0,-56" class="g1_30" />
<path d="M691.5,480.5l0,-56" class="g1_30" />
<path d="M813.5,480.5l0,-56" class="g1_30" />
<path d="M702.5,502.5l97,0" class="g3_30" />
<path d="M126.5,483.5l0,-3" class="g1_30" />
<path d="M126.5,481.5l187,0" class="g1_30" />
<path d="M313.5,483.5l0,-3" class="g1_30" />
<path d="M313.5,481.5l378,0" class="g1_30" />
<path d="M691.5,483.5l0,-3" class="g1_30" />
<path d="M691.5,481.5l122,0" class="g1_30" />
<path d="M813.5,483.5l0,-3" class="g1_30" />
<path d="M126.5,524.5l0,-41" class="g1_30" />
<path d="M313.5,524.5l0,-41" class="g1_30" />
<path d="M691.5,524.5l0,-41" class="g1_30" />
<path d="M813.5,524.5l0,-41" class="g1_30" />
<path d="M702.5,546.5l30,0" class="g3_30" />
<path d="M702.5,561.5l83,0" class="g3_30" />
<path d="M126.5,527.5l0,-3" class="g1_30" />
<path d="M126.5,525.5l187,0" class="g1_30" />
<path d="M313.5,527.5l0,-3" class="g1_30" />
<path d="M313.5,525.5l378,0" class="g1_30" />
<path d="M691.5,527.5l0,-3" class="g1_30" />
<path d="M691.5,525.5l122,0" class="g1_30" />
<path d="M813.5,527.5l0,-3" class="g1_30" />
<path d="M126.5,568.5l0,-41" class="g1_30" />
<path d="M313.5,568.5l0,-41" class="g1_30" />
<path d="M691.5,568.5l0,-41" class="g1_30" />
<path d="M813.5,568.5l0,-41" class="g1_30" />
<path d="M702.5,590.5l30,0" class="g3_30" />
<path d="M702.5,605.5l75,0" class="g3_30" />
<path d="M126.5,571.5l0,-3" class="g1_30" />
<path d="M126.5,569.5l187,0" class="g1_30" />
<path d="M313.5,571.5l0,-3" class="g1_30" />
<path d="M313.5,569.5l378,0" class="g1_30" />
<path d="M691.5,571.5l0,-3" class="g1_30" />
<path d="M691.5,569.5l122,0" class="g1_30" />
<path d="M813.5,571.5l0,-3" class="g1_30" />
<path d="M126.5,612.5l0,-41" class="g1_30" />
<path d="M313.5,612.5l0,-41" class="g1_30" />
<path d="M691.5,612.5l0,-41" class="g1_30" />
<path d="M813.5,612.5l0,-41" class="g1_30" />
<path d="M702.5,634.5l30,0" class="g3_30" />
<path d="M702.5,649.5l86,0" class="g3_30" />
<path d="M126.5,615.5l0,-3" class="g1_30" />
<path d="M126.5,613.5l187,0" class="g1_30" />
<path d="M313.5,615.5l0,-3" class="g1_30" />
<path d="M313.5,613.5l378,0" class="g1_30" />
<path d="M691.5,615.5l0,-3" class="g1_30" />
<path d="M691.5,613.5l122,0" class="g1_30" />
<path d="M813.5,615.5l0,-3" class="g1_30" />
<path d="M126.5,656.5l0,-41" class="g1_30" />
<path d="M313.5,656.5l0,-41" class="g1_30" />
<path d="M691.5,656.5l0,-41" class="g1_30" />
<path d="M813.5,656.5l0,-41" class="g1_30" />
<path d="M702.5,678.5l30,0" class="g3_30" />
<path d="M702.5,693.5l79,0" class="g3_30" />
<path d="M126.5,659.5l0,-3" class="g1_30" />
<path d="M126.5,657.5l187,0" class="g1_30" />
<path d="M313.5,659.5l0,-3" class="g1_30" />
<path d="M313.5,657.5l378,0" class="g1_30" />
<path d="M691.5,659.5l0,-3" class="g1_30" />
<path d="M691.5,657.5l122,0" class="g1_30" />
<path d="M813.5,659.5l0,-3" class="g1_30" />
<path d="M126.5,700.5l0,-41" class="g1_30" />
<path d="M313.5,700.5l0,-41" class="g1_30" />
<path d="M691.5,700.5l0,-41" class="g1_30" />
<path d="M813.5,700.5l0,-41" class="g1_30" />
<path d="M702.5,722.5l30,0" class="g3_30" />
<path d="M702.5,737.5l79,0" class="g3_30" />
<path d="M126.5,703.5l0,-3" class="g1_30" />
<path d="M126.5,701.5l187,0" class="g1_30" />
<path d="M313.5,703.5l0,-3" class="g1_30" />
<path d="M313.5,701.5l378,0" class="g1_30" />
<path d="M691.5,703.5l0,-3" class="g1_30" />
<path d="M691.5,701.5l122,0" class="g1_30" />
<path d="M813.5,703.5l0,-3" class="g1_30" />
<path d="M126.5,744.5l0,-41" class="g1_30" />
<path d="M313.5,744.5l0,-41" class="g1_30" />
<path d="M691.5,744.5l0,-41" class="g1_30" />
<path d="M813.5,744.5l0,-41" class="g1_30" />
<path d="M702.5,766.5l30,0" class="g3_30" />
<path d="M702.5,781.5l78,0" class="g3_30" />
<path d="M126.5,747.5l0,-3" class="g1_30" />
<path d="M126.5,745.5l187,0" class="g1_30" />
<path d="M313.5,747.5l0,-3" class="g1_30" />
<path d="M313.5,745.5l378,0" class="g1_30" />
<path d="M691.5,747.5l0,-3" class="g1_30" />
<path d="M691.5,745.5l122,0" class="g1_30" />
<path d="M813.5,747.5l0,-3" class="g1_30" />
<path d="M126.5,788.5l0,-41" class="g1_30" />
<path d="M313.5,788.5l0,-41" class="g1_30" />
<path d="M691.5,788.5l0,-41" class="g1_30" />
<path d="M813.5,788.5l0,-41" class="g1_30" />
<path d="M702.5,810.5l30,0" class="g3_30" />
<path d="M702.5,825.5l83,0" class="g3_30" />
<path d="M126.5,791.5l0,-3" class="g1_30" />
<path d="M126.5,789.5l187,0" class="g1_30" />
<path d="M313.5,791.5l0,-3" class="g1_30" />
<path d="M313.5,789.5l378,0" class="g1_30" />
<path d="M691.5,791.5l0,-3" class="g1_30" />
<path d="M691.5,789.5l122,0" class="g1_30" />
<path d="M813.5,791.5l0,-3" class="g1_30" />
<path d="M126.5,848.5l0,-57" class="g1_30" />
<path d="M313.5,848.5l0,-57" class="g1_30" />
<path d="M691.5,848.5l0,-57" class="g1_30" />
<path d="M813.5,848.5l0,-57" class="g1_30" />
<path d="M702.5,869.5l30,0" class="g3_30" />
<path d="M702.5,884.5l80,0" class="g3_30" />
<path d="M126.5,850.5l0,-2" class="g1_30" />
<path d="M126.5,848.5l187,0" class="g1_30" />
<path d="M313.5,850.5l0,-2" class="g1_30" />
<path d="M313.5,848.5l378,0" class="g1_30" />
<path d="M691.5,850.5l0,-2" class="g1_30" />
<path d="M691.5,848.5l122,0" class="g1_30" />
<path d="M813.5,850.5l0,-2" class="g1_30" />
<path d="M126.5,906.5l0,-56" class="g1_30" />
<path d="M313.5,906.5l0,-56" class="g1_30" />
<path d="M691.5,906.5l0,-56" class="g1_30" />
<path d="M813.5,906.5l0,-56" class="g1_30" />
<path d="M702.5,928.5l30,0" class="g3_30" />
<path d="M702.5,943.5l81,0" class="g3_30" />
<path d="M126.5,909.5l0,-3" class="g1_30" />
<path d="M126.5,907.5l187,0" class="g1_30" />
<path d="M313.5,909.5l0,-3" class="g1_30" />
<path d="M313.5,907.5l378,0" class="g1_30" />
<path d="M691.5,909.5l0,-3" class="g1_30" />
<path d="M691.5,907.5l122,0" class="g1_30" />
<path d="M813.5,909.5l0,-3" class="g1_30" />
<path d="M126.5,980.5l0,-71" class="g1_30" />
<path d="M126.5,981.5l0,-1" class="g1_30" />
<path d="M126.5,981.5l0,-1" class="g1_30" />
<path d="M126.5,981.5l187,0" class="g1_30" />
<path d="M313.5,980.5l0,-71" class="g1_30" />
<path d="M313.5,981.5l0,-1" class="g1_30" />
<path d="M313.5,981.5l378,0" class="g1_30" />
<path d="M691.5,980.5l0,-71" class="g1_30" />
<path d="M691.5,981.5l0,-1" class="g1_30" />
<path d="M691.5,981.5l122,0" class="g1_30" />
<path d="M813.5,980.5l0,-71" class="g1_30" />
<path d="M813.5,981.5l0,-1" class="g1_30" />
<path d="M813.5,981.5l0,-1" class="g1_30" />
</svg>