<?xml version="1.0" encoding="UTF-8" standalone="no"?>
<!DOCTYPE svg PUBLIC "-//W3C//DTD SVG 1.1//EN"
"http://www.w3.org/Graphics/SVG/1.1/DTD/svg11.dtd">
<svg version="1.1" xmlns="http://www.w3.org/2000/svg" xmlns:xlink="http://www.w3.org/1999/xlink">
<defs>
<clipPath id="c0_3"><path d="M0.5,1286.5L0.5,0.5l909,0l0,1286Z" /></clipPath>
<style type="text/css"><![CDATA[
.g4_3{
fill: #3A70C5;
}
.g1_3{
fill: #6EABC6;
}
.g2_3{
fill: none;
stroke: #000000;
stroke-width: 1;
stroke-linecap: butt;
stroke-linejoin: miter;
}
.g3_3{
fill: none;
stroke: #6EABC6;
stroke-width: 1;
stroke-linecap: butt;
stroke-linejoin: miter;
}
]]></style>
</defs>
<path d="M65,0L908,0l0,65L65,65Z" class="g1_3" />
<path d="M73,0L908,0l0,65L73,65Z" class="g1_3" />
<path d="M64.5,65.5l0,-65" class="g2_3" />
<g clip-path="url(#c0_3)">
<path d="M-8.5,66.5l73,0" class="g2_3" />
</g>
<path d="M64.5,66.5l0,-1" class="g2_3" />
<path d="M64.5,686.5l0,-620" class="g2_3" />
<path d="M65,687l843,0l0,65L65,752Z" class="g1_3" />
<path d="M73,687l835,0l0,65L73,752Z" class="g1_3" />
<g clip-path="url(#c0_3)">
<path d="M-8.5,687.5l73,0" class="g2_3" />
</g>
<path d="M64.5,687.5l0,-1" class="g2_3" />
<path d="M65.5,687.5l805,0" class="g3_3" />
<g clip-path="url(#c0_3)">
<path d="M870.5,687.5l47,0" class="g3_3" />
</g>
<path d="M64.5,752.5l0,-65" class="g2_3" />
<path d="M760,848l25,0l0,22l-25,0Z" class="g4_3" />
<path d="M139,868l30,0l0,22l-30,0Z" class="g4_3" />
<path d="M134,1021l29,0l0,22l-29,0Z" class="g4_3" />
<path d="M666,1021l30,0l0,22l-30,0Z" class="g4_3" />
<g clip-path="url(#c0_3)">
<path d="M-8.5,753.5l73,0" class="g2_3" />
</g>
<path d="M64.5,753.5l0,-1" class="g2_3" />
<path d="M64.5,1282.5l0,-529" class="g2_3" />
<image x="100" y="121" width="738" height="480" xlink:href="img/1.png" />
</svg>