<?xml version="1.0" encoding="UTF-8" standalone="no"?>
<!DOCTYPE svg PUBLIC "-//W3C//DTD SVG 1.1//EN"
"http://www.w3.org/Graphics/SVG/1.1/DTD/svg11.dtd">
<svg version="1.1" xmlns="http://www.w3.org/2000/svg" xmlns:xlink="http://www.w3.org/1999/xlink">
<defs>
<style type="text/css"><![CDATA[
.g1_16{
fill: none;
stroke: #000000;
stroke-width: 1;
stroke-linecap: butt;
stroke-linejoin: miter;
}
.g2_16{
fill: none;
stroke: #0066FF;
stroke-width: 1;
stroke-linecap: butt;
stroke-linejoin: miter;
}
]]></style>
</defs>
<path d="M122.5,1029.5l705,0" class="g1_16" />
<path d="M410.5,98.5l368,0" class="g2_16" />
<path d="M124.5,115.5l188,0" class="g2_16" />
<path d="M401.5,145.5l368,0" class="g2_16" />
<path d="M124.5,162.5l178,0" class="g2_16" />
<path d="M423.5,192.5l369,0" class="g2_16" />
<path d="M124.5,209.5l150,0" class="g2_16" />
<path d="M453.5,240.5l369,0" class="g2_16" />
<path d="M124.5,256.5l259,0" class="g2_16" />
<path d="M404.5,287.5l368,0" class="g2_16" />
<path d="M124.5,303.5l272,0" class="g2_16" />
<path d="M124.5,351.5l243,0" class="g2_16" />
<path d="M169.5,398.5l284,0" class="g2_16" />
<path d="M124.5,445.5l285,0" class="g2_16" />
<path d="M124.5,509.5l204,0" class="g2_16" />
<path d="M423.5,556.5l204,0" class="g2_16" />
<path d="M462.5,603.5l243,0" class="g2_16" />
<path d="M260.5,650.5l285,0" class="g2_16" />
<path d="M507.5,698.5l285,0" class="g2_16" />
<path d="M385.5,761.5l243,0" class="g2_16" />
<path d="M440.5,809.5l285,0" class="g2_16" />
<path d="M541.5,856.5l243,0" class="g2_16" />
<path d="M124.5,903.5l243,0" class="g2_16" />
<path d="M124.5,950.5l243,0" class="g2_16" />
<path d="M124.5,997.5l243,0" class="g2_16" />
</svg>