<?xml version="1.0" encoding="UTF-8" standalone="no"?>
<!DOCTYPE svg PUBLIC "-//W3C//DTD SVG 1.1//EN"
"http://www.w3.org/Graphics/SVG/1.1/DTD/svg11.dtd">
<svg version="1.1" xmlns="http://www.w3.org/2000/svg" xmlns:xlink="http://www.w3.org/1999/xlink">
<defs>
<clipPath id="c0_28"><path d="M734.5,241.5l0,-40l79,0l0,40Z" /></clipPath>
<clipPath id="c1_28"><path d="M126.5,444.5l0,-40l144,0l0,40Z" /></clipPath>
<clipPath id="c2_28"><path d="M716.5,444.5l0,-40l97,0l0,40Z" /></clipPath>
<clipPath id="c3_28"><path d="M126.5,734.5l0,-25l192,0l0,25Z" /></clipPath>
<clipPath id="c4_28"><path d="M318.5,734.5l0,-25l377,0l0,25Z" /></clipPath>
<clipPath id="c5_28"><path d="M696.5,734.5l0,-25l117,0l0,25Z" /></clipPath>
<clipPath id="c6_28"><path d="M126.5,970.5l0,-25l221,0l0,25Z" /></clipPath>
<clipPath id="c7_28"><path d="M348.5,970.5l0,-25l324,0l0,25Z" /></clipPath>
<clipPath id="c8_28"><path d="M672.5,970.5l0,-25l141,0l0,25Z" /></clipPath>
<style type="text/css"><![CDATA[
.g1_28{
fill: none;
stroke: #000000;
stroke-width: 1;
stroke-linecap: butt;
stroke-linejoin: miter;
}
.g2_28{
fill: #DFDFDF;
}
.g3_28{
fill: none;
stroke: #0066FF;
stroke-width: 1;
stroke-linecap: butt;
stroke-linejoin: miter;
}
]]></style>
</defs>
<path d="M122.5,1029.5l705,0" class="g1_28" />
<path fill-rule="evenodd" d="M126,217l142,0l0,-18l-142,0l0,18Z" class="g2_28" />
<path fill-rule="evenodd" d="M126,241l11,0l0,-24l-11,0l0,24Z" class="g2_28" />
<path fill-rule="evenodd" d="M258,241l10,0l0,-24l-10,0l0,24Z" class="g2_28" />
<path fill-rule="evenodd" d="M126,243l142,0l0,-2l-142,0l0,2Z" class="g2_28" />
<path fill-rule="evenodd" d="M137,241l121,0l0,-24l-121,0l0,24Z" class="g2_28" />
<path fill-rule="evenodd" d="M269,217l465,0l0,-18l-465,0l0,18Z" class="g2_28" />
<path fill-rule="evenodd" d="M269,241l11,0l0,-24l-11,0l0,24Z" class="g2_28" />
<path fill-rule="evenodd" d="M723,241l11,0l0,-24l-11,0l0,24Z" class="g2_28" />
<path fill-rule="evenodd" d="M269,243l465,0l0,-2l-465,0l0,2Z" class="g2_28" />
<path fill-rule="evenodd" d="M280,241l443,0l0,-24l-443,0l0,24Z" class="g2_28" />
<path fill-rule="evenodd" d="M734,201l79,0l0,-2l-79,0l0,2Z" class="g2_28" />
<path fill-rule="evenodd" d="M734,241l11,0l0,-40l-11,0l0,40Z" class="g2_28" />
<path fill-rule="evenodd" d="M803,241l10,0l0,-40l-10,0l0,40Z" class="g2_28" />
<path fill-rule="evenodd" d="M734,243l79,0l0,-2l-79,0l0,2Z" class="g2_28" />
<g clip-path="url(#c0_28)">
<path fill-rule="evenodd" d="M745,221l58,0l0,-20l-58,0l0,20Z" class="g2_28" />
</g>
<path fill-rule="evenodd" d="M745,241l58,0l0,-20l-58,0l0,20Z" class="g2_28" />
<path d="M126.5,201.5l0,-3" class="g1_28" />
<path d="M126.5,199.5l0,-1" class="g1_28" />
<path d="M126.5,199.5l142,0" class="g1_28" />
<path fill-rule="evenodd" d="M126,201l142,0l0,-2l-142,0l0,2Z" class="g2_28" />
<path d="M268.5,201.5l0,-2" class="g1_28" />
<path d="M268.5,199.5l0,-1" class="g1_28" />
<path d="M269.5,199.5l465,0" class="g1_28" />
<path fill-rule="evenodd" d="M269,201l465,0l0,-2l-465,0l0,2Z" class="g2_28" />
<path d="M734.5,201.5l0,-2" class="g1_28" />
<path d="M734.5,199.5l0,-1" class="g1_28" />
<path d="M734.5,199.5l79,0" class="g1_28" />
<path fill-rule="evenodd" d="M734,201l79,0l0,-2l-79,0l0,2Z" class="g2_28" />
<path d="M813.5,201.5l0,-3" class="g1_28" />
<path d="M813.5,199.5l0,-1" class="g1_28" />
<path fill-rule="evenodd" d="M126,243l143,0l0,-2l-143,0l0,2Z" class="g2_28" />
<path d="M126.5,243.5l0,-42" class="g1_28" />
<path fill-rule="evenodd" d="M269,243l465,0l0,-2l-465,0l0,2Z" class="g2_28" />
<path d="M268.5,243.5l0,-42" class="g1_28" />
<path fill-rule="evenodd" d="M734,243l80,0l0,-2l-80,0l0,2Z" class="g2_28" />
<path d="M734.5,243.5l0,-42" class="g1_28" />
<path d="M813.5,243.5l0,-42" class="g1_28" />
<path d="M496.5,265.5l66,0" class="g3_28" />
<path d="M594.5,265.5l66,0" class="g3_28" />
<path d="M745.5,265.5l30,0" class="g3_28" />
<path d="M745.5,280.5l44,0" class="g3_28" />
<path d="M126.5,246.5l0,-3" class="g1_28" />
<path d="M126.5,244.5l142,0" class="g1_28" />
<path d="M268.5,246.5l0,-3" class="g1_28" />
<path d="M269.5,244.5l465,0" class="g1_28" />
<path d="M734.5,246.5l0,-3" class="g1_28" />
<path d="M734.5,244.5l79,0" class="g1_28" />
<path d="M813.5,246.5l0,-3" class="g1_28" />
<path d="M126.5,302.5l0,-56" class="g1_28" />
<path d="M126.5,303.5l0,-1" class="g1_28" />
<path d="M126.5,303.5l0,-1" class="g1_28" />
<path d="M126.5,303.5l142,0" class="g1_28" />
<path d="M268.5,302.5l0,-56" class="g1_28" />
<path d="M268.5,303.5l0,-1" class="g1_28" />
<path d="M269.5,303.5l465,0" class="g1_28" />
<path d="M734.5,302.5l0,-56" class="g1_28" />
<path d="M734.5,303.5l0,-1" class="g1_28" />
<path d="M734.5,303.5l79,0" class="g1_28" />
<path d="M813.5,302.5l0,-56" class="g1_28" />
<path d="M813.5,303.5l0,-1" class="g1_28" />
<path d="M813.5,303.5l0,-1" class="g1_28" />
<path fill-rule="evenodd" d="M126,404l144,0l0,-2l-144,0l0,2Z" class="g2_28" />
<path fill-rule="evenodd" d="M126,444l11,0l0,-40l-11,0l0,40Z" class="g2_28" />
<path fill-rule="evenodd" d="M259,444l11,0l0,-40l-11,0l0,40Z" class="g2_28" />
<path fill-rule="evenodd" d="M126,446l144,0l0,-2l-144,0l0,2Z" class="g2_28" />
<g clip-path="url(#c1_28)">
<path fill-rule="evenodd" d="M137,424l122,0l0,-20l-122,0l0,20Z" class="g2_28" />
</g>
<path fill-rule="evenodd" d="M137,444l122,0l0,-20l-122,0l0,20Z" class="g2_28" />
<path fill-rule="evenodd" d="M271,419l445,0l0,-17l-445,0l0,17Z" class="g2_28" />
<path fill-rule="evenodd" d="M271,444l10,0l0,-25l-10,0l0,25Z" class="g2_28" />
<path fill-rule="evenodd" d="M705,444l11,0l0,-25l-11,0l0,25Z" class="g2_28" />
<path fill-rule="evenodd" d="M271,446l445,0l0,-2l-445,0l0,2Z" class="g2_28" />
<path fill-rule="evenodd" d="M281,444l424,0l0,-25l-424,0l0,25Z" class="g2_28" />
<path fill-rule="evenodd" d="M716,404l97,0l0,-2l-97,0l0,2Z" class="g2_28" />
<path fill-rule="evenodd" d="M716,444l11,0l0,-40l-11,0l0,40Z" class="g2_28" />
<path fill-rule="evenodd" d="M803,444l10,0l0,-40l-10,0l0,40Z" class="g2_28" />
<path fill-rule="evenodd" d="M716,446l97,0l0,-2l-97,0l0,2Z" class="g2_28" />
<g clip-path="url(#c2_28)">
<path fill-rule="evenodd" d="M727,424l76,0l0,-20l-76,0l0,20Z" class="g2_28" />
</g>
<path fill-rule="evenodd" d="M727,444l76,0l0,-20l-76,0l0,20Z" class="g2_28" />
<path d="M126.5,404.5l0,-3" class="g1_28" />
<path d="M126.5,402.5l0,-1" class="g1_28" />
<path d="M126.5,402.5l144,0" class="g1_28" />
<path fill-rule="evenodd" d="M126,404l144,0l0,-2l-144,0l0,2Z" class="g2_28" />
<path d="M270.5,404.5l0,-2" class="g1_28" />
<path d="M270.5,402.5l0,-1" class="g1_28" />
<path d="M271.5,402.5l445,0" class="g1_28" />
<path fill-rule="evenodd" d="M271,404l445,0l0,-2l-445,0l0,2Z" class="g2_28" />
<path d="M716.5,404.5l0,-2" class="g1_28" />
<path d="M716.5,402.5l0,-1" class="g1_28" />
<path d="M716.5,402.5l97,0" class="g1_28" />
<path fill-rule="evenodd" d="M716,404l97,0l0,-2l-97,0l0,2Z" class="g2_28" />
<path d="M813.5,404.5l0,-3" class="g1_28" />
<path d="M813.5,402.5l0,-1" class="g1_28" />
<path fill-rule="evenodd" d="M126,446l144,0l0,-2l-144,0l0,2Z" class="g2_28" />
<path d="M126.5,446.5l0,-42" class="g1_28" />
<path fill-rule="evenodd" d="M270,446l446,0l0,-2l-446,0l0,2Z" class="g2_28" />
<path d="M270.5,446.5l0,-42" class="g1_28" />
<path fill-rule="evenodd" d="M716,446l98,0l0,-2l-98,0l0,2Z" class="g2_28" />
<path d="M716.5,446.5l0,-42" class="g1_28" />
<path d="M813.5,446.5l0,-42" class="g1_28" />
<path d="M727.5,468.5l30,0" class="g3_28" />
<path d="M727.5,482.5l67,0" class="g3_28" />
<path d="M126.5,449.5l0,-3" class="g1_28" />
<path d="M126.5,447.5l144,0" class="g1_28" />
<path d="M270.5,449.5l0,-3" class="g1_28" />
<path d="M271.5,447.5l445,0" class="g1_28" />
<path d="M716.5,449.5l0,-3" class="g1_28" />
<path d="M716.5,447.5l97,0" class="g1_28" />
<path d="M813.5,449.5l0,-3" class="g1_28" />
<path d="M126.5,490.5l0,-41" class="g1_28" />
<path d="M270.5,490.5l0,-41" class="g1_28" />
<path d="M716.5,490.5l0,-41" class="g1_28" />
<path d="M813.5,490.5l0,-41" class="g1_28" />
<path d="M727.5,512.5l30,0" class="g3_28" />
<path d="M727.5,527.5l63,0" class="g3_28" />
<path d="M126.5,493.5l0,-3" class="g1_28" />
<path d="M126.5,491.5l144,0" class="g1_28" />
<path d="M270.5,493.5l0,-3" class="g1_28" />
<path d="M271.5,491.5l445,0" class="g1_28" />
<path d="M716.5,493.5l0,-3" class="g1_28" />
<path d="M716.5,491.5l97,0" class="g1_28" />
<path d="M813.5,493.5l0,-3" class="g1_28" />
<path d="M126.5,549.5l0,-56" class="g1_28" />
<path d="M270.5,549.5l0,-56" class="g1_28" />
<path d="M716.5,549.5l0,-56" class="g1_28" />
<path d="M813.5,549.5l0,-56" class="g1_28" />
<path d="M727.5,571.5l30,0" class="g3_28" />
<path d="M727.5,586.5l63,0" class="g3_28" />
<path d="M126.5,552.5l0,-3" class="g1_28" />
<path d="M126.5,550.5l144,0" class="g1_28" />
<path d="M270.5,552.5l0,-3" class="g1_28" />
<path d="M271.5,550.5l445,0" class="g1_28" />
<path d="M716.5,552.5l0,-3" class="g1_28" />
<path d="M716.5,550.5l97,0" class="g1_28" />
<path d="M813.5,552.5l0,-3" class="g1_28" />
<path d="M126.5,608.5l0,-56" class="g1_28" />
<path d="M126.5,608.5l144,0" class="g1_28" />
<path d="M270.5,608.5l0,-56" class="g1_28" />
<path d="M271.5,608.5l445,0" class="g1_28" />
<path d="M716.5,608.5l0,-56" class="g1_28" />
<path d="M716.5,608.5l97,0" class="g1_28" />
<path d="M813.5,608.5l0,-56" class="g1_28" />
<path fill-rule="evenodd" d="M126,709l192,0l0,-2l-192,0l0,2Z" class="g2_28" />
<path fill-rule="evenodd" d="M126,734l11,0l0,-25l-11,0l0,25Z" class="g2_28" />
<path fill-rule="evenodd" d="M307,734l11,0l0,-25l-11,0l0,25Z" class="g2_28" />
<path fill-rule="evenodd" d="M126,736l192,0l0,-2l-192,0l0,2Z" class="g2_28" />
<g clip-path="url(#c3_28)">
<path fill-rule="evenodd" d="M137,734l170,0l0,-25l-170,0l0,25Z" class="g2_28" />
</g>
<path fill-rule="evenodd" d="M318,709l377,0l0,-2l-377,0l0,2Z" class="g2_28" />
<path fill-rule="evenodd" d="M318,734l11,0l0,-25l-11,0l0,25Z" class="g2_28" />
<path fill-rule="evenodd" d="M685,734l10,0l0,-25l-10,0l0,25Z" class="g2_28" />
<path fill-rule="evenodd" d="M318,736l377,0l0,-2l-377,0l0,2Z" class="g2_28" />
<g clip-path="url(#c4_28)">
<path fill-rule="evenodd" d="M329,734l356,0l0,-25l-356,0l0,25Z" class="g2_28" />
</g>
<path fill-rule="evenodd" d="M696,709l117,0l0,-2l-117,0l0,2Z" class="g2_28" />
<path fill-rule="evenodd" d="M696,734l11,0l0,-25l-11,0l0,25Z" class="g2_28" />
<path fill-rule="evenodd" d="M803,734l10,0l0,-25l-10,0l0,25Z" class="g2_28" />
<path fill-rule="evenodd" d="M696,736l117,0l0,-2l-117,0l0,2Z" class="g2_28" />
<g clip-path="url(#c5_28)">
<path fill-rule="evenodd" d="M707,734l96,0l0,-25l-96,0l0,25Z" class="g2_28" />
</g>
<path d="M126.5,709.5l0,-3" class="g1_28" />
<path d="M126.5,707.5l0,-1" class="g1_28" />
<path d="M126.5,707.5l192,0" class="g1_28" />
<path fill-rule="evenodd" d="M126,709l192,0l0,-2l-192,0l0,2Z" class="g2_28" />
<path d="M318.5,709.5l0,-2" class="g1_28" />
<path d="M318.5,707.5l0,-1" class="g1_28" />
<path d="M318.5,707.5l377,0" class="g1_28" />
<path fill-rule="evenodd" d="M318,709l377,0l0,-2l-377,0l0,2Z" class="g2_28" />
<path d="M695.5,709.5l0,-2" class="g1_28" />
<path d="M695.5,707.5l0,-1" class="g1_28" />
<path d="M696.5,707.5l117,0" class="g1_28" />
<path fill-rule="evenodd" d="M696,709l117,0l0,-2l-117,0l0,2Z" class="g2_28" />
<path d="M813.5,709.5l0,-3" class="g1_28" />
<path d="M813.5,707.5l0,-1" class="g1_28" />
<path fill-rule="evenodd" d="M126,736l192,0l0,-2l-192,0l0,2Z" class="g2_28" />
<path d="M126.5,736.5l0,-27" class="g1_28" />
<path fill-rule="evenodd" d="M318,736l378,0l0,-2l-378,0l0,2Z" class="g2_28" />
<path d="M318.5,736.5l0,-27" class="g1_28" />
<path fill-rule="evenodd" d="M696,736l118,0l0,-2l-118,0l0,2Z" class="g2_28" />
<path d="M695.5,736.5l0,-27" class="g1_28" />
<path d="M813.5,736.5l0,-27" class="g1_28" />
<path d="M707.5,758.5l29,0" class="g3_28" />
<path d="M707.5,773.5l78,0" class="g3_28" />
<path d="M126.5,739.5l0,-3" class="g1_28" />
<path d="M126.5,737.5l192,0" class="g1_28" />
<path d="M318.5,739.5l0,-3" class="g1_28" />
<path d="M318.5,737.5l377,0" class="g1_28" />
<path d="M695.5,739.5l0,-3" class="g1_28" />
<path d="M696.5,737.5l117,0" class="g1_28" />
<path d="M813.5,739.5l0,-3" class="g1_28" />
<path d="M126.5,780.5l0,-41" class="g1_28" />
<path d="M126.5,781.5l0,-1" class="g1_28" />
<path d="M126.5,781.5l0,-1" class="g1_28" />
<path d="M126.5,781.5l192,0" class="g1_28" />
<path d="M318.5,780.5l0,-41" class="g1_28" />
<path d="M318.5,781.5l0,-1" class="g1_28" />
<path d="M318.5,781.5l377,0" class="g1_28" />
<path d="M695.5,780.5l0,-41" class="g1_28" />
<path d="M695.5,781.5l0,-1" class="g1_28" />
<path d="M696.5,781.5l117,0" class="g1_28" />
<path d="M813.5,780.5l0,-41" class="g1_28" />
<path d="M813.5,781.5l0,-1" class="g1_28" />
<path d="M813.5,781.5l0,-1" class="g1_28" />
<path d="M736.5,864.5l75,0" class="g3_28" />
<path d="M667.5,881.5l75,0" class="g3_28" />
<path d="M700.5,911.5l75,0" class="g3_28" />
<path fill-rule="evenodd" d="M126,945l221,0l0,-2l-221,0l0,2Z" class="g2_28" />
<path fill-rule="evenodd" d="M126,970l11,0l0,-25l-11,0l0,25Z" class="g2_28" />
<path fill-rule="evenodd" d="M336,970l11,0l0,-25l-11,0l0,25Z" class="g2_28" />
<path fill-rule="evenodd" d="M126,972l221,0l0,-2l-221,0l0,2Z" class="g2_28" />
<g clip-path="url(#c6_28)">
<path fill-rule="evenodd" d="M137,970l199,0l0,-25l-199,0l0,25Z" class="g2_28" />
</g>
<path fill-rule="evenodd" d="M348,945l324,0l0,-2l-324,0l0,2Z" class="g2_28" />
<path fill-rule="evenodd" d="M348,970l10,0l0,-25l-10,0l0,25Z" class="g2_28" />
<path fill-rule="evenodd" d="M661,970l11,0l0,-25l-11,0l0,25Z" class="g2_28" />
<path fill-rule="evenodd" d="M348,972l324,0l0,-2l-324,0l0,2Z" class="g2_28" />
<g clip-path="url(#c7_28)">
<path fill-rule="evenodd" d="M358,970l303,0l0,-25l-303,0l0,25Z" class="g2_28" />
</g>
<path fill-rule="evenodd" d="M672,945l141,0l0,-2l-141,0l0,2Z" class="g2_28" />
<path fill-rule="evenodd" d="M672,970l11,0l0,-25l-11,0l0,25Z" class="g2_28" />
<path fill-rule="evenodd" d="M803,970l10,0l0,-25l-10,0l0,25Z" class="g2_28" />
<path fill-rule="evenodd" d="M672,972l141,0l0,-2l-141,0l0,2Z" class="g2_28" />
<g clip-path="url(#c8_28)">
<path fill-rule="evenodd" d="M683,970l120,0l0,-25l-120,0l0,25Z" class="g2_28" />
</g>
<path d="M126.5,945.5l0,-2" class="g1_28" />
<path d="M126.5,943.5l221,0" class="g1_28" />
<path fill-rule="evenodd" d="M126,945l221,0l0,-2l-221,0l0,2Z" class="g2_28" />
<path d="M347.5,945.5l0,-2" class="g1_28" />
<path d="M348.5,943.5l324,0" class="g1_28" />
<path fill-rule="evenodd" d="M348,945l324,0l0,-2l-324,0l0,2Z" class="g2_28" />
<path d="M672.5,945.5l0,-2" class="g1_28" />
<path d="M672.5,943.5l141,0" class="g1_28" />
<path fill-rule="evenodd" d="M672,945l141,0l0,-2l-141,0l0,2Z" class="g2_28" />
<path d="M813.5,945.5l0,-2" class="g1_28" />
<path fill-rule="evenodd" d="M126,972l221,0l0,-2l-221,0l0,2Z" class="g2_28" />
<path d="M126.5,972.5l0,-27" class="g1_28" />
<path fill-rule="evenodd" d="M347,972l325,0l0,-2l-325,0l0,2Z" class="g2_28" />
<path d="M347.5,972.5l0,-27" class="g1_28" />
<path fill-rule="evenodd" d="M672,972l142,0l0,-2l-142,0l0,2Z" class="g2_28" />
<path d="M672.5,972.5l0,-27" class="g1_28" />
<path d="M813.5,972.5l0,-27" class="g1_28" />
<path d="M683.5,994.5l89,0" class="g3_28" />
<path d="M126.5,975.5l0,-3" class="g1_28" />
<path d="M126.5,973.5l221,0" class="g1_28" />
<path d="M347.5,975.5l0,-3" class="g1_28" />
<path d="M348.5,973.5l324,0" class="g1_28" />
<path d="M672.5,975.5l0,-3" class="g1_28" />
<path d="M672.5,973.5l141,0" class="g1_28" />
<path d="M813.5,975.5l0,-3" class="g1_28" />
<path d="M126.5,1001.5l0,-26" class="g1_28" />
<path d="M126.5,1002.5l0,-1" class="g1_28" />
<path d="M126.5,1002.5l0,-1" class="g1_28" />
<path d="M126.5,1002.5l221,0" class="g1_28" />
<path d="M347.5,1001.5l0,-26" class="g1_28" />
<path d="M347.5,1002.5l0,-1" class="g1_28" />
<path d="M348.5,1002.5l324,0" class="g1_28" />
<path d="M672.5,1001.5l0,-26" class="g1_28" />
<path d="M672.5,1002.5l0,-1" class="g1_28" />
<path d="M672.5,1002.5l141,0" class="g1_28" />
<path d="M813.5,1001.5l0,-26" class="g1_28" />
<path d="M813.5,1002.5l0,-1" class="g1_28" />
<path d="M813.5,1002.5l0,-1" class="g1_28" />
</svg>