<?xml version="1.0" encoding="UTF-8" standalone="no"?>
<!DOCTYPE svg PUBLIC "-//W3C//DTD SVG 1.1//EN"
"http://www.w3.org/Graphics/SVG/1.1/DTD/svg11.dtd">
<svg version="1.1" xmlns="http://www.w3.org/2000/svg" xmlns:xlink="http://www.w3.org/1999/xlink">
<defs>
<style type="text/css"><![CDATA[
.g1_91{
fill: none;
stroke: #000000;
stroke-width: 1;
stroke-linecap: butt;
stroke-linejoin: miter;
}
.g2_91{
fill: none;
stroke: #0066FF;
stroke-width: 1;
stroke-linecap: butt;
stroke-linejoin: miter;
}
]]></style>
</defs>
<path d="M122.5,1029.5l705,0" class="g1_91" />
<path d="M138.5,126.5l130,0" class="g2_91" />
<path d="M138.5,141.5l145,0" class="g2_91" />
<path d="M138.5,156.5l64,0" class="g2_91" />
<path d="M138.5,171.5l82,0" class="g2_91" />
<path d="M138.5,185.5l53,0" class="g2_91" />
<path d="M138.5,215.5l130,0" class="g2_91" />
<path d="M138.5,230.5l145,0" class="g2_91" />
<path d="M138.5,245.5l64,0" class="g2_91" />
<path d="M138.5,260.5l82,0" class="g2_91" />
<path d="M138.5,275.5l53,0" class="g2_91" />
<path d="M138.5,304.5l130,0" class="g2_91" />
<path d="M138.5,319.5l145,0" class="g2_91" />
<path d="M138.5,334.5l64,0" class="g2_91" />
<path d="M138.5,349.5l82,0" class="g2_91" />
<path d="M138.5,364.5l53,0" class="g2_91" />
<path d="M138.5,393.5l130,0" class="g2_91" />
<path d="M138.5,408.5l145,0" class="g2_91" />
<path d="M138.5,423.5l64,0" class="g2_91" />
<path d="M138.5,438.5l82,0" class="g2_91" />
<path d="M138.5,453.5l53,0" class="g2_91" />
<path d="M138.5,498.5l130,0" class="g2_91" />
<path d="M138.5,512.5l145,0" class="g2_91" />
<path d="M138.5,527.5l64,0" class="g2_91" />
<path d="M138.5,542.5l82,0" class="g2_91" />
<path d="M138.5,557.5l53,0" class="g2_91" />
<path d="M138.5,601.5l130,0" class="g2_91" />
<path d="M138.5,616.5l145,0" class="g2_91" />
<path d="M138.5,631.5l82,0" class="g2_91" />
<path d="M138.5,646.5l53,0" class="g2_91" />
<path d="M138.5,676.5l130,0" class="g2_91" />
<path d="M138.5,691.5l145,0" class="g2_91" />
<path d="M138.5,705.5l64,0" class="g2_91" />
<path d="M138.5,720.5l53,0" class="g2_91" />
<path d="M138.5,765.5l130,0" class="g2_91" />
<path d="M138.5,780.5l145,0" class="g2_91" />
<path d="M138.5,795.5l64,0" class="g2_91" />
<path d="M138.5,809.5l82,0" class="g2_91" />
<path d="M138.5,824.5l53,0" class="g2_91" />
<path d="M138.5,854.5l130,0" class="g2_91" />
<path d="M138.5,869.5l145,0" class="g2_91" />
<path d="M138.5,884.5l64,0" class="g2_91" />
<path d="M138.5,899.5l82,0" class="g2_91" />
<path d="M138.5,913.5l53,0" class="g2_91" />
<path d="M138.5,943.5l130,0" class="g2_91" />
<path d="M138.5,958.5l145,0" class="g2_91" />
<path d="M138.5,973.5l64,0" class="g2_91" />
<path d="M138.5,988.5l82,0" class="g2_91" />
<path d="M516.5,96.5l53,0" class="g2_91" />
<path d="M502.5,155.5l109,0" class="g2_91" />
<path d="M516.5,170.5l127,0" class="g2_91" />
<path d="M516.5,185.5l284,0" class="g2_91" />
<path d="M530.5,200.5l47,0" class="g2_91" />
<path d="M516.5,215.5l177,0" class="g2_91" />
<path d="M516.5,230.5l213,0" class="g2_91" />
<path d="M516.5,244.5l285,0" class="g2_91" />
<path d="M530.5,259.5l126,0" class="g2_91" />
<path d="M516.5,274.5l300,0" class="g2_91" />
<path d="M530.5,289.5l134,0" class="g2_91" />
<path d="M516.5,304.5l302,0" class="g2_91" />
<path d="M530.5,319.5l123,0" class="g2_91" />
<path d="M516.5,334.5l235,0" class="g2_91" />
<path d="M516.5,348.5l90,0" class="g2_91" />
<path d="M516.5,363.5l181,0" class="g2_91" />
<path d="M516.5,378.5l228,0" class="g2_91" />
<path d="M516.5,393.5l248,0" class="g2_91" />
<path d="M516.5,408.5l177,0" class="g2_91" />
<path d="M502.5,423.5l107,0" class="g2_91" />
<path d="M502.5,482.5l60,0" class="g2_91" />
<path d="M516.5,512.5l130,0" class="g2_91" />
<path d="M516.5,526.5l145,0" class="g2_91" />
<path d="M516.5,541.5l64,0" class="g2_91" />
<path d="M516.5,556.5l82,0" class="g2_91" />
<path d="M516.5,571.5l53,0" class="g2_91" />
<path d="M516.5,601.5l130,0" class="g2_91" />
<path d="M516.5,616.5l145,0" class="g2_91" />
<path d="M516.5,630.5l64,0" class="g2_91" />
<path d="M516.5,645.5l82,0" class="g2_91" />
<path d="M516.5,660.5l53,0" class="g2_91" />
<path d="M516.5,690.5l130,0" class="g2_91" />
<path d="M516.5,705.5l145,0" class="g2_91" />
<path d="M516.5,720.5l64,0" class="g2_91" />
<path d="M516.5,734.5l82,0" class="g2_91" />
<path d="M516.5,749.5l53,0" class="g2_91" />
<path d="M516.5,779.5l130,0" class="g2_91" />
<path d="M516.5,794.5l145,0" class="g2_91" />
<path d="M516.5,809.5l64,0" class="g2_91" />
<path d="M516.5,824.5l82,0" class="g2_91" />
<path d="M516.5,838.5l53,0" class="g2_91" />
<path d="M516.5,883.5l130,0" class="g2_91" />
<path d="M516.5,898.5l145,0" class="g2_91" />
<path d="M516.5,913.5l64,0" class="g2_91" />
<path d="M516.5,928.5l82,0" class="g2_91" />
<path d="M516.5,942.5l53,0" class="g2_91" />
<path d="M516.5,972.5l130,0" class="g2_91" />
<path d="M516.5,987.5l145,0" class="g2_91" />
<path d="M516.5,1002.5l64,0" class="g2_91" />
</svg>