<?xml version="1.0" encoding="UTF-8" standalone="no"?>
<!DOCTYPE svg PUBLIC "-//W3C//DTD SVG 1.1//EN"
"http://www.w3.org/Graphics/SVG/1.1/DTD/svg11.dtd">
<svg version="1.1" xmlns="http://www.w3.org/2000/svg" xmlns:xlink="http://www.w3.org/1999/xlink">
<defs>
<clipPath id="c0_32"><path d="M126.5,125.5l0,-40l187,0l0,40Z" /></clipPath>
<style type="text/css"><![CDATA[
.g1_32{
fill: none;
stroke: #000000;
stroke-width: 1;
stroke-linecap: butt;
stroke-linejoin: miter;
}
.g2_32{
fill: #DFDFDF;
}
.g3_32{
fill: none;
stroke: #0066FF;
stroke-width: 1;
stroke-linecap: butt;
stroke-linejoin: miter;
}
]]></style>
</defs>
<path d="M122.5,1029.5l705,0" class="g1_32" />
<path fill-rule="evenodd" d="M126,85l187,0l0,-2L126,83l0,2Z" class="g2_32" />
<path fill-rule="evenodd" d="M126,125l11,0l0,-40l-11,0l0,40Z" class="g2_32" />
<path fill-rule="evenodd" d="M302,125l11,0l0,-40l-11,0l0,40Z" class="g2_32" />
<path fill-rule="evenodd" d="M126,127l187,0l0,-2l-187,0l0,2Z" class="g2_32" />
<g clip-path="url(#c0_32)">
<path fill-rule="evenodd" d="M137,105l165,0l0,-20L137,85l0,20Z" class="g2_32" />
</g>
<path fill-rule="evenodd" d="M137,125l165,0l0,-20l-165,0l0,20Z" class="g2_32" />
<path fill-rule="evenodd" d="M313,100l377,0l0,-17L313,83l0,17Z" class="g2_32" />
<path fill-rule="evenodd" d="M313,125l11,0l0,-25l-11,0l0,25Z" class="g2_32" />
<path fill-rule="evenodd" d="M680,125l10,0l0,-25l-10,0l0,25Z" class="g2_32" />
<path fill-rule="evenodd" d="M313,127l377,0l0,-2l-377,0l0,2Z" class="g2_32" />
<path fill-rule="evenodd" d="M324,125l356,0l0,-25l-356,0l0,25Z" class="g2_32" />
<path fill-rule="evenodd" d="M691,100l122,0l0,-17L691,83l0,17Z" class="g2_32" />
<path fill-rule="evenodd" d="M691,125l11,0l0,-25l-11,0l0,25Z" class="g2_32" />
<path fill-rule="evenodd" d="M803,125l10,0l0,-25l-10,0l0,25Z" class="g2_32" />
<path fill-rule="evenodd" d="M691,127l122,0l0,-2l-122,0l0,2Z" class="g2_32" />
<path fill-rule="evenodd" d="M702,125l101,0l0,-25l-101,0l0,25Z" class="g2_32" />
<path d="M126.5,85.5l0,-3" class="g1_32" />
<path d="M126.5,83.5l0,-1" class="g1_32" />
<path d="M126.5,83.5l187,0" class="g1_32" />
<path fill-rule="evenodd" d="M126,85l187,0l0,-2L126,83l0,2Z" class="g2_32" />
<path d="M313.5,85.5l0,-2" class="g1_32" />
<path d="M313.5,83.5l0,-1" class="g1_32" />
<path d="M313.5,83.5l378,0" class="g1_32" />
<path fill-rule="evenodd" d="M313,85l378,0l0,-2L313,83l0,2Z" class="g2_32" />
<path d="M691.5,85.5l0,-2" class="g1_32" />
<path d="M691.5,83.5l0,-1" class="g1_32" />
<path d="M691.5,83.5l122,0" class="g1_32" />
<path fill-rule="evenodd" d="M691,85l122,0l0,-2L691,83l0,2Z" class="g2_32" />
<path d="M813.5,85.5l0,-3" class="g1_32" />
<path d="M813.5,83.5l0,-1" class="g1_32" />
<path fill-rule="evenodd" d="M126,127l187,0l0,-2l-187,0l0,2Z" class="g2_32" />
<path d="M126.5,127.5l0,-42" class="g1_32" />
<path fill-rule="evenodd" d="M313,127l378,0l0,-2l-378,0l0,2Z" class="g2_32" />
<path d="M313.5,127.5l0,-42" class="g1_32" />
<path fill-rule="evenodd" d="M691,127l123,0l0,-2l-123,0l0,2Z" class="g2_32" />
<path d="M691.5,127.5l0,-42" class="g1_32" />
<path d="M813.5,127.5l0,-42" class="g1_32" />
<path d="M702.5,144.5l76,0" class="g3_32" />
<path d="M126.5,130.5l0,-3" class="g1_32" />
<path d="M126.5,128.5l187,0" class="g1_32" />
<path d="M313.5,130.5l0,-3" class="g1_32" />
<path d="M313.5,128.5l378,0" class="g1_32" />
<path d="M691.5,130.5l0,-3" class="g1_32" />
<path d="M691.5,128.5l122,0" class="g1_32" />
<path d="M813.5,130.5l0,-3" class="g1_32" />
<path d="M126.5,152.5l0,-22" class="g1_32" />
<path d="M313.5,152.5l0,-22" class="g1_32" />
<path d="M691.5,152.5l0,-22" class="g1_32" />
<path d="M813.5,152.5l0,-22" class="g1_32" />
<path d="M702.5,174.5l30,0" class="g3_32" />
<path d="M702.5,188.5l95,0" class="g3_32" />
<path d="M126.5,154.5l0,-2" class="g1_32" />
<path d="M126.5,152.5l187,0" class="g1_32" />
<path d="M313.5,154.5l0,-2" class="g1_32" />
<path d="M313.5,152.5l378,0" class="g1_32" />
<path d="M691.5,154.5l0,-2" class="g1_32" />
<path d="M691.5,152.5l122,0" class="g1_32" />
<path d="M813.5,154.5l0,-2" class="g1_32" />
<path d="M126.5,196.5l0,-42" class="g1_32" />
<path d="M313.5,196.5l0,-42" class="g1_32" />
<path d="M691.5,196.5l0,-42" class="g1_32" />
<path d="M813.5,196.5l0,-42" class="g1_32" />
<path d="M702.5,218.5l30,0" class="g3_32" />
<path d="M702.5,232.5l85,0" class="g3_32" />
<path d="M126.5,199.5l0,-3" class="g1_32" />
<path d="M126.5,196.5l187,0" class="g1_32" />
<path d="M313.5,199.5l0,-3" class="g1_32" />
<path d="M313.5,196.5l378,0" class="g1_32" />
<path d="M691.5,199.5l0,-3" class="g1_32" />
<path d="M691.5,196.5l122,0" class="g1_32" />
<path d="M813.5,199.5l0,-3" class="g1_32" />
<path d="M126.5,240.5l0,-41" class="g1_32" />
<path d="M313.5,240.5l0,-41" class="g1_32" />
<path d="M691.5,240.5l0,-41" class="g1_32" />
<path d="M813.5,240.5l0,-41" class="g1_32" />
<path d="M702.5,262.5l30,0" class="g3_32" />
<path d="M702.5,276.5l78,0" class="g3_32" />
<path d="M126.5,243.5l0,-3" class="g1_32" />
<path d="M126.5,240.5l187,0" class="g1_32" />
<path d="M313.5,243.5l0,-3" class="g1_32" />
<path d="M313.5,240.5l378,0" class="g1_32" />
<path d="M691.5,243.5l0,-3" class="g1_32" />
<path d="M691.5,240.5l122,0" class="g1_32" />
<path d="M813.5,243.5l0,-3" class="g1_32" />
<path d="M126.5,284.5l0,-41" class="g1_32" />
<path d="M313.5,284.5l0,-41" class="g1_32" />
<path d="M691.5,284.5l0,-41" class="g1_32" />
<path d="M813.5,284.5l0,-41" class="g1_32" />
<path d="M702.5,306.5l30,0" class="g3_32" />
<path d="M702.5,321.5l76,0" class="g3_32" />
<path d="M126.5,287.5l0,-3" class="g1_32" />
<path d="M126.5,284.5l187,0" class="g1_32" />
<path d="M313.5,287.5l0,-3" class="g1_32" />
<path d="M313.5,284.5l378,0" class="g1_32" />
<path d="M691.5,287.5l0,-3" class="g1_32" />
<path d="M691.5,284.5l122,0" class="g1_32" />
<path d="M813.5,287.5l0,-3" class="g1_32" />
<path d="M126.5,343.5l0,-56" class="g1_32" />
<path d="M313.5,343.5l0,-56" class="g1_32" />
<path d="M691.5,343.5l0,-56" class="g1_32" />
<path d="M813.5,343.5l0,-56" class="g1_32" />
<path d="M702.5,365.5l100,0" class="g3_32" />
<path d="M126.5,346.5l0,-3" class="g1_32" />
<path d="M126.5,343.5l187,0" class="g1_32" />
<path d="M313.5,346.5l0,-3" class="g1_32" />
<path d="M313.5,343.5l378,0" class="g1_32" />
<path d="M691.5,346.5l0,-3" class="g1_32" />
<path d="M691.5,343.5l122,0" class="g1_32" />
<path d="M813.5,346.5l0,-3" class="g1_32" />
<path d="M126.5,402.5l0,-56" class="g1_32" />
<path d="M313.5,402.5l0,-56" class="g1_32" />
<path d="M691.5,402.5l0,-56" class="g1_32" />
<path d="M813.5,402.5l0,-56" class="g1_32" />
<path d="M702.5,424.5l30,0" class="g3_32" />
<path d="M702.5,438.5l83,0" class="g3_32" />
<path d="M126.5,405.5l0,-3" class="g1_32" />
<path d="M126.5,402.5l187,0" class="g1_32" />
<path d="M313.5,405.5l0,-3" class="g1_32" />
<path d="M313.5,402.5l378,0" class="g1_32" />
<path d="M691.5,405.5l0,-3" class="g1_32" />
<path d="M691.5,402.5l122,0" class="g1_32" />
<path d="M813.5,405.5l0,-3" class="g1_32" />
<path d="M126.5,461.5l0,-56" class="g1_32" />
<path d="M313.5,461.5l0,-56" class="g1_32" />
<path d="M691.5,461.5l0,-56" class="g1_32" />
<path d="M813.5,461.5l0,-56" class="g1_32" />
<path d="M702.5,482.5l97,0" class="g3_32" />
<path d="M126.5,464.5l0,-3" class="g1_32" />
<path d="M126.5,461.5l187,0" class="g1_32" />
<path d="M313.5,464.5l0,-3" class="g1_32" />
<path d="M313.5,461.5l378,0" class="g1_32" />
<path d="M691.5,464.5l0,-3" class="g1_32" />
<path d="M691.5,461.5l122,0" class="g1_32" />
<path d="M813.5,464.5l0,-3" class="g1_32" />
<path d="M126.5,520.5l0,-56" class="g1_32" />
<path d="M313.5,520.5l0,-56" class="g1_32" />
<path d="M691.5,520.5l0,-56" class="g1_32" />
<path d="M813.5,520.5l0,-56" class="g1_32" />
<path d="M702.5,541.5l30,0" class="g3_32" />
<path d="M702.5,556.5l76,0" class="g3_32" />
<path d="M126.5,522.5l0,-2" class="g1_32" />
<path d="M126.5,520.5l187,0" class="g1_32" />
<path d="M313.5,522.5l0,-2" class="g1_32" />
<path d="M313.5,520.5l378,0" class="g1_32" />
<path d="M691.5,522.5l0,-2" class="g1_32" />
<path d="M691.5,520.5l122,0" class="g1_32" />
<path d="M813.5,522.5l0,-2" class="g1_32" />
<path d="M126.5,564.5l0,-42" class="g1_32" />
<path d="M313.5,564.5l0,-42" class="g1_32" />
<path d="M691.5,564.5l0,-42" class="g1_32" />
<path d="M813.5,564.5l0,-42" class="g1_32" />
<path d="M702.5,586.5l30,0" class="g3_32" />
<path d="M702.5,600.5l87,0" class="g3_32" />
<path d="M126.5,566.5l0,-2" class="g1_32" />
<path d="M126.5,564.5l187,0" class="g1_32" />
<path d="M313.5,566.5l0,-2" class="g1_32" />
<path d="M313.5,564.5l378,0" class="g1_32" />
<path d="M691.5,566.5l0,-2" class="g1_32" />
<path d="M691.5,564.5l122,0" class="g1_32" />
<path d="M813.5,566.5l0,-2" class="g1_32" />
<path d="M126.5,623.5l0,-57" class="g1_32" />
<path d="M313.5,623.5l0,-57" class="g1_32" />
<path d="M691.5,623.5l0,-57" class="g1_32" />
<path d="M813.5,623.5l0,-57" class="g1_32" />
<path d="M702.5,644.5l30,0" class="g3_32" />
<path d="M702.5,659.5l79,0" class="g3_32" />
<path d="M126.5,625.5l0,-2" class="g1_32" />
<path d="M126.5,623.5l187,0" class="g1_32" />
<path d="M313.5,625.5l0,-2" class="g1_32" />
<path d="M313.5,623.5l378,0" class="g1_32" />
<path d="M691.5,625.5l0,-2" class="g1_32" />
<path d="M691.5,623.5l122,0" class="g1_32" />
<path d="M813.5,625.5l0,-2" class="g1_32" />
<path d="M126.5,667.5l0,-42" class="g1_32" />
<path d="M313.5,667.5l0,-42" class="g1_32" />
<path d="M691.5,667.5l0,-42" class="g1_32" />
<path d="M813.5,667.5l0,-42" class="g1_32" />
<path d="M702.5,688.5l30,0" class="g3_32" />
<path d="M702.5,703.5l76,0" class="g3_32" />
<path d="M126.5,670.5l0,-3" class="g1_32" />
<path d="M126.5,667.5l187,0" class="g1_32" />
<path d="M313.5,670.5l0,-3" class="g1_32" />
<path d="M313.5,667.5l378,0" class="g1_32" />
<path d="M691.5,670.5l0,-3" class="g1_32" />
<path d="M691.5,667.5l122,0" class="g1_32" />
<path d="M813.5,670.5l0,-3" class="g1_32" />
<path d="M126.5,726.5l0,-56" class="g1_32" />
<path d="M126.5,726.5l187,0" class="g1_32" />
<path d="M313.5,726.5l0,-56" class="g1_32" />
<path d="M313.5,726.5l378,0" class="g1_32" />
<path d="M691.5,726.5l0,-56" class="g1_32" />
<path d="M691.5,726.5l122,0" class="g1_32" />
<path d="M813.5,726.5l0,-56" class="g1_32" />
</svg>