<?xml version="1.0" encoding="UTF-8" standalone="no"?>
<!DOCTYPE svg PUBLIC "-//W3C//DTD SVG 1.1//EN"
"http://www.w3.org/Graphics/SVG/1.1/DTD/svg11.dtd">
<svg version="1.1" xmlns="http://www.w3.org/2000/svg" xmlns:xlink="http://www.w3.org/1999/xlink">
<defs>
<style type="text/css"><![CDATA[
.g1_29{
fill: none;
stroke: #000000;
stroke-width: 1;
stroke-linecap: butt;
stroke-linejoin: miter;
}
.g2_29{
fill: #DFDFDF;
}
.g3_29{
fill: none;
stroke: #0066FF;
stroke-width: 1;
stroke-linecap: butt;
stroke-linejoin: miter;
}
]]></style>
</defs>
<path d="M122.5,1029.5l705,0" class="g1_29" />
<path fill-rule="evenodd" d="M126,85l221,0l0,-2L126,83l0,2Z" class="g2_29" />
<path fill-rule="evenodd" d="M126,110l11,0l0,-25l-11,0l0,25Z" class="g2_29" />
<path fill-rule="evenodd" d="M336,110l11,0l0,-25l-11,0l0,25Z" class="g2_29" />
<path fill-rule="evenodd" d="M126,112l221,0l0,-2l-221,0l0,2Z" class="g2_29" />
<path fill-rule="evenodd" d="M137,110l199,0l0,-25L137,85l0,25Z" class="g2_29" />
<path fill-rule="evenodd" d="M348,85l324,0l0,-2L348,83l0,2Z" class="g2_29" />
<path fill-rule="evenodd" d="M348,110l10,0l0,-25l-10,0l0,25Z" class="g2_29" />
<path fill-rule="evenodd" d="M661,110l11,0l0,-25l-11,0l0,25Z" class="g2_29" />
<path fill-rule="evenodd" d="M348,112l324,0l0,-2l-324,0l0,2Z" class="g2_29" />
<path fill-rule="evenodd" d="M358,110l303,0l0,-25L358,85l0,25Z" class="g2_29" />
<path fill-rule="evenodd" d="M672,85l141,0l0,-2L672,83l0,2Z" class="g2_29" />
<path fill-rule="evenodd" d="M672,110l11,0l0,-25l-11,0l0,25Z" class="g2_29" />
<path fill-rule="evenodd" d="M803,110l10,0l0,-25l-10,0l0,25Z" class="g2_29" />
<path fill-rule="evenodd" d="M672,112l141,0l0,-2l-141,0l0,2Z" class="g2_29" />
<path fill-rule="evenodd" d="M683,110l120,0l0,-25L683,85l0,25Z" class="g2_29" />
<path d="M126.5,85.5l0,-3" class="g1_29" />
<path d="M126.5,83.5l0,-1" class="g1_29" />
<path d="M126.5,83.5l221,0" class="g1_29" />
<path fill-rule="evenodd" d="M126,85l221,0l0,-2L126,83l0,2Z" class="g2_29" />
<path d="M347.5,85.5l0,-2" class="g1_29" />
<path d="M347.5,83.5l0,-1" class="g1_29" />
<path d="M348.5,83.5l324,0" class="g1_29" />
<path fill-rule="evenodd" d="M348,85l324,0l0,-2L348,83l0,2Z" class="g2_29" />
<path d="M672.5,85.5l0,-2" class="g1_29" />
<path d="M672.5,83.5l0,-1" class="g1_29" />
<path d="M672.5,83.5l141,0" class="g1_29" />
<path fill-rule="evenodd" d="M672,85l141,0l0,-2L672,83l0,2Z" class="g2_29" />
<path d="M813.5,85.5l0,-3" class="g1_29" />
<path d="M813.5,83.5l0,-1" class="g1_29" />
<path fill-rule="evenodd" d="M126,112l221,0l0,-2l-221,0l0,2Z" class="g2_29" />
<path d="M126.5,112.5l0,-27" class="g1_29" />
<path fill-rule="evenodd" d="M347,112l325,0l0,-2l-325,0l0,2Z" class="g2_29" />
<path d="M347.5,112.5l0,-27" class="g1_29" />
<path fill-rule="evenodd" d="M672,112l142,0l0,-2l-142,0l0,2Z" class="g2_29" />
<path d="M672.5,112.5l0,-27" class="g1_29" />
<path d="M813.5,112.5l0,-27" class="g1_29" />
<path d="M126.5,115.5l0,-3" class="g1_29" />
<path d="M126.5,112.5l221,0" class="g1_29" />
<path d="M347.5,115.5l0,-3" class="g1_29" />
<path d="M348.5,112.5l324,0" class="g1_29" />
<path d="M672.5,115.5l0,-3" class="g1_29" />
<path d="M672.5,112.5l141,0" class="g1_29" />
<path d="M813.5,115.5l0,-3" class="g1_29" />
<path d="M126.5,151.5l0,-36" class="g1_29" />
<path d="M347.5,151.5l0,-36" class="g1_29" />
<path d="M672.5,151.5l0,-36" class="g1_29" />
<path d="M813.5,151.5l0,-36" class="g1_29" />
<path d="M683.5,173.5l99,0" class="g3_29" />
<path d="M126.5,154.5l0,-3" class="g1_29" />
<path d="M126.5,152.5l221,0" class="g1_29" />
<path d="M347.5,154.5l0,-3" class="g1_29" />
<path d="M348.5,152.5l324,0" class="g1_29" />
<path d="M672.5,154.5l0,-3" class="g1_29" />
<path d="M672.5,152.5l141,0" class="g1_29" />
<path d="M813.5,154.5l0,-3" class="g1_29" />
<path d="M126.5,210.5l0,-56" class="g1_29" />
<path d="M347.5,210.5l0,-56" class="g1_29" />
<path d="M672.5,210.5l0,-56" class="g1_29" />
<path d="M813.5,210.5l0,-56" class="g1_29" />
<path d="M683.5,232.5l93,0" class="g3_29" />
<path d="M126.5,213.5l0,-3" class="g1_29" />
<path d="M126.5,211.5l221,0" class="g1_29" />
<path d="M347.5,213.5l0,-3" class="g1_29" />
<path d="M348.5,211.5l324,0" class="g1_29" />
<path d="M672.5,213.5l0,-3" class="g1_29" />
<path d="M672.5,211.5l141,0" class="g1_29" />
<path d="M813.5,213.5l0,-3" class="g1_29" />
<path d="M126.5,284.5l0,-71" class="g1_29" />
<path d="M347.5,284.5l0,-71" class="g1_29" />
<path d="M672.5,284.5l0,-71" class="g1_29" />
<path d="M813.5,284.5l0,-71" class="g1_29" />
<path d="M683.5,306.5l89,0" class="g3_29" />
<path d="M126.5,287.5l0,-3" class="g1_29" />
<path d="M126.5,285.5l221,0" class="g1_29" />
<path d="M347.5,287.5l0,-3" class="g1_29" />
<path d="M348.5,285.5l324,0" class="g1_29" />
<path d="M672.5,287.5l0,-3" class="g1_29" />
<path d="M672.5,285.5l141,0" class="g1_29" />
<path d="M813.5,287.5l0,-3" class="g1_29" />
<path d="M126.5,358.5l0,-71" class="g1_29" />
<path d="M347.5,358.5l0,-71" class="g1_29" />
<path d="M672.5,358.5l0,-71" class="g1_29" />
<path d="M813.5,358.5l0,-71" class="g1_29" />
<path d="M683.5,380.5l98,0" class="g3_29" />
<path d="M126.5,361.5l0,-3" class="g1_29" />
<path d="M126.5,358.5l221,0" class="g1_29" />
<path d="M347.5,361.5l0,-3" class="g1_29" />
<path d="M348.5,358.5l324,0" class="g1_29" />
<path d="M672.5,361.5l0,-3" class="g1_29" />
<path d="M672.5,358.5l141,0" class="g1_29" />
<path d="M813.5,361.5l0,-3" class="g1_29" />
<path d="M126.5,417.5l0,-56" class="g1_29" />
<path d="M347.5,417.5l0,-56" class="g1_29" />
<path d="M672.5,417.5l0,-56" class="g1_29" />
<path d="M813.5,417.5l0,-56" class="g1_29" />
<path d="M683.5,438.5l96,0" class="g3_29" />
<path d="M126.5,420.5l0,-3" class="g1_29" />
<path d="M126.5,417.5l221,0" class="g1_29" />
<path d="M347.5,420.5l0,-3" class="g1_29" />
<path d="M348.5,417.5l324,0" class="g1_29" />
<path d="M672.5,420.5l0,-3" class="g1_29" />
<path d="M672.5,417.5l141,0" class="g1_29" />
<path d="M813.5,420.5l0,-3" class="g1_29" />
<path d="M126.5,476.5l0,-56" class="g1_29" />
<path d="M347.5,476.5l0,-56" class="g1_29" />
<path d="M672.5,476.5l0,-56" class="g1_29" />
<path d="M813.5,476.5l0,-56" class="g1_29" />
<path d="M683.5,497.5l104,0" class="g3_29" />
<path d="M126.5,478.5l0,-2" class="g1_29" />
<path d="M126.5,476.5l221,0" class="g1_29" />
<path d="M347.5,478.5l0,-2" class="g1_29" />
<path d="M348.5,476.5l324,0" class="g1_29" />
<path d="M672.5,478.5l0,-2" class="g1_29" />
<path d="M672.5,476.5l141,0" class="g1_29" />
<path d="M813.5,478.5l0,-2" class="g1_29" />
<path d="M126.5,534.5l0,-56" class="g1_29" />
<path d="M347.5,534.5l0,-56" class="g1_29" />
<path d="M672.5,534.5l0,-56" class="g1_29" />
<path d="M813.5,534.5l0,-56" class="g1_29" />
<path d="M683.5,556.5l95,0" class="g3_29" />
<path d="M126.5,537.5l0,-3" class="g1_29" />
<path d="M126.5,535.5l221,0" class="g1_29" />
<path d="M347.5,537.5l0,-3" class="g1_29" />
<path d="M348.5,535.5l324,0" class="g1_29" />
<path d="M672.5,537.5l0,-3" class="g1_29" />
<path d="M672.5,535.5l141,0" class="g1_29" />
<path d="M813.5,537.5l0,-3" class="g1_29" />
<path d="M126.5,593.5l0,-56" class="g1_29" />
<path d="M347.5,593.5l0,-56" class="g1_29" />
<path d="M672.5,593.5l0,-56" class="g1_29" />
<path d="M813.5,593.5l0,-56" class="g1_29" />
<path d="M683.5,615.5l116,0" class="g3_29" />
<path d="M126.5,596.5l0,-3" class="g1_29" />
<path d="M126.5,594.5l221,0" class="g1_29" />
<path d="M347.5,596.5l0,-3" class="g1_29" />
<path d="M348.5,594.5l324,0" class="g1_29" />
<path d="M672.5,596.5l0,-3" class="g1_29" />
<path d="M672.5,594.5l141,0" class="g1_29" />
<path d="M813.5,596.5l0,-3" class="g1_29" />
<path d="M126.5,667.5l0,-71" class="g1_29" />
<path d="M347.5,667.5l0,-71" class="g1_29" />
<path d="M672.5,667.5l0,-71" class="g1_29" />
<path d="M813.5,667.5l0,-71" class="g1_29" />
<path d="M683.5,689.5l30,0" class="g3_29" />
<path d="M683.5,704.5l112,0" class="g3_29" />
<path d="M126.5,670.5l0,-3" class="g1_29" />
<path d="M126.5,668.5l221,0" class="g1_29" />
<path d="M347.5,670.5l0,-3" class="g1_29" />
<path d="M348.5,668.5l324,0" class="g1_29" />
<path d="M672.5,670.5l0,-3" class="g1_29" />
<path d="M672.5,668.5l141,0" class="g1_29" />
<path d="M813.5,670.5l0,-3" class="g1_29" />
<path d="M126.5,741.5l0,-71" class="g1_29" />
<path d="M347.5,741.5l0,-71" class="g1_29" />
<path d="M672.5,741.5l0,-71" class="g1_29" />
<path d="M813.5,741.5l0,-71" class="g1_29" />
<path d="M683.5,763.5l98,0" class="g3_29" />
<path d="M126.5,744.5l0,-3" class="g1_29" />
<path d="M126.5,742.5l221,0" class="g1_29" />
<path d="M347.5,744.5l0,-3" class="g1_29" />
<path d="M348.5,742.5l324,0" class="g1_29" />
<path d="M672.5,744.5l0,-3" class="g1_29" />
<path d="M672.5,742.5l141,0" class="g1_29" />
<path d="M813.5,744.5l0,-3" class="g1_29" />
<path d="M126.5,815.5l0,-71" class="g1_29" />
<path d="M126.5,815.5l221,0" class="g1_29" />
<path d="M347.5,815.5l0,-71" class="g1_29" />
<path d="M348.5,815.5l324,0" class="g1_29" />
<path d="M672.5,815.5l0,-71" class="g1_29" />
<path d="M672.5,815.5l141,0" class="g1_29" />
<path d="M813.5,815.5l0,-71" class="g1_29" />
<path d="M438.5,916.5l75,0" class="g3_29" />
<path d="M706.5,916.5l85,0" class="g3_29" />
</svg>