<?xml version="1.0" encoding="UTF-8" standalone="no"?>
<!DOCTYPE svg PUBLIC "-//W3C//DTD SVG 1.1//EN"
"http://www.w3.org/Graphics/SVG/1.1/DTD/svg11.dtd">
<svg version="1.1" xmlns="http://www.w3.org/2000/svg" xmlns:xlink="http://www.w3.org/1999/xlink">
<defs>
<clipPath id="c0_22"><path d="M719.5,125.5l0,-40l94,0l0,40Z" /></clipPath>
<clipPath id="c1_22"><path d="M126.5,396.5l0,-40l184,0l0,40Z" /></clipPath>
<clipPath id="c2_22"><path d="M716.5,396.5l0,-40l97,0l0,40Z" /></clipPath>
<style type="text/css"><![CDATA[
.g1_22{
fill: none;
stroke: #000000;
stroke-width: 1;
stroke-linecap: butt;
stroke-linejoin: miter;
}
.g2_22{
fill: #DFDFDF;
}
.g3_22{
fill: none;
stroke: #0066FF;
stroke-width: 1;
stroke-linecap: butt;
stroke-linejoin: miter;
}
]]></style>
</defs>
<path d="M122.5,1029.5l705,0" class="g1_22" />
<path fill-rule="evenodd" d="M126,100l152,0l0,-17L126,83l0,17Z" class="g2_22" />
<path fill-rule="evenodd" d="M126,125l11,0l0,-25l-11,0l0,25Z" class="g2_22" />
<path fill-rule="evenodd" d="M267,125l11,0l0,-25l-11,0l0,25Z" class="g2_22" />
<path fill-rule="evenodd" d="M126,127l152,0l0,-2l-152,0l0,2Z" class="g2_22" />
<path fill-rule="evenodd" d="M137,125l130,0l0,-25l-130,0l0,25Z" class="g2_22" />
<path fill-rule="evenodd" d="M279,100l439,0l0,-17L279,83l0,17Z" class="g2_22" />
<path fill-rule="evenodd" d="M279,125l10,0l0,-25l-10,0l0,25Z" class="g2_22" />
<path fill-rule="evenodd" d="M708,125l10,0l0,-25l-10,0l0,25Z" class="g2_22" />
<path fill-rule="evenodd" d="M279,127l439,0l0,-2l-439,0l0,2Z" class="g2_22" />
<path fill-rule="evenodd" d="M289,125l418,0l0,-25l-418,0l0,25Z" class="g2_22" />
<path fill-rule="evenodd" d="M719,85l94,0l0,-2l-94,0l0,2Z" class="g2_22" />
<path fill-rule="evenodd" d="M719,125l11,0l0,-40l-11,0l0,40Z" class="g2_22" />
<path fill-rule="evenodd" d="M803,125l10,0l0,-40l-10,0l0,40Z" class="g2_22" />
<path fill-rule="evenodd" d="M719,127l94,0l0,-2l-94,0l0,2Z" class="g2_22" />
<g clip-path="url(#c0_22)">
<path fill-rule="evenodd" d="M730,105l73,0l0,-20l-73,0l0,20Z" class="g2_22" />
</g>
<path fill-rule="evenodd" d="M730,125l73,0l0,-20l-73,0l0,20Z" class="g2_22" />
<path d="M126.5,85.5l0,-3" class="g1_22" />
<path d="M126.5,83.5l0,-1" class="g1_22" />
<path d="M126.5,83.5l152,0" class="g1_22" />
<path fill-rule="evenodd" d="M126,85l152,0l0,-2L126,83l0,2Z" class="g2_22" />
<path d="M278.5,85.5l0,-2" class="g1_22" />
<path d="M278.5,83.5l0,-1" class="g1_22" />
<path d="M279.5,83.5l439,0" class="g1_22" />
<path fill-rule="evenodd" d="M279,85l439,0l0,-2L279,83l0,2Z" class="g2_22" />
<path d="M718.5,85.5l0,-2" class="g1_22" />
<path d="M718.5,83.5l0,-1" class="g1_22" />
<path d="M719.5,83.5l94,0" class="g1_22" />
<path fill-rule="evenodd" d="M719,85l94,0l0,-2l-94,0l0,2Z" class="g2_22" />
<path d="M813.5,85.5l0,-3" class="g1_22" />
<path d="M813.5,83.5l0,-1" class="g1_22" />
<path fill-rule="evenodd" d="M126,127l152,0l0,-2l-152,0l0,2Z" class="g2_22" />
<path d="M126.5,127.5l0,-42" class="g1_22" />
<path fill-rule="evenodd" d="M278,127l440,0l0,-2l-440,0l0,2Z" class="g2_22" />
<path d="M278.5,127.5l0,-42" class="g1_22" />
<path fill-rule="evenodd" d="M719,127l95,0l0,-2l-95,0l0,2Z" class="g2_22" />
<path d="M718.5,127.5l0,-42" class="g1_22" />
<path d="M813.5,127.5l0,-42" class="g1_22" />
<path d="M730.5,144.5l64,0" class="g3_22" />
<path d="M126.5,130.5l0,-3" class="g1_22" />
<path d="M126.5,128.5l152,0" class="g1_22" />
<path d="M278.5,130.5l0,-3" class="g1_22" />
<path d="M279.5,128.5l439,0" class="g1_22" />
<path d="M718.5,130.5l0,-3" class="g1_22" />
<path d="M719.5,128.5l94,0" class="g1_22" />
<path d="M813.5,130.5l0,-3" class="g1_22" />
<path d="M126.5,152.5l0,-22" class="g1_22" />
<path d="M278.5,152.5l0,-22" class="g1_22" />
<path d="M718.5,152.5l0,-22" class="g1_22" />
<path d="M813.5,152.5l0,-22" class="g1_22" />
<path d="M730.5,174.5l29,0" class="g3_22" />
<path d="M730.5,188.5l64,0" class="g3_22" />
<path d="M126.5,154.5l0,-2" class="g1_22" />
<path d="M126.5,152.5l152,0" class="g1_22" />
<path d="M278.5,154.5l0,-2" class="g1_22" />
<path d="M279.5,152.5l439,0" class="g1_22" />
<path d="M718.5,154.5l0,-2" class="g1_22" />
<path d="M719.5,152.5l94,0" class="g1_22" />
<path d="M813.5,154.5l0,-2" class="g1_22" />
<path d="M126.5,211.5l0,-57" class="g1_22" />
<path d="M278.5,211.5l0,-57" class="g1_22" />
<path d="M718.5,211.5l0,-57" class="g1_22" />
<path d="M813.5,211.5l0,-57" class="g1_22" />
<path d="M730.5,232.5l29,0" class="g3_22" />
<path d="M730.5,247.5l63,0" class="g3_22" />
<path d="M126.5,213.5l0,-2" class="g1_22" />
<path d="M126.5,211.5l152,0" class="g1_22" />
<path d="M278.5,213.5l0,-2" class="g1_22" />
<path d="M279.5,211.5l439,0" class="g1_22" />
<path d="M718.5,213.5l0,-2" class="g1_22" />
<path d="M719.5,211.5l94,0" class="g1_22" />
<path d="M813.5,213.5l0,-2" class="g1_22" />
<path d="M126.5,255.5l0,-42" class="g1_22" />
<path d="M126.5,255.5l152,0" class="g1_22" />
<path d="M278.5,255.5l0,-42" class="g1_22" />
<path d="M279.5,255.5l439,0" class="g1_22" />
<path d="M718.5,255.5l0,-42" class="g1_22" />
<path d="M719.5,255.5l94,0" class="g1_22" />
<path d="M813.5,255.5l0,-42" class="g1_22" />
<path fill-rule="evenodd" d="M126,356l184,0l0,-2l-184,0l0,2Z" class="g2_22" />
<path fill-rule="evenodd" d="M126,396l11,0l0,-40l-11,0l0,40Z" class="g2_22" />
<path fill-rule="evenodd" d="M300,396l10,0l0,-40l-10,0l0,40Z" class="g2_22" />
<path fill-rule="evenodd" d="M126,398l184,0l0,-2l-184,0l0,2Z" class="g2_22" />
<g clip-path="url(#c1_22)">
<path fill-rule="evenodd" d="M137,376l163,0l0,-20l-163,0l0,20Z" class="g2_22" />
</g>
<path fill-rule="evenodd" d="M137,396l163,0l0,-20l-163,0l0,20Z" class="g2_22" />
<path fill-rule="evenodd" d="M311,371l405,0l0,-17l-405,0l0,17Z" class="g2_22" />
<path fill-rule="evenodd" d="M311,396l11,0l0,-25l-11,0l0,25Z" class="g2_22" />
<path fill-rule="evenodd" d="M705,396l11,0l0,-25l-11,0l0,25Z" class="g2_22" />
<path fill-rule="evenodd" d="M311,398l405,0l0,-2l-405,0l0,2Z" class="g2_22" />
<path fill-rule="evenodd" d="M322,396l383,0l0,-25l-383,0l0,25Z" class="g2_22" />
<path fill-rule="evenodd" d="M716,356l97,0l0,-2l-97,0l0,2Z" class="g2_22" />
<path fill-rule="evenodd" d="M716,396l11,0l0,-40l-11,0l0,40Z" class="g2_22" />
<path fill-rule="evenodd" d="M803,396l10,0l0,-40l-10,0l0,40Z" class="g2_22" />
<path fill-rule="evenodd" d="M716,398l97,0l0,-2l-97,0l0,2Z" class="g2_22" />
<g clip-path="url(#c2_22)">
<path fill-rule="evenodd" d="M727,376l76,0l0,-20l-76,0l0,20Z" class="g2_22" />
</g>
<path fill-rule="evenodd" d="M727,396l76,0l0,-20l-76,0l0,20Z" class="g2_22" />
<path d="M126.5,356.5l0,-3" class="g1_22" />
<path d="M126.5,354.5l0,-1" class="g1_22" />
<path d="M126.5,354.5l184,0" class="g1_22" />
<path fill-rule="evenodd" d="M126,356l184,0l0,-2l-184,0l0,2Z" class="g2_22" />
<path d="M310.5,356.5l0,-2" class="g1_22" />
<path d="M310.5,354.5l0,-1" class="g1_22" />
<path d="M311.5,354.5l405,0" class="g1_22" />
<path fill-rule="evenodd" d="M311,356l405,0l0,-2l-405,0l0,2Z" class="g2_22" />
<path d="M716.5,356.5l0,-2" class="g1_22" />
<path d="M716.5,354.5l0,-1" class="g1_22" />
<path d="M716.5,354.5l97,0" class="g1_22" />
<path fill-rule="evenodd" d="M716,356l97,0l0,-2l-97,0l0,2Z" class="g2_22" />
<path d="M813.5,356.5l0,-3" class="g1_22" />
<path d="M813.5,354.5l0,-1" class="g1_22" />
<path fill-rule="evenodd" d="M126,398l185,0l0,-2l-185,0l0,2Z" class="g2_22" />
<path d="M126.5,398.5l0,-42" class="g1_22" />
<path fill-rule="evenodd" d="M311,398l405,0l0,-2l-405,0l0,2Z" class="g2_22" />
<path d="M310.5,398.5l0,-42" class="g1_22" />
<path fill-rule="evenodd" d="M716,398l98,0l0,-2l-98,0l0,2Z" class="g2_22" />
<path d="M716.5,398.5l0,-42" class="g1_22" />
<path d="M813.5,398.5l0,-42" class="g1_22" />
<path d="M727.5,420.5l30,0" class="g3_22" />
<path d="M727.5,435.5l67,0" class="g3_22" />
<path d="M126.5,401.5l0,-3" class="g1_22" />
<path d="M126.5,399.5l184,0" class="g1_22" />
<path d="M310.5,401.5l0,-3" class="g1_22" />
<path d="M311.5,399.5l405,0" class="g1_22" />
<path d="M716.5,401.5l0,-3" class="g1_22" />
<path d="M716.5,399.5l97,0" class="g1_22" />
<path d="M813.5,401.5l0,-3" class="g1_22" />
<path d="M126.5,442.5l0,-41" class="g1_22" />
<path d="M310.5,442.5l0,-41" class="g1_22" />
<path d="M716.5,442.5l0,-41" class="g1_22" />
<path d="M813.5,442.5l0,-41" class="g1_22" />
<path d="M727.5,464.5l30,0" class="g3_22" />
<path d="M727.5,479.5l56,0" class="g3_22" />
<path d="M126.5,445.5l0,-3" class="g1_22" />
<path d="M126.5,443.5l184,0" class="g1_22" />
<path d="M310.5,445.5l0,-3" class="g1_22" />
<path d="M311.5,443.5l405,0" class="g1_22" />
<path d="M716.5,445.5l0,-3" class="g1_22" />
<path d="M716.5,443.5l97,0" class="g1_22" />
<path d="M813.5,445.5l0,-3" class="g1_22" />
<path d="M126.5,501.5l0,-56" class="g1_22" />
<path d="M310.5,501.5l0,-56" class="g1_22" />
<path d="M716.5,501.5l0,-56" class="g1_22" />
<path d="M813.5,501.5l0,-56" class="g1_22" />
<path d="M727.5,523.5l30,0" class="g3_22" />
<path d="M727.5,538.5l69,0" class="g3_22" />
<path d="M126.5,504.5l0,-3" class="g1_22" />
<path d="M126.5,502.5l184,0" class="g1_22" />
<path d="M310.5,504.5l0,-3" class="g1_22" />
<path d="M311.5,502.5l405,0" class="g1_22" />
<path d="M716.5,504.5l0,-3" class="g1_22" />
<path d="M716.5,502.5l97,0" class="g1_22" />
<path d="M813.5,504.5l0,-3" class="g1_22" />
<path d="M126.5,545.5l0,-41" class="g1_22" />
<path d="M310.5,545.5l0,-41" class="g1_22" />
<path d="M716.5,545.5l0,-41" class="g1_22" />
<path d="M813.5,545.5l0,-41" class="g1_22" />
<path d="M727.5,567.5l30,0" class="g3_22" />
<path d="M727.5,582.5l71,0" class="g3_22" />
<path d="M126.5,548.5l0,-3" class="g1_22" />
<path d="M126.5,546.5l184,0" class="g1_22" />
<path d="M310.5,548.5l0,-3" class="g1_22" />
<path d="M311.5,546.5l405,0" class="g1_22" />
<path d="M716.5,548.5l0,-3" class="g1_22" />
<path d="M716.5,546.5l97,0" class="g1_22" />
<path d="M813.5,548.5l0,-3" class="g1_22" />
<path d="M126.5,589.5l0,-41" class="g1_22" />
<path d="M310.5,589.5l0,-41" class="g1_22" />
<path d="M716.5,589.5l0,-41" class="g1_22" />
<path d="M813.5,589.5l0,-41" class="g1_22" />
<path d="M666.5,626.5l29,0" class="g3_22" />
<path d="M322.5,641.5l65,0" class="g3_22" />
<path d="M400.5,656.5l97,0" class="g3_22" />
<path d="M727.5,611.5l30,0" class="g3_22" />
<path d="M727.5,626.5l66,0" class="g3_22" />
<path d="M126.5,592.5l0,-3" class="g1_22" />
<path d="M126.5,590.5l184,0" class="g1_22" />
<path d="M310.5,592.5l0,-3" class="g1_22" />
<path d="M311.5,590.5l405,0" class="g1_22" />
<path d="M716.5,592.5l0,-3" class="g1_22" />
<path d="M716.5,590.5l97,0" class="g1_22" />
<path d="M813.5,592.5l0,-3" class="g1_22" />
<path d="M126.5,678.5l0,-86" class="g1_22" />
<path d="M310.5,678.5l0,-86" class="g1_22" />
<path d="M716.5,678.5l0,-86" class="g1_22" />
<path d="M813.5,678.5l0,-86" class="g1_22" />
<path d="M727.5,700.5l30,0" class="g3_22" />
<path d="M727.5,715.5l63,0" class="g3_22" />
<path d="M126.5,681.5l0,-3" class="g1_22" />
<path d="M126.5,679.5l184,0" class="g1_22" />
<path d="M310.5,681.5l0,-3" class="g1_22" />
<path d="M311.5,679.5l405,0" class="g1_22" />
<path d="M716.5,681.5l0,-3" class="g1_22" />
<path d="M716.5,679.5l97,0" class="g1_22" />
<path d="M813.5,681.5l0,-3" class="g1_22" />
<path d="M126.5,722.5l0,-41" class="g1_22" />
<path d="M310.5,722.5l0,-41" class="g1_22" />
<path d="M716.5,722.5l0,-41" class="g1_22" />
<path d="M813.5,722.5l0,-41" class="g1_22" />
<path d="M400.5,759.5l90,0" class="g3_22" />
<path d="M727.5,744.5l30,0" class="g3_22" />
<path d="M727.5,759.5l57,0" class="g3_22" />
<path d="M126.5,725.5l0,-3" class="g1_22" />
<path d="M126.5,723.5l184,0" class="g1_22" />
<path d="M310.5,725.5l0,-3" class="g1_22" />
<path d="M311.5,723.5l405,0" class="g1_22" />
<path d="M716.5,725.5l0,-3" class="g1_22" />
<path d="M716.5,723.5l97,0" class="g1_22" />
<path d="M813.5,725.5l0,-3" class="g1_22" />
<path d="M126.5,766.5l0,-41" class="g1_22" />
<path d="M310.5,766.5l0,-41" class="g1_22" />
<path d="M716.5,766.5l0,-41" class="g1_22" />
<path d="M813.5,766.5l0,-41" class="g1_22" />
<path d="M727.5,788.5l30,0" class="g3_22" />
<path d="M727.5,803.5l58,0" class="g3_22" />
<path d="M126.5,769.5l0,-3" class="g1_22" />
<path d="M126.5,767.5l184,0" class="g1_22" />
<path d="M310.5,769.5l0,-3" class="g1_22" />
<path d="M311.5,767.5l405,0" class="g1_22" />
<path d="M716.5,769.5l0,-3" class="g1_22" />
<path d="M716.5,767.5l97,0" class="g1_22" />
<path d="M813.5,769.5l0,-3" class="g1_22" />
<path d="M126.5,840.5l0,-71" class="g1_22" />
<path d="M310.5,840.5l0,-71" class="g1_22" />
<path d="M716.5,840.5l0,-71" class="g1_22" />
<path d="M813.5,840.5l0,-71" class="g1_22" />
<path d="M727.5,862.5l30,0" class="g3_22" />
<path d="M727.5,876.5l67,0" class="g3_22" />
<path d="M126.5,843.5l0,-3" class="g1_22" />
<path d="M126.5,841.5l184,0" class="g1_22" />
<path d="M310.5,843.5l0,-3" class="g1_22" />
<path d="M311.5,841.5l405,0" class="g1_22" />
<path d="M716.5,843.5l0,-3" class="g1_22" />
<path d="M716.5,841.5l97,0" class="g1_22" />
<path d="M813.5,843.5l0,-3" class="g1_22" />
<path d="M126.5,884.5l0,-41" class="g1_22" />
<path d="M310.5,884.5l0,-41" class="g1_22" />
<path d="M716.5,884.5l0,-41" class="g1_22" />
<path d="M813.5,884.5l0,-41" class="g1_22" />
<path d="M727.5,906.5l30,0" class="g3_22" />
<path d="M727.5,921.5l66,0" class="g3_22" />
<path d="M126.5,887.5l0,-3" class="g1_22" />
<path d="M126.5,885.5l184,0" class="g1_22" />
<path d="M310.5,887.5l0,-3" class="g1_22" />
<path d="M311.5,885.5l405,0" class="g1_22" />
<path d="M716.5,887.5l0,-3" class="g1_22" />
<path d="M716.5,885.5l97,0" class="g1_22" />
<path d="M813.5,887.5l0,-3" class="g1_22" />
<path d="M126.5,928.5l0,-41" class="g1_22" />
<path d="M310.5,928.5l0,-41" class="g1_22" />
<path d="M716.5,928.5l0,-41" class="g1_22" />
<path d="M813.5,928.5l0,-41" class="g1_22" />
<path d="M727.5,950.5l30,0" class="g3_22" />
<path d="M727.5,965.5l61,0" class="g3_22" />
<path d="M126.5,931.5l0,-3" class="g1_22" />
<path d="M126.5,929.5l184,0" class="g1_22" />
<path d="M310.5,931.5l0,-3" class="g1_22" />
<path d="M311.5,929.5l405,0" class="g1_22" />
<path d="M716.5,931.5l0,-3" class="g1_22" />
<path d="M716.5,929.5l97,0" class="g1_22" />
<path d="M813.5,931.5l0,-3" class="g1_22" />
<path d="M126.5,997.5l0,-66" class="g1_22" />
<path d="M126.5,998.5l0,-1" class="g1_22" />
<path d="M126.5,998.5l0,-1" class="g1_22" />
<path d="M126.5,998.5l184,0" class="g1_22" />
<path d="M310.5,997.5l0,-66" class="g1_22" />
<path d="M310.5,998.5l0,-1" class="g1_22" />
<path d="M311.5,998.5l405,0" class="g1_22" />
<path d="M716.5,997.5l0,-66" class="g1_22" />
<path d="M716.5,998.5l0,-1" class="g1_22" />
<path d="M716.5,998.5l97,0" class="g1_22" />
<path d="M813.5,997.5l0,-66" class="g1_22" />
<path d="M813.5,998.5l0,-1" class="g1_22" />
<path d="M813.5,998.5l0,-1" class="g1_22" />
</svg>