<?xml version="1.0" encoding="UTF-8" standalone="no"?>
<!DOCTYPE svg PUBLIC "-//W3C//DTD SVG 1.1//EN"
"http://www.w3.org/Graphics/SVG/1.1/DTD/svg11.dtd">
<svg version="1.1" xmlns="http://www.w3.org/2000/svg" xmlns:xlink="http://www.w3.org/1999/xlink">
<defs>
<clipPath id="c0_24"><path d="M126.5,204.5l0,-39l205,0l0,39Z" /></clipPath>
<clipPath id="c1_24"><path d="M727.5,714.5l0,-40l86,0l0,40Z" /></clipPath>
<style type="text/css"><![CDATA[
.g1_24{
fill: none;
stroke: #000000;
stroke-width: 1;
stroke-linecap: butt;
stroke-linejoin: miter;
}
.g2_24{
fill: #DFDFDF;
}
.g3_24{
fill: none;
stroke: #0066FF;
stroke-width: 1;
stroke-linecap: butt;
stroke-linejoin: miter;
}
]]></style>
</defs>
<path d="M122.5,1029.5l705,0" class="g1_24" />
<path fill-rule="evenodd" d="M126,165l205,0l0,-3l-205,0l0,3Z" class="g2_24" />
<path fill-rule="evenodd" d="M126,204l11,0l0,-39l-11,0l0,39Z" class="g2_24" />
<path fill-rule="evenodd" d="M320,204l11,0l0,-39l-11,0l0,39Z" class="g2_24" />
<path fill-rule="evenodd" d="M126,206l205,0l0,-2l-205,0l0,2Z" class="g2_24" />
<g clip-path="url(#c0_24)">
<path fill-rule="evenodd" d="M137,184l183,0l0,-19l-183,0l0,19Z" class="g2_24" />
</g>
<path fill-rule="evenodd" d="M137,204l183,0l0,-20l-183,0l0,20Z" class="g2_24" />
<path fill-rule="evenodd" d="M331,180l376,0l0,-18l-376,0l0,18Z" class="g2_24" />
<path fill-rule="evenodd" d="M331,204l11,0l0,-24l-11,0l0,24Z" class="g2_24" />
<path fill-rule="evenodd" d="M696,204l11,0l0,-24l-11,0l0,24Z" class="g2_24" />
<path fill-rule="evenodd" d="M331,206l376,0l0,-2l-376,0l0,2Z" class="g2_24" />
<path fill-rule="evenodd" d="M342,204l354,0l0,-24l-354,0l0,24Z" class="g2_24" />
<path fill-rule="evenodd" d="M708,180l105,0l0,-18l-105,0l0,18Z" class="g2_24" />
<path fill-rule="evenodd" d="M708,204l10,0l0,-24l-10,0l0,24Z" class="g2_24" />
<path fill-rule="evenodd" d="M803,204l10,0l0,-24l-10,0l0,24Z" class="g2_24" />
<path fill-rule="evenodd" d="M708,206l105,0l0,-2l-105,0l0,2Z" class="g2_24" />
<path fill-rule="evenodd" d="M718,204l85,0l0,-24l-85,0l0,24Z" class="g2_24" />
<path d="M126.5,165.5l0,-3" class="g1_24" />
<path d="M126.5,162.5l205,0" class="g1_24" />
<path fill-rule="evenodd" d="M126,165l205,0l0,-3l-205,0l0,3Z" class="g2_24" />
<path d="M331.5,165.5l0,-3" class="g1_24" />
<path d="M331.5,162.5l376,0" class="g1_24" />
<path fill-rule="evenodd" d="M331,165l376,0l0,-3l-376,0l0,3Z" class="g2_24" />
<path d="M707.5,165.5l0,-3" class="g1_24" />
<path d="M708.5,162.5l105,0" class="g1_24" />
<path fill-rule="evenodd" d="M708,165l105,0l0,-3l-105,0l0,3Z" class="g2_24" />
<path d="M813.5,165.5l0,-3" class="g1_24" />
<path fill-rule="evenodd" d="M126,207l205,0l0,-3l-205,0l0,3Z" class="g2_24" />
<path d="M126.5,207.5l0,-42" class="g1_24" />
<path fill-rule="evenodd" d="M331,207l376,0l0,-3l-376,0l0,3Z" class="g2_24" />
<path d="M331.5,207.5l0,-42" class="g1_24" />
<path fill-rule="evenodd" d="M707,207l107,0l0,-3l-107,0l0,3Z" class="g2_24" />
<path d="M707.5,207.5l0,-42" class="g1_24" />
<path d="M813.5,207.5l0,-42" class="g1_24" />
<path d="M357.5,243.5l67,0" class="g3_24" />
<path d="M433.5,243.5l66,0" class="g3_24" />
<path d="M508.5,243.5l66,0" class="g3_24" />
<path d="M718.5,228.5l30,0" class="g3_24" />
<path d="M718.5,243.5l61,0" class="g3_24" />
<path d="M126.5,209.5l0,-2" class="g1_24" />
<path d="M126.5,207.5l205,0" class="g1_24" />
<path d="M331.5,209.5l0,-2" class="g1_24" />
<path d="M331.5,207.5l376,0" class="g1_24" />
<path d="M707.5,209.5l0,-2" class="g1_24" />
<path d="M708.5,207.5l105,0" class="g1_24" />
<path d="M813.5,209.5l0,-2" class="g1_24" />
<path d="M126.5,265.5l0,-56" class="g1_24" />
<path d="M331.5,265.5l0,-56" class="g1_24" />
<path d="M707.5,265.5l0,-56" class="g1_24" />
<path d="M813.5,265.5l0,-56" class="g1_24" />
<path d="M488.5,302.5l67,0" class="g3_24" />
<path d="M718.5,287.5l30,0" class="g3_24" />
<path d="M718.5,302.5l63,0" class="g3_24" />
<path d="M126.5,268.5l0,-3" class="g1_24" />
<path d="M126.5,266.5l205,0" class="g1_24" />
<path d="M331.5,268.5l0,-3" class="g1_24" />
<path d="M331.5,266.5l376,0" class="g1_24" />
<path d="M707.5,268.5l0,-3" class="g1_24" />
<path d="M708.5,266.5l105,0" class="g1_24" />
<path d="M813.5,268.5l0,-3" class="g1_24" />
<path d="M126.5,324.5l0,-56" class="g1_24" />
<path d="M331.5,324.5l0,-56" class="g1_24" />
<path d="M707.5,324.5l0,-56" class="g1_24" />
<path d="M813.5,324.5l0,-56" class="g1_24" />
<path d="M718.5,346.5l30,0" class="g3_24" />
<path d="M718.5,361.5l75,0" class="g3_24" />
<path d="M126.5,327.5l0,-3" class="g1_24" />
<path d="M126.5,325.5l205,0" class="g1_24" />
<path d="M331.5,327.5l0,-3" class="g1_24" />
<path d="M331.5,325.5l376,0" class="g1_24" />
<path d="M707.5,327.5l0,-3" class="g1_24" />
<path d="M708.5,325.5l105,0" class="g1_24" />
<path d="M813.5,327.5l0,-3" class="g1_24" />
<path d="M126.5,383.5l0,-56" class="g1_24" />
<path d="M331.5,383.5l0,-56" class="g1_24" />
<path d="M707.5,383.5l0,-56" class="g1_24" />
<path d="M813.5,383.5l0,-56" class="g1_24" />
<path d="M718.5,405.5l30,0" class="g3_24" />
<path d="M718.5,420.5l63,0" class="g3_24" />
<path d="M126.5,386.5l0,-3" class="g1_24" />
<path d="M126.5,384.5l205,0" class="g1_24" />
<path d="M331.5,386.5l0,-3" class="g1_24" />
<path d="M331.5,384.5l376,0" class="g1_24" />
<path d="M707.5,386.5l0,-3" class="g1_24" />
<path d="M708.5,384.5l105,0" class="g1_24" />
<path d="M813.5,386.5l0,-3" class="g1_24" />
<path d="M126.5,427.5l0,-41" class="g1_24" />
<path d="M331.5,427.5l0,-41" class="g1_24" />
<path d="M707.5,427.5l0,-41" class="g1_24" />
<path d="M813.5,427.5l0,-41" class="g1_24" />
<path d="M718.5,449.5l30,0" class="g3_24" />
<path d="M718.5,464.5l63,0" class="g3_24" />
<path d="M126.5,430.5l0,-3" class="g1_24" />
<path d="M126.5,428.5l205,0" class="g1_24" />
<path d="M331.5,430.5l0,-3" class="g1_24" />
<path d="M331.5,428.5l376,0" class="g1_24" />
<path d="M707.5,430.5l0,-3" class="g1_24" />
<path d="M708.5,428.5l105,0" class="g1_24" />
<path d="M813.5,430.5l0,-3" class="g1_24" />
<path d="M126.5,486.5l0,-56" class="g1_24" />
<path d="M331.5,486.5l0,-56" class="g1_24" />
<path d="M707.5,486.5l0,-56" class="g1_24" />
<path d="M813.5,486.5l0,-56" class="g1_24" />
<path d="M718.5,508.5l30,0" class="g3_24" />
<path d="M718.5,523.5l55,0" class="g3_24" />
<path d="M126.5,489.5l0,-3" class="g1_24" />
<path d="M126.5,487.5l205,0" class="g1_24" />
<path d="M331.5,489.5l0,-3" class="g1_24" />
<path d="M331.5,487.5l376,0" class="g1_24" />
<path d="M707.5,489.5l0,-3" class="g1_24" />
<path d="M708.5,487.5l105,0" class="g1_24" />
<path d="M813.5,489.5l0,-3" class="g1_24" />
<path d="M126.5,545.5l0,-56" class="g1_24" />
<path d="M331.5,545.5l0,-56" class="g1_24" />
<path d="M707.5,545.5l0,-56" class="g1_24" />
<path d="M813.5,545.5l0,-56" class="g1_24" />
<path d="M718.5,567.5l30,0" class="g3_24" />
<path d="M718.5,582.5l67,0" class="g3_24" />
<path d="M126.5,548.5l0,-3" class="g1_24" />
<path d="M126.5,546.5l205,0" class="g1_24" />
<path d="M331.5,548.5l0,-3" class="g1_24" />
<path d="M331.5,546.5l376,0" class="g1_24" />
<path d="M707.5,548.5l0,-3" class="g1_24" />
<path d="M708.5,546.5l105,0" class="g1_24" />
<path d="M813.5,548.5l0,-3" class="g1_24" />
<path d="M126.5,589.5l0,-41" class="g1_24" />
<path d="M126.5,590.5l0,-1" class="g1_24" />
<path d="M126.5,590.5l0,-1" class="g1_24" />
<path d="M126.5,590.5l205,0" class="g1_24" />
<path d="M331.5,589.5l0,-41" class="g1_24" />
<path d="M331.5,590.5l0,-1" class="g1_24" />
<path d="M331.5,590.5l376,0" class="g1_24" />
<path d="M707.5,589.5l0,-41" class="g1_24" />
<path d="M707.5,590.5l0,-1" class="g1_24" />
<path d="M708.5,590.5l105,0" class="g1_24" />
<path d="M813.5,589.5l0,-41" class="g1_24" />
<path d="M813.5,590.5l0,-1" class="g1_24" />
<path d="M813.5,590.5l0,-1" class="g1_24" />
<path fill-rule="evenodd" d="M126,689l218,0l0,-17l-218,0l0,17Z" class="g2_24" />
<path fill-rule="evenodd" d="M126,714l11,0l0,-25l-11,0l0,25Z" class="g2_24" />
<path fill-rule="evenodd" d="M333,714l11,0l0,-25l-11,0l0,25Z" class="g2_24" />
<path fill-rule="evenodd" d="M126,716l218,0l0,-2l-218,0l0,2Z" class="g2_24" />
<path fill-rule="evenodd" d="M137,714l196,0l0,-25l-196,0l0,25Z" class="g2_24" />
<path fill-rule="evenodd" d="M345,689l381,0l0,-17l-381,0l0,17Z" class="g2_24" />
<path fill-rule="evenodd" d="M345,714l10,0l0,-25l-10,0l0,25Z" class="g2_24" />
<path fill-rule="evenodd" d="M716,714l10,0l0,-25l-10,0l0,25Z" class="g2_24" />
<path fill-rule="evenodd" d="M345,716l381,0l0,-2l-381,0l0,2Z" class="g2_24" />
<path fill-rule="evenodd" d="M355,714l361,0l0,-25l-361,0l0,25Z" class="g2_24" />
<path fill-rule="evenodd" d="M727,674l86,0l0,-2l-86,0l0,2Z" class="g2_24" />
<path fill-rule="evenodd" d="M727,714l11,0l0,-40l-11,0l0,40Z" class="g2_24" />
<path fill-rule="evenodd" d="M803,714l10,0l0,-40l-10,0l0,40Z" class="g2_24" />
<path fill-rule="evenodd" d="M727,716l86,0l0,-2l-86,0l0,2Z" class="g2_24" />
<g clip-path="url(#c1_24)">
<path fill-rule="evenodd" d="M738,694l65,0l0,-20l-65,0l0,20Z" class="g2_24" />
</g>
<path fill-rule="evenodd" d="M738,714l65,0l0,-20l-65,0l0,20Z" class="g2_24" />
<path d="M126.5,674.5l0,-3" class="g1_24" />
<path d="M126.5,672.5l0,-1" class="g1_24" />
<path d="M126.5,672.5l218,0" class="g1_24" />
<path fill-rule="evenodd" d="M126,674l218,0l0,-2l-218,0l0,2Z" class="g2_24" />
<path d="M344.5,674.5l0,-2" class="g1_24" />
<path d="M344.5,672.5l0,-1" class="g1_24" />
<path d="M345.5,672.5l381,0" class="g1_24" />
<path fill-rule="evenodd" d="M345,674l381,0l0,-2l-381,0l0,2Z" class="g2_24" />
<path d="M726.5,674.5l0,-2" class="g1_24" />
<path d="M726.5,672.5l0,-1" class="g1_24" />
<path d="M727.5,672.5l86,0" class="g1_24" />
<path fill-rule="evenodd" d="M727,674l86,0l0,-2l-86,0l0,2Z" class="g2_24" />
<path d="M813.5,674.5l0,-3" class="g1_24" />
<path d="M813.5,672.5l0,-1" class="g1_24" />
<path fill-rule="evenodd" d="M126,716l218,0l0,-2l-218,0l0,2Z" class="g2_24" />
<path d="M126.5,716.5l0,-42" class="g1_24" />
<path fill-rule="evenodd" d="M344,716l383,0l0,-2l-383,0l0,2Z" class="g2_24" />
<path d="M344.5,716.5l0,-42" class="g1_24" />
<path fill-rule="evenodd" d="M727,716l87,0l0,-2l-87,0l0,2Z" class="g2_24" />
<path d="M726.5,716.5l0,-42" class="g1_24" />
<path d="M813.5,716.5l0,-42" class="g1_24" />
<path d="M738.5,738.5l29,0" class="g3_24" />
<path d="M738.5,753.5l51,0" class="g3_24" />
<path d="M126.5,719.5l0,-3" class="g1_24" />
<path d="M126.5,717.5l218,0" class="g1_24" />
<path d="M344.5,719.5l0,-3" class="g1_24" />
<path d="M345.5,717.5l381,0" class="g1_24" />
<path d="M726.5,719.5l0,-3" class="g1_24" />
<path d="M727.5,717.5l86,0" class="g1_24" />
<path d="M813.5,719.5l0,-3" class="g1_24" />
<path d="M126.5,775.5l0,-56" class="g1_24" />
<path d="M344.5,775.5l0,-56" class="g1_24" />
<path d="M726.5,775.5l0,-56" class="g1_24" />
<path d="M813.5,775.5l0,-56" class="g1_24" />
<path d="M738.5,797.5l29,0" class="g3_24" />
<path d="M738.5,812.5l49,0" class="g3_24" />
<path d="M126.5,778.5l0,-3" class="g1_24" />
<path d="M126.5,776.5l218,0" class="g1_24" />
<path d="M344.5,778.5l0,-3" class="g1_24" />
<path d="M345.5,776.5l381,0" class="g1_24" />
<path d="M726.5,778.5l0,-3" class="g1_24" />
<path d="M727.5,776.5l86,0" class="g1_24" />
<path d="M813.5,778.5l0,-3" class="g1_24" />
<path d="M126.5,819.5l0,-41" class="g1_24" />
<path d="M344.5,819.5l0,-41" class="g1_24" />
<path d="M726.5,819.5l0,-41" class="g1_24" />
<path d="M813.5,819.5l0,-41" class="g1_24" />
<path d="M738.5,841.5l59,0" class="g3_24" />
<path d="M126.5,822.5l0,-3" class="g1_24" />
<path d="M126.5,820.5l218,0" class="g1_24" />
<path d="M344.5,822.5l0,-3" class="g1_24" />
<path d="M345.5,820.5l381,0" class="g1_24" />
<path d="M726.5,822.5l0,-3" class="g1_24" />
<path d="M727.5,820.5l86,0" class="g1_24" />
<path d="M813.5,822.5l0,-3" class="g1_24" />
<path d="M126.5,863.5l0,-41" class="g1_24" />
<path d="M344.5,863.5l0,-41" class="g1_24" />
<path d="M726.5,863.5l0,-41" class="g1_24" />
<path d="M813.5,863.5l0,-41" class="g1_24" />
<path d="M738.5,885.5l29,0" class="g3_24" />
<path d="M738.5,900.5l46,0" class="g3_24" />
<path d="M126.5,866.5l0,-3" class="g1_24" />
<path d="M126.5,864.5l218,0" class="g1_24" />
<path d="M344.5,866.5l0,-3" class="g1_24" />
<path d="M345.5,864.5l381,0" class="g1_24" />
<path d="M726.5,866.5l0,-3" class="g1_24" />
<path d="M727.5,864.5l86,0" class="g1_24" />
<path d="M813.5,866.5l0,-3" class="g1_24" />
<path d="M126.5,922.5l0,-56" class="g1_24" />
<path d="M126.5,923.5l0,-1" class="g1_24" />
<path d="M126.5,923.5l0,-1" class="g1_24" />
<path d="M126.5,923.5l218,0" class="g1_24" />
<path d="M344.5,922.5l0,-56" class="g1_24" />
<path d="M344.5,923.5l0,-1" class="g1_24" />
<path d="M345.5,923.5l381,0" class="g1_24" />
<path d="M726.5,922.5l0,-56" class="g1_24" />
<path d="M726.5,923.5l0,-1" class="g1_24" />
<path d="M727.5,923.5l86,0" class="g1_24" />
<path d="M813.5,922.5l0,-56" class="g1_24" />
<path d="M813.5,923.5l0,-1" class="g1_24" />
<path d="M813.5,923.5l0,-1" class="g1_24" />
</svg>