<?xml version="1.0" encoding="UTF-8" standalone="no"?>
<!DOCTYPE svg PUBLIC "-//W3C//DTD SVG 1.1//EN"
"http://www.w3.org/Graphics/SVG/1.1/DTD/svg11.dtd">
<svg version="1.1" xmlns="http://www.w3.org/2000/svg" xmlns:xlink="http://www.w3.org/1999/xlink">
<defs>
<clipPath id="c0_26"><path d="M126.5,172.5l0,-24l196,0l0,24Z" /></clipPath>
<clipPath id="c1_26"><path d="M323.5,172.5l0,-24l389,0l0,24Z" /></clipPath>
<clipPath id="c2_26"><path d="M713.5,172.5l0,-24l100,0l0,24Z" /></clipPath>
<clipPath id="c3_26"><path d="M714.5,404.5l0,-40l99,0l0,40Z" /></clipPath>
<clipPath id="c4_26"><path d="M126.5,814.5l0,-39l169,0l0,39Z" /></clipPath>
<clipPath id="c5_26"><path d="M724.5,814.5l0,-39l89,0l0,39Z" /></clipPath>
<style type="text/css"><![CDATA[
.g1_26{
fill: none;
stroke: #000000;
stroke-width: 1;
stroke-linecap: butt;
stroke-linejoin: miter;
}
.g2_26{
fill: #DFDFDF;
}
.g3_26{
fill: none;
stroke: #0066FF;
stroke-width: 1;
stroke-linecap: butt;
stroke-linejoin: miter;
}
]]></style>
</defs>
<path d="M122.5,1029.5l705,0" class="g1_26" />
<path fill-rule="evenodd" d="M126,148l196,0l0,-2l-196,0l0,2Z" class="g2_26" />
<path fill-rule="evenodd" d="M126,172l11,0l0,-24l-11,0l0,24Z" class="g2_26" />
<path fill-rule="evenodd" d="M311,172l11,0l0,-24l-11,0l0,24Z" class="g2_26" />
<path fill-rule="evenodd" d="M126,174l196,0l0,-2l-196,0l0,2Z" class="g2_26" />
<g clip-path="url(#c0_26)">
<path fill-rule="evenodd" d="M137,172l174,0l0,-24l-174,0l0,24Z" class="g2_26" />
</g>
<path fill-rule="evenodd" d="M323,148l389,0l0,-2l-389,0l0,2Z" class="g2_26" />
<path fill-rule="evenodd" d="M323,172l10,0l0,-24l-10,0l0,24Z" class="g2_26" />
<path fill-rule="evenodd" d="M701,172l11,0l0,-24l-11,0l0,24Z" class="g2_26" />
<path fill-rule="evenodd" d="M323,174l389,0l0,-2l-389,0l0,2Z" class="g2_26" />
<g clip-path="url(#c1_26)">
<path fill-rule="evenodd" d="M333,172l368,0l0,-24l-368,0l0,24Z" class="g2_26" />
</g>
<path fill-rule="evenodd" d="M713,148l100,0l0,-2l-100,0l0,2Z" class="g2_26" />
<path fill-rule="evenodd" d="M713,172l10,0l0,-24l-10,0l0,24Z" class="g2_26" />
<path fill-rule="evenodd" d="M803,172l10,0l0,-24l-10,0l0,24Z" class="g2_26" />
<path fill-rule="evenodd" d="M713,174l100,0l0,-2l-100,0l0,2Z" class="g2_26" />
<g clip-path="url(#c2_26)">
<path fill-rule="evenodd" d="M723,172l80,0l0,-24l-80,0l0,24Z" class="g2_26" />
</g>
<path d="M126.5,148.5l0,-3" class="g1_26" />
<path d="M126.5,145.5l196,0" class="g1_26" />
<path fill-rule="evenodd" d="M126,148l196,0l0,-3l-196,0l0,3Z" class="g2_26" />
<path d="M322.5,148.5l0,-3" class="g1_26" />
<path d="M323.5,145.5l389,0" class="g1_26" />
<path fill-rule="evenodd" d="M323,148l389,0l0,-3l-389,0l0,3Z" class="g2_26" />
<path d="M712.5,148.5l0,-3" class="g1_26" />
<path d="M713.5,145.5l100,0" class="g1_26" />
<path fill-rule="evenodd" d="M713,148l100,0l0,-3l-100,0l0,3Z" class="g2_26" />
<path d="M813.5,148.5l0,-3" class="g1_26" />
<path fill-rule="evenodd" d="M126,174l196,0l0,-2l-196,0l0,2Z" class="g2_26" />
<path d="M126.5,174.5l0,-26" class="g1_26" />
<path fill-rule="evenodd" d="M322,174l390,0l0,-2l-390,0l0,2Z" class="g2_26" />
<path d="M322.5,174.5l0,-26" class="g1_26" />
<path fill-rule="evenodd" d="M712,174l102,0l0,-2l-102,0l0,2Z" class="g2_26" />
<path d="M712.5,174.5l0,-26" class="g1_26" />
<path d="M813.5,174.5l0,-26" class="g1_26" />
<path d="M723.5,196.5l30,0" class="g3_26" />
<path d="M723.5,211.5l65,0" class="g3_26" />
<path d="M126.5,177.5l0,-3" class="g1_26" />
<path d="M126.5,175.5l196,0" class="g1_26" />
<path d="M322.5,177.5l0,-3" class="g1_26" />
<path d="M323.5,175.5l389,0" class="g1_26" />
<path d="M712.5,177.5l0,-3" class="g1_26" />
<path d="M713.5,175.5l100,0" class="g1_26" />
<path d="M813.5,177.5l0,-3" class="g1_26" />
<path d="M126.5,218.5l0,-41" class="g1_26" />
<path d="M322.5,218.5l0,-41" class="g1_26" />
<path d="M712.5,218.5l0,-41" class="g1_26" />
<path d="M813.5,218.5l0,-41" class="g1_26" />
<path d="M723.5,240.5l30,0" class="g3_26" />
<path d="M723.5,255.5l62,0" class="g3_26" />
<path d="M126.5,221.5l0,-3" class="g1_26" />
<path d="M126.5,219.5l196,0" class="g1_26" />
<path d="M322.5,221.5l0,-3" class="g1_26" />
<path d="M323.5,219.5l389,0" class="g1_26" />
<path d="M712.5,221.5l0,-3" class="g1_26" />
<path d="M713.5,219.5l100,0" class="g1_26" />
<path d="M813.5,221.5l0,-3" class="g1_26" />
<path d="M126.5,263.5l0,-42" class="g1_26" />
<path d="M126.5,263.5l196,0" class="g1_26" />
<path d="M322.5,263.5l0,-42" class="g1_26" />
<path d="M323.5,263.5l389,0" class="g1_26" />
<path d="M712.5,263.5l0,-42" class="g1_26" />
<path d="M713.5,263.5l100,0" class="g1_26" />
<path d="M813.5,263.5l0,-42" class="g1_26" />
<path fill-rule="evenodd" d="M126,379l233,0l0,-17l-233,0l0,17Z" class="g2_26" />
<path fill-rule="evenodd" d="M126,404l11,0l0,-25l-11,0l0,25Z" class="g2_26" />
<path fill-rule="evenodd" d="M348,404l11,0l0,-25l-11,0l0,25Z" class="g2_26" />
<path fill-rule="evenodd" d="M126,406l233,0l0,-2l-233,0l0,2Z" class="g2_26" />
<path fill-rule="evenodd" d="M137,404l211,0l0,-25l-211,0l0,25Z" class="g2_26" />
<path fill-rule="evenodd" d="M360,379l354,0l0,-17l-354,0l0,17Z" class="g2_26" />
<path fill-rule="evenodd" d="M360,404l10,0l0,-25l-10,0l0,25Z" class="g2_26" />
<path fill-rule="evenodd" d="M703,404l11,0l0,-25l-11,0l0,25Z" class="g2_26" />
<path fill-rule="evenodd" d="M360,406l354,0l0,-2l-354,0l0,2Z" class="g2_26" />
<path fill-rule="evenodd" d="M370,404l333,0l0,-25l-333,0l0,25Z" class="g2_26" />
<path fill-rule="evenodd" d="M714,364l99,0l0,-2l-99,0l0,2Z" class="g2_26" />
<path fill-rule="evenodd" d="M714,404l11,0l0,-40l-11,0l0,40Z" class="g2_26" />
<path fill-rule="evenodd" d="M803,404l10,0l0,-40l-10,0l0,40Z" class="g2_26" />
<path fill-rule="evenodd" d="M714,406l99,0l0,-2l-99,0l0,2Z" class="g2_26" />
<g clip-path="url(#c3_26)">
<path fill-rule="evenodd" d="M725,384l78,0l0,-20l-78,0l0,20Z" class="g2_26" />
</g>
<path fill-rule="evenodd" d="M725,404l78,0l0,-20l-78,0l0,20Z" class="g2_26" />
<path d="M126.5,364.5l0,-3" class="g1_26" />
<path d="M126.5,362.5l0,-1" class="g1_26" />
<path d="M126.5,362.5l233,0" class="g1_26" />
<path fill-rule="evenodd" d="M126,364l233,0l0,-2l-233,0l0,2Z" class="g2_26" />
<path d="M359.5,364.5l0,-2" class="g1_26" />
<path d="M359.5,362.5l0,-1" class="g1_26" />
<path d="M360.5,362.5l354,0" class="g1_26" />
<path fill-rule="evenodd" d="M360,364l354,0l0,-2l-354,0l0,2Z" class="g2_26" />
<path d="M714.5,364.5l0,-2" class="g1_26" />
<path d="M714.5,362.5l0,-1" class="g1_26" />
<path d="M714.5,362.5l99,0" class="g1_26" />
<path fill-rule="evenodd" d="M714,364l99,0l0,-2l-99,0l0,2Z" class="g2_26" />
<path d="M813.5,364.5l0,-3" class="g1_26" />
<path d="M813.5,362.5l0,-1" class="g1_26" />
<path fill-rule="evenodd" d="M126,406l233,0l0,-2l-233,0l0,2Z" class="g2_26" />
<path d="M126.5,406.5l0,-42" class="g1_26" />
<path fill-rule="evenodd" d="M359,406l355,0l0,-2l-355,0l0,2Z" class="g2_26" />
<path d="M359.5,406.5l0,-42" class="g1_26" />
<path fill-rule="evenodd" d="M714,406l100,0l0,-2l-100,0l0,2Z" class="g2_26" />
<path d="M714.5,406.5l0,-42" class="g1_26" />
<path d="M813.5,406.5l0,-42" class="g1_26" />
<path d="M725.5,428.5l30,0" class="g3_26" />
<path d="M725.5,443.5l64,0" class="g3_26" />
<path d="M126.5,409.5l0,-3" class="g1_26" />
<path d="M126.5,407.5l233,0" class="g1_26" />
<path d="M359.5,409.5l0,-3" class="g1_26" />
<path d="M360.5,407.5l354,0" class="g1_26" />
<path d="M714.5,409.5l0,-3" class="g1_26" />
<path d="M714.5,407.5l99,0" class="g1_26" />
<path d="M813.5,409.5l0,-3" class="g1_26" />
<path d="M126.5,465.5l0,-56" class="g1_26" />
<path d="M359.5,465.5l0,-56" class="g1_26" />
<path d="M714.5,465.5l0,-56" class="g1_26" />
<path d="M813.5,465.5l0,-56" class="g1_26" />
<path d="M725.5,487.5l30,0" class="g3_26" />
<path d="M725.5,502.5l54,0" class="g3_26" />
<path d="M126.5,468.5l0,-3" class="g1_26" />
<path d="M126.5,466.5l233,0" class="g1_26" />
<path d="M359.5,468.5l0,-3" class="g1_26" />
<path d="M360.5,466.5l354,0" class="g1_26" />
<path d="M714.5,468.5l0,-3" class="g1_26" />
<path d="M714.5,466.5l99,0" class="g1_26" />
<path d="M813.5,468.5l0,-3" class="g1_26" />
<path d="M126.5,509.5l0,-41" class="g1_26" />
<path d="M359.5,509.5l0,-41" class="g1_26" />
<path d="M714.5,509.5l0,-41" class="g1_26" />
<path d="M813.5,509.5l0,-41" class="g1_26" />
<path d="M725.5,531.5l30,0" class="g3_26" />
<path d="M725.5,546.5l58,0" class="g3_26" />
<path d="M126.5,512.5l0,-3" class="g1_26" />
<path d="M126.5,510.5l233,0" class="g1_26" />
<path d="M359.5,512.5l0,-3" class="g1_26" />
<path d="M360.5,510.5l354,0" class="g1_26" />
<path d="M714.5,512.5l0,-3" class="g1_26" />
<path d="M714.5,510.5l99,0" class="g1_26" />
<path d="M813.5,512.5l0,-3" class="g1_26" />
<path d="M126.5,568.5l0,-56" class="g1_26" />
<path d="M359.5,568.5l0,-56" class="g1_26" />
<path d="M714.5,568.5l0,-56" class="g1_26" />
<path d="M813.5,568.5l0,-56" class="g1_26" />
<path d="M725.5,590.5l30,0" class="g3_26" />
<path d="M725.5,605.5l66,0" class="g3_26" />
<path d="M126.5,571.5l0,-3" class="g1_26" />
<path d="M126.5,569.5l233,0" class="g1_26" />
<path d="M359.5,571.5l0,-3" class="g1_26" />
<path d="M360.5,569.5l354,0" class="g1_26" />
<path d="M714.5,571.5l0,-3" class="g1_26" />
<path d="M714.5,569.5l99,0" class="g1_26" />
<path d="M813.5,571.5l0,-3" class="g1_26" />
<path d="M126.5,612.5l0,-41" class="g1_26" />
<path d="M359.5,612.5l0,-41" class="g1_26" />
<path d="M714.5,612.5l0,-41" class="g1_26" />
<path d="M813.5,612.5l0,-41" class="g1_26" />
<path d="M725.5,634.5l30,0" class="g3_26" />
<path d="M725.5,649.5l62,0" class="g3_26" />
<path d="M126.5,615.5l0,-3" class="g1_26" />
<path d="M126.5,613.5l233,0" class="g1_26" />
<path d="M359.5,615.5l0,-3" class="g1_26" />
<path d="M360.5,613.5l354,0" class="g1_26" />
<path d="M714.5,615.5l0,-3" class="g1_26" />
<path d="M714.5,613.5l99,0" class="g1_26" />
<path d="M813.5,615.5l0,-3" class="g1_26" />
<path d="M126.5,656.5l0,-41" class="g1_26" />
<path d="M126.5,657.5l0,-1" class="g1_26" />
<path d="M126.5,657.5l0,-1" class="g1_26" />
<path d="M126.5,657.5l233,0" class="g1_26" />
<path d="M359.5,656.5l0,-41" class="g1_26" />
<path d="M359.5,657.5l0,-1" class="g1_26" />
<path d="M360.5,657.5l354,0" class="g1_26" />
<path d="M714.5,656.5l0,-41" class="g1_26" />
<path d="M714.5,657.5l0,-1" class="g1_26" />
<path d="M714.5,657.5l99,0" class="g1_26" />
<path d="M813.5,656.5l0,-41" class="g1_26" />
<path d="M813.5,657.5l0,-1" class="g1_26" />
<path d="M813.5,657.5l0,-1" class="g1_26" />
<path fill-rule="evenodd" d="M126,775l169,0l0,-3l-169,0l0,3Z" class="g2_26" />
<path fill-rule="evenodd" d="M126,814l11,0l0,-39l-11,0l0,39Z" class="g2_26" />
<path fill-rule="evenodd" d="M284,814l11,0l0,-39l-11,0l0,39Z" class="g2_26" />
<path fill-rule="evenodd" d="M126,816l169,0l0,-2l-169,0l0,2Z" class="g2_26" />
<g clip-path="url(#c4_26)">
<path fill-rule="evenodd" d="M137,794l147,0l0,-19l-147,0l0,19Z" class="g2_26" />
</g>
<path fill-rule="evenodd" d="M137,814l147,0l0,-20l-147,0l0,20Z" class="g2_26" />
<path fill-rule="evenodd" d="M295,790l428,0l0,-18l-428,0l0,18Z" class="g2_26" />
<path fill-rule="evenodd" d="M295,814l11,0l0,-24l-11,0l0,24Z" class="g2_26" />
<path fill-rule="evenodd" d="M712,814l11,0l0,-24l-11,0l0,24Z" class="g2_26" />
<path fill-rule="evenodd" d="M295,816l428,0l0,-2l-428,0l0,2Z" class="g2_26" />
<path fill-rule="evenodd" d="M306,814l406,0l0,-24l-406,0l0,24Z" class="g2_26" />
<path fill-rule="evenodd" d="M724,775l89,0l0,-3l-89,0l0,3Z" class="g2_26" />
<path fill-rule="evenodd" d="M724,814l10,0l0,-39l-10,0l0,39Z" class="g2_26" />
<path fill-rule="evenodd" d="M803,814l10,0l0,-39l-10,0l0,39Z" class="g2_26" />
<path fill-rule="evenodd" d="M724,816l89,0l0,-2l-89,0l0,2Z" class="g2_26" />
<g clip-path="url(#c5_26)">
<path fill-rule="evenodd" d="M734,794l69,0l0,-19l-69,0l0,19Z" class="g2_26" />
</g>
<path fill-rule="evenodd" d="M734,814l69,0l0,-20l-69,0l0,20Z" class="g2_26" />
<path d="M126.5,774.5l0,-3" class="g1_26" />
<path d="M126.5,772.5l0,-1" class="g1_26" />
<path d="M126.5,772.5l169,0" class="g1_26" />
<path fill-rule="evenodd" d="M126,774l169,0l0,-2l-169,0l0,2Z" class="g2_26" />
<path d="M295.5,774.5l0,-2" class="g1_26" />
<path d="M295.5,772.5l0,-1" class="g1_26" />
<path d="M295.5,772.5l428,0" class="g1_26" />
<path fill-rule="evenodd" d="M295,774l428,0l0,-2l-428,0l0,2Z" class="g2_26" />
<path d="M723.5,774.5l0,-2" class="g1_26" />
<path d="M723.5,772.5l0,-1" class="g1_26" />
<path d="M724.5,772.5l89,0" class="g1_26" />
<path fill-rule="evenodd" d="M724,774l89,0l0,-2l-89,0l0,2Z" class="g2_26" />
<path d="M813.5,774.5l0,-3" class="g1_26" />
<path d="M813.5,772.5l0,-1" class="g1_26" />
<path fill-rule="evenodd" d="M126,816l169,0l0,-2l-169,0l0,2Z" class="g2_26" />
<path d="M126.5,816.5l0,-42" class="g1_26" />
<path fill-rule="evenodd" d="M295,816l428,0l0,-2l-428,0l0,2Z" class="g2_26" />
<path d="M295.5,816.5l0,-42" class="g1_26" />
<path fill-rule="evenodd" d="M723,816l91,0l0,-2l-91,0l0,2Z" class="g2_26" />
<path d="M723.5,816.5l0,-42" class="g1_26" />
<path d="M813.5,816.5l0,-42" class="g1_26" />
<path d="M322.5,898.5l66,0" class="g3_26" />
<path d="M734.5,838.5l30,0" class="g3_26" />
<path d="M734.5,853.5l63,0" class="g3_26" />
<path d="M126.5,819.5l0,-3" class="g1_26" />
<path d="M126.5,817.5l169,0" class="g1_26" />
<path d="M295.5,819.5l0,-3" class="g1_26" />
<path d="M295.5,817.5l428,0" class="g1_26" />
<path d="M723.5,819.5l0,-3" class="g1_26" />
<path d="M724.5,817.5l89,0" class="g1_26" />
<path d="M813.5,819.5l0,-3" class="g1_26" />
<path d="M126.5,905.5l0,-86" class="g1_26" />
<path d="M295.5,905.5l0,-86" class="g1_26" />
<path d="M723.5,905.5l0,-86" class="g1_26" />
<path d="M813.5,905.5l0,-86" class="g1_26" />
<path d="M734.5,927.5l30,0" class="g3_26" />
<path d="M734.5,942.5l56,0" class="g3_26" />
<path d="M126.5,908.5l0,-3" class="g1_26" />
<path d="M126.5,906.5l169,0" class="g1_26" />
<path d="M295.5,908.5l0,-3" class="g1_26" />
<path d="M295.5,906.5l428,0" class="g1_26" />
<path d="M723.5,908.5l0,-3" class="g1_26" />
<path d="M724.5,906.5l89,0" class="g1_26" />
<path d="M813.5,908.5l0,-3" class="g1_26" />
<path d="M126.5,964.5l0,-56" class="g1_26" />
<path d="M295.5,964.5l0,-56" class="g1_26" />
<path d="M723.5,964.5l0,-56" class="g1_26" />
<path d="M813.5,964.5l0,-56" class="g1_26" />
<path d="M497.5,986.5l66,0" class="g3_26" />
<path d="M734.5,986.5l30,0" class="g3_26" />
<path d="M126.5,967.5l0,-3" class="g1_26" />
<path d="M126.5,965.5l169,0" class="g1_26" />
<path d="M295.5,967.5l0,-3" class="g1_26" />
<path d="M295.5,965.5l428,0" class="g1_26" />
<path d="M723.5,967.5l0,-3" class="g1_26" />
<path d="M724.5,965.5l89,0" class="g1_26" />
<path d="M813.5,967.5l0,-3" class="g1_26" />
<path d="M126.5,989.5l0,-22" class="g1_26" />
<path d="M126.5,989.5l169,0" class="g1_26" />
<path d="M295.5,989.5l0,-22" class="g1_26" />
<path d="M295.5,989.5l428,0" class="g1_26" />
<path d="M723.5,989.5l0,-22" class="g1_26" />
<path d="M724.5,989.5l89,0" class="g1_26" />
<path d="M813.5,989.5l0,-22" class="g1_26" />
</svg>