<?xml version="1.0" encoding="UTF-8" standalone="no"?>
<!DOCTYPE svg PUBLIC "-//W3C//DTD SVG 1.1//EN"
"http://www.w3.org/Graphics/SVG/1.1/DTD/svg11.dtd">
<svg version="1.1" xmlns="http://www.w3.org/2000/svg" xmlns:xlink="http://www.w3.org/1999/xlink">
<defs>
<style type="text/css"><![CDATA[
.g1_41{
fill: none;
stroke: #000000;
stroke-width: 1;
stroke-linecap: butt;
stroke-linejoin: miter;
}
.g2_41{
fill: none;
stroke: #0066FF;
stroke-width: 1;
stroke-linecap: butt;
stroke-linejoin: miter;
}
]]></style>
</defs>
<path d="M122.5,1029.5l705,0" class="g1_41" />
<path d="M145.5,98.5l108,0" class="g2_41" />
<path d="M145.5,128.5l104,0" class="g2_41" />
<path d="M145.5,159.5l109,0" class="g2_41" />
<path d="M145.5,189.5l104,0" class="g2_41" />
<path d="M145.5,220.5l99,0" class="g2_41" />
<path d="M145.5,250.5l112,0" class="g2_41" />
<path d="M145.5,281.5l112,0" class="g2_41" />
<path d="M145.5,311.5l108,0" class="g2_41" />
<path d="M145.5,342.5l107,0" class="g2_41" />
<path d="M145.5,372.5l114,0" class="g2_41" />
<path d="M145.5,403.5l100,0" class="g2_41" />
<path d="M145.5,433.5l108,0" class="g2_41" />
<path d="M145.5,464.5l111,0" class="g2_41" />
<path d="M145.5,494.5l104,0" class="g2_41" />
<path d="M145.5,524.5l160,0" class="g2_41" />
<path d="M353.5,555.5l74,0" class="g2_41" />
</svg>